<svg width="80" height="96" viewBox="0 0 80 96" fill="none" xmlns="http://www.w3.org/2000/svg">
<g filter="url(#filter0_bd_222_47)">
<path d="M32.9911 44.6762C33.7347 43.4234 33.6537 41.8469 32.7857 40.6769L29.1334 35.7541C28.9104 35.4535 28.5069 35.3508 28.1673 35.5082L25.1898 36.8878C24.4098 37.2491 23.487 37.0827 22.8824 36.4715V36.4715C22.179 35.7604 22.095 34.6442 22.6842 33.8359L24.4975 31.3482L28.3342 27.1927C29.5292 25.8983 31.0853 24.9924 32.8009 24.5922V24.5922V22.8501C32.8009 22.5189 32.6944 22.1966 32.497 21.9306V21.9306C32.2998 21.6648 32.0223 21.4694 31.7055 21.3733L31.4744 21.3032C30.6704 21.0594 30.0662 20.3922 29.9032 19.568L29.6047 18.0592C29.443 17.2419 29.4985 16.3863 29.7594 15.5951V15.5951C30.025 14.7896 30.4977 14.0558 31.1251 13.4851L31.2362 13.384C31.8632 12.8136 32.6387 12.4167 33.4671 12.2373V12.2373C34.4734 12.0193 35.5344 12.1314 36.47 12.5613L36.5336 12.5905C37.0115 12.8101 37.4459 13.1142 37.8158 13.4882V13.4882C38.6251 14.3063 39.0791 15.4107 39.0791 16.5615V18.371C39.0791 19.0831 38.8263 19.7721 38.3658 20.3152V20.3152C38.0366 20.7034 37.6143 21.0017 37.1384 21.1821L36.5874 21.391C36.3609 21.4768 36.1556 21.6103 35.9854 21.7825V21.7825C35.6355 22.1361 35.4594 22.626 35.5039 23.1214L35.6362 24.5922V24.5922C37.0749 24.5922 38.4674 25.1005 39.5677 26.0274L43.4667 29.3119C43.7758 29.5723 44.1516 29.741 44.5516 29.7987L45.8517 29.9865C47.0945 30.166 47.8986 31.3943 47.5659 32.6052V32.6052C47.334 33.4489 46.6005 34.0585 45.7286 34.1319L43.0118 34.3608C42.5956 34.3958 42.2452 34.6861 42.1332 35.0885L40.8603 39.6636C40.6224 40.5187 40.6215 41.4224 40.8577 42.2779L41.8886 46.0122C42.5747 48.4977 42.7875 51.0901 42.5157 53.6542L42.2663 56.0071C41.9086 59.3824 40.3527 62.5177 37.8811 64.8439V64.8439C36.5326 66.1131 34.9486 67.106 33.2186 67.7667L30.5585 68.7826C28.0089 69.7563 25.5585 70.9723 23.2411 72.4139L18.8269 75.16L16.672 80.6711L14.9436 81.988C13.5405 83.0571 11.5411 81.9183 11.7449 80.1662L12.504 73.6376L5.06312 71.0023C3.31681 70.3838 3.27736 67.9285 5.0029 67.2542L6.25201 66.7661L15.3695 68.1671L20.275 66.4926C21.7319 65.9952 23.1079 65.2865 24.3588 64.3891V64.3891C27.1156 62.4113 28.7504 59.2264 28.7504 55.8335V55.1017C28.7504 52.9543 29.3289 50.8464 30.4249 48.9998L32.9911 44.6762Z" fill="url(#paint0_linear_222_47)" fill-opacity="0.66" shape-rendering="crispEdges"/>
</g>
<g filter="url(#filter1_bd_222_47)">
<path d="M52.7165 70.877L52.6085 71.1132C51.0815 74.4564 48.1128 76.9205 44.5455 77.8056L35.949 77.927L34.6999 78.4151C32.9744 79.0893 33.0138 81.5447 34.7601 82.1632L42.201 84.7985L41.6451 89.5792C41.418 91.5324 43.8503 92.6064 45.1408 91.1228L45.848 90.3097L48.0029 84.7985L48.4512 84.5277C52.4407 82.1187 56.2367 79.4028 59.8047 76.4046L60.5037 75.7468C63.9271 72.5247 66.7651 68.7326 68.8909 64.5395C70.283 61.7938 70.0787 58.5095 68.357 55.9575L67.9068 55.2901C66.5712 53.3104 66.6296 50.7035 68.0525 48.7855L70.5454 45.4255C70.8952 44.9541 71.5279 44.793 72.0605 45.0397L74.7067 46.2658C75.4866 46.6272 76.4095 46.4607 77.014 45.8496C77.7174 45.1385 77.8014 44.0222 77.2122 43.2139L75.3989 40.7262L71.5623 36.5707C70.3672 35.2763 68.8112 34.3704 67.0955 33.9702V32.2281C67.0955 31.897 67.2021 31.5746 67.3994 31.3086C67.5966 31.0428 67.8741 30.8474 68.1909 30.7513L68.4221 30.6812C69.2261 30.4374 69.8302 29.7702 69.9932 28.946L70.2918 27.4372C70.4534 26.62 70.3979 25.7643 70.137 24.9731C69.8714 24.1677 69.3987 23.4339 68.7714 22.8631L68.6602 22.762C68.0333 22.1916 67.2577 21.7947 66.4293 21.6153C65.423 21.3973 64.362 21.5095 63.4264 21.9394L63.3628 21.9686C62.8849 22.1882 62.4505 22.4922 62.0806 22.8662C61.2713 23.6843 60.8173 24.7887 60.8173 25.9396V27.749C60.8173 28.4611 61.0701 29.1501 61.5307 29.6933C61.8598 30.0814 62.2821 30.3797 62.758 30.5601L63.3091 30.769C63.5355 30.8548 63.7408 30.9883 63.9111 31.1605C64.2609 31.5141 64.437 32.004 64.3925 32.4995L64.2602 33.9702C62.8215 33.9702 61.429 34.4785 60.3287 35.4054L56.4661 38.6594C56.1332 38.9398 55.7285 39.1213 55.2978 39.1836L54.0447 39.3645C52.8019 39.544 51.9978 40.7724 52.3305 41.9832C52.5624 42.8269 53.2959 43.4365 54.1678 43.5099L56.8314 43.7343C57.2796 43.7721 57.657 44.0847 57.7776 44.518L58.9747 48.821C59.2507 49.8131 59.2012 50.8675 58.8335 51.8293L57.773 54.6032C57.2418 55.9927 56.9694 57.4678 56.9694 58.9554C56.9694 62.086 56.1235 65.1584 54.5212 67.8478L52.7165 70.877Z" fill="url(#paint1_linear_222_47)" fill-opacity="0.66" shape-rendering="crispEdges"/>
</g>
<g filter="url(#filter2_bd_222_47)">
<path d="M56.3064 18.625L56.4184 18.2269C56.5333 17.8184 56.8225 17.4813 57.2088 17.3057C57.4899 17.178 57.8045 17.1439 58.1064 17.2086L58.5008 17.2931C58.8067 17.3587 59.0902 17.5034 59.3228 17.7127C59.6998 18.052 59.915 18.5354 59.915 19.0426V19.1228C59.915 20.2534 58.9042 21.1162 57.7875 20.9386C56.7011 20.7657 56.0086 19.6839 56.3064 18.625Z" fill="url(#paint2_linear_222_47)" fill-opacity="0.66" shape-rendering="crispEdges"/>
</g>
<g filter="url(#filter3_bd_222_47)">
<path d="M38.5924 9.76795L38.7044 9.36984C38.8193 8.96136 39.1085 8.62433 39.4948 8.44874C39.7759 8.32098 40.0906 8.28694 40.3924 8.35163L40.7868 8.43612C41.0928 8.50169 41.3762 8.64636 41.6088 8.8557C41.9858 9.195 42.201 9.67836 42.201 10.1856V10.2658C42.201 11.3964 41.1902 12.2592 40.0735 12.0816C38.9871 11.9087 38.2946 10.8269 38.5924 9.76795Z" fill="url(#paint3_linear_222_47)" fill-opacity="0.66" shape-rendering="crispEdges"/>
</g>
<g filter="url(#filter4_bd_222_47)">
<path d="M34.6658 5.88397L34.7218 5.68492C34.7792 5.48068 34.9238 5.31217 35.117 5.22437C35.2575 5.16049 35.4148 5.14347 35.5658 5.17581L35.763 5.21806C35.9159 5.25085 36.0577 5.32318 36.174 5.42785C36.3625 5.5975 36.4701 5.83918 36.4701 6.09278V6.13288C36.4701 6.69821 35.9647 7.1296 35.4063 7.04078C34.8631 6.95436 34.5169 6.41347 34.6658 5.88397Z" fill="url(#paint4_linear_222_47)" fill-opacity="0.66" shape-rendering="crispEdges"/>
</g>
<g filter="url(#filter5_bd_222_47)">
<path d="M38.3827 2.94746L38.4527 2.69864C38.5245 2.44334 38.7052 2.2327 38.9467 2.12295C39.1223 2.0431 39.319 2.02183 39.5077 2.06226L39.7541 2.11507C39.9454 2.15605 40.1225 2.24647 40.2679 2.3773C40.5035 2.58936 40.6381 2.89147 40.6381 3.20847V3.25859C40.6381 3.96526 40.0063 4.50449 39.3084 4.39346C38.6294 4.28544 38.1965 3.60933 38.3827 2.94746Z" fill="url(#paint5_linear_222_47)" fill-opacity="0.66" shape-rendering="crispEdges"/>
</g>
<g filter="url(#filter6_bd_222_47)">
<path d="M60.5454 12.9225L60.3381 12.7682C60.1253 12.6099 59.9932 12.3658 59.977 12.1011C59.9652 11.9085 60.0157 11.7172 60.1209 11.5554L60.2583 11.3441C60.3649 11.1802 60.5127 11.047 60.6868 10.958C60.9691 10.8138 61.2994 10.7961 61.5954 10.9095L61.6422 10.9274C62.3022 11.18 62.5799 11.9628 62.2268 12.5749C61.8832 13.1704 61.097 13.333 60.5454 12.9225Z" fill="url(#paint6_linear_222_47)" fill-opacity="0.66" shape-rendering="crispEdges"/>
</g>
<g filter="url(#filter7_bd_222_47)">
<path d="M63.5103 8.4303L63.3708 8.09643C63.2276 7.75385 63.2428 7.36556 63.4123 7.03523C63.5357 6.79488 63.733 6.60054 63.9752 6.48087L64.2916 6.32455C64.5371 6.20326 64.81 6.14848 65.0833 6.16566C65.5262 6.19352 65.9365 6.40806 66.2121 6.75591L66.2557 6.81091C66.8701 7.58637 66.6456 8.72737 65.7832 9.21228C64.9442 9.68407 63.8814 9.31843 63.5103 8.4303Z" fill="url(#paint7_linear_222_47)" fill-opacity="0.66" shape-rendering="crispEdges"/>
</g>
<g filter="url(#filter8_bd_222_47)">
<path d="M57.9193 4.58683L58.0686 4.72985C58.2218 4.8766 58.3026 5.08346 58.2892 5.29521C58.2795 5.44928 58.2205 5.59614 58.121 5.71414L57.991 5.86827C57.8901 5.98786 57.7596 6.07891 57.6125 6.13232C57.3742 6.21888 57.1102 6.20021 56.8864 6.08094L56.8511 6.06208C56.3521 5.7962 56.2091 5.14727 56.5501 4.69632C56.8818 4.25758 57.522 4.20639 57.9193 4.58683Z" fill="url(#paint8_linear_222_47)" fill-opacity="0.66" shape-rendering="crispEdges"/>
</g>
<defs>
<filter id="filter0_bd_222_47" x="-5.26917" y="3.12888" width="61.9104" height="88.2736" filterUnits="userSpaceOnUse" color-interpolation-filters="sRGB">
<feFlood flood-opacity="0" result="BackgroundImageFix"/>
<feGaussianBlur in="BackgroundImageFix" stdDeviation="4.5"/>
<feComposite in2="SourceAlpha" operator="in" result="effect1_backgroundBlur_222_47"/>
<feColorMatrix in="SourceAlpha" type="matrix" values="0 0 0 0 0 0 0 0 0 0 0 0 0 0 0 0 0 0 127 0" result="hardAlpha"/>
<feOffset/>
<feGaussianBlur stdDeviation="1"/>
<feComposite in2="hardAlpha" operator="out"/>
<feColorMatrix type="matrix" values="0 0 0 0 0.45 0 0 0 0 0.45 0 0 0 0 0.45 0 0 0 0.25 0"/>
<feBlend mode="normal" in2="effect1_backgroundBlur_222_47" result="effect2_dropShadow_222_47"/>
<feBlend mode="normal" in="SourceGraphic" in2="effect2_dropShadow_222_47" result="shape"/>
</filter>
<filter id="filter1_bd_222_47" x="24.4279" y="12.5069" width="62.1758" height="88.3096" filterUnits="userSpaceOnUse" color-interpolation-filters="sRGB">
<feFlood flood-opacity="0" result="BackgroundImageFix"/>
<feGaussianBlur in="BackgroundImageFix" stdDeviation="4.5"/>
<feComposite in2="SourceAlpha" operator="in" result="effect1_backgroundBlur_222_47"/>
<feColorMatrix in="SourceAlpha" type="matrix" values="0 0 0 0 0 0 0 0 0 0 0 0 0 0 0 0 0 0 127 0" result="hardAlpha"/>
<feOffset/>
<feGaussianBlur stdDeviation="1"/>
<feComposite in2="hardAlpha" operator="out"/>
<feColorMatrix type="matrix" values="0 0 0 0 0.45 0 0 0 0 0.45 0 0 0 0 0.45 0 0 0 0.25 0"/>
<feBlend mode="normal" in2="effect1_backgroundBlur_222_47" result="effect2_dropShadow_222_47"/>
<feBlend mode="normal" in="SourceGraphic" in2="effect2_dropShadow_222_47" result="shape"/>
</filter>
<filter id="filter2_bd_222_47" x="47.2371" y="8.17667" width="21.678" height="21.7852" filterUnits="userSpaceOnUse" color-interpolation-filters="sRGB">
<feFlood flood-opacity="0" result="BackgroundImageFix"/>
<feGaussianBlur in="BackgroundImageFix" stdDeviation="4.5"/>
<feComposite in2="SourceAlpha" operator="in" result="effect1_backgroundBlur_222_47"/>
<feColorMatrix in="SourceAlpha" type="matrix" values="0 0 0 0 0 0 0 0 0 0 0 0 0 0 0 0 0 0 127 0" result="hardAlpha"/>
<feOffset/>
<feGaussianBlur stdDeviation="1"/>
<feComposite in2="hardAlpha" operator="out"/>
<feColorMatrix type="matrix" values="0 0 0 0 0.45 0 0 0 0 0.45 0 0 0 0 0.45 0 0 0 0.25 0"/>
<feBlend mode="normal" in2="effect1_backgroundBlur_222_47" result="effect2_dropShadow_222_47"/>
<feBlend mode="normal" in="SourceGraphic" in2="effect2_dropShadow_222_47" result="shape"/>
</filter>
<filter id="filter3_bd_222_47" x="29.5231" y="-0.680344" width="21.678" height="21.7852" filterUnits="userSpaceOnUse" color-interpolation-filters="sRGB">
<feFlood flood-opacity="0" result="BackgroundImageFix"/>
<feGaussianBlur in="BackgroundImageFix" stdDeviation="4.5"/>
<feComposite in2="SourceAlpha" operator="in" result="effect1_backgroundBlur_222_47"/>
<feColorMatrix in="SourceAlpha" type="matrix" values="0 0 0 0 0 0 0 0 0 0 0 0 0 0 0 0 0 0 127 0" result="hardAlpha"/>
<feOffset/>
<feGaussianBlur stdDeviation="1"/>
<feComposite in2="hardAlpha" operator="out"/>
<feColorMatrix type="matrix" values="0 0 0 0 0.45 0 0 0 0 0.45 0 0 0 0 0.45 0 0 0 0.25 0"/>
<feBlend mode="normal" in2="effect1_backgroundBlur_222_47" result="effect2_dropShadow_222_47"/>
<feBlend mode="normal" in="SourceGraphic" in2="effect2_dropShadow_222_47" result="shape"/>
</filter>
<filter id="filter4_bd_222_47" x="25.6311" y="-3.84016" width="19.839" height="19.8926" filterUnits="userSpaceOnUse" color-interpolation-filters="sRGB">
<feFlood flood-opacity="0" result="BackgroundImageFix"/>
<feGaussianBlur in="BackgroundImageFix" stdDeviation="4.5"/>
<feComposite in2="SourceAlpha" operator="in" result="effect1_backgroundBlur_222_47"/>
<feColorMatrix in="SourceAlpha" type="matrix" values="0 0 0 0 0 0 0 0 0 0 0 0 0 0 0 0 0 0 127 0" result="hardAlpha"/>
<feOffset/>
<feGaussianBlur stdDeviation="1"/>
<feComposite in2="hardAlpha" operator="out"/>
<feColorMatrix type="matrix" values="0 0 0 0 0.45 0 0 0 0 0.45 0 0 0 0 0.45 0 0 0 0.25 0"/>
<feBlend mode="normal" in2="effect1_backgroundBlur_222_47" result="effect2_dropShadow_222_47"/>
<feBlend mode="normal" in="SourceGraphic" in2="effect2_dropShadow_222_47" result="shape"/>
</filter>
<filter id="filter5_bd_222_47" x="29.3394" y="-6.95772" width="20.2987" height="20.3657" filterUnits="userSpaceOnUse" color-interpolation-filters="sRGB">
<feFlood flood-opacity="0" result="BackgroundImageFix"/>
<feGaussianBlur in="BackgroundImageFix" stdDeviation="4.5"/>
<feComposite in2="SourceAlpha" operator="in" result="effect1_backgroundBlur_222_47"/>
<feColorMatrix in="SourceAlpha" type="matrix" values="0 0 0 0 0 0 0 0 0 0 0 0 0 0 0 0 0 0 127 0" result="hardAlpha"/>
<feOffset/>
<feGaussianBlur stdDeviation="1"/>
<feComposite in2="hardAlpha" operator="out"/>
<feColorMatrix type="matrix" values="0 0 0 0 0.45 0 0 0 0 0.45 0 0 0 0 0.45 0 0 0 0.25 0"/>
<feBlend mode="normal" in2="effect1_backgroundBlur_222_47" result="effect2_dropShadow_222_47"/>
<feBlend mode="normal" in="SourceGraphic" in2="effect2_dropShadow_222_47" result="shape"/>
</filter>
<filter id="filter6_bd_222_47" x="50.9753" y="1.83557" width="20.4056" height="20.3143" filterUnits="userSpaceOnUse" color-interpolation-filters="sRGB">
<feFlood flood-opacity="0" result="BackgroundImageFix"/>
<feGaussianBlur in="BackgroundImageFix" stdDeviation="4.5"/>
<feComposite in2="SourceAlpha" operator="in" result="effect1_backgroundBlur_222_47"/>
<feColorMatrix in="SourceAlpha" type="matrix" values="0 0 0 0 0 0 0 0 0 0 0 0 0 0 0 0 0 0 127 0" result="hardAlpha"/>
<feOffset/>
<feGaussianBlur stdDeviation="1"/>
<feComposite in2="hardAlpha" operator="out"/>
<feColorMatrix type="matrix" values="0 0 0 0 0.45 0 0 0 0 0.45 0 0 0 0 0.45 0 0 0 0.25 0"/>
<feBlend mode="normal" in2="effect1_backgroundBlur_222_47" result="effect2_dropShadow_222_47"/>
<feBlend mode="normal" in="SourceGraphic" in2="effect2_dropShadow_222_47" result="shape"/>
</filter>
<filter id="filter7_bd_222_47" x="54.2733" y="-2.83742" width="21.3304" height="21.2567" filterUnits="userSpaceOnUse" color-interpolation-filters="sRGB">
<feFlood flood-opacity="0" result="BackgroundImageFix"/>
<feGaussianBlur in="BackgroundImageFix" stdDeviation="4.5"/>
<feComposite in2="SourceAlpha" operator="in" result="effect1_backgroundBlur_222_47"/>
<feColorMatrix in="SourceAlpha" type="matrix" values="0 0 0 0 0 0 0 0 0 0 0 0 0 0 0 0 0 0 127 0" result="hardAlpha"/>
<feOffset/>
<feGaussianBlur stdDeviation="1"/>
<feComposite in2="hardAlpha" operator="out"/>
<feColorMatrix type="matrix" values="0 0 0 0 0.45 0 0 0 0 0.45 0 0 0 0 0.45 0 0 0 0.25 0"/>
<feBlend mode="normal" in2="effect1_backgroundBlur_222_47" result="effect2_dropShadow_222_47"/>
<feBlend mode="normal" in="SourceGraphic" in2="effect2_dropShadow_222_47" result="shape"/>
</filter>
<filter id="filter8_bd_222_47" x="47.3639" y="-4.66856" width="19.9268" height="19.8546" filterUnits="userSpaceOnUse" color-interpolation-filters="sRGB">
<feFlood flood-opacity="0" result="BackgroundImageFix"/>
<feGaussianBlur in="BackgroundImageFix" stdDeviation="4.5"/>
<feComposite in2="SourceAlpha" operator="in" result="effect1_backgroundBlur_222_47"/>
<feColorMatrix in="SourceAlpha" type="matrix" values="0 0 0 0 0 0 0 0 0 0 0 0 0 0 0 0 0 0 127 0" result="hardAlpha"/>
<feOffset/>
<feGaussianBlur stdDeviation="1"/>
<feComposite in2="hardAlpha" operator="out"/>
<feColorMatrix type="matrix" values="0 0 0 0 0.45 0 0 0 0 0.45 0 0 0 0 0.45 0 0 0 0.25 0"/>
<feBlend mode="normal" in2="effect1_backgroundBlur_222_47" result="effect2_dropShadow_222_47"/>
<feBlend mode="normal" in="SourceGraphic" in2="effect2_dropShadow_222_47" result="shape"/>
</filter>
<linearGradient id="paint0_linear_222_47" x1="24.0963" y1="11.899" x2="24.0963" y2="84.8391" gradientUnits="userSpaceOnUse">
<stop stop-color="white" stop-opacity="0.61"/>
<stop offset="0.432292" stop-color="white"/>
<stop offset="1" stop-color="white" stop-opacity="0.42"/>
</linearGradient>
<linearGradient id="paint1_linear_222_47" x1="53.9656" y1="21.277" x2="53.9656" y2="96" gradientUnits="userSpaceOnUse">
<stop stop-color="white" stop-opacity="0.33"/>
<stop offset="0.476357" stop-color="white"/>
<stop offset="1" stop-color="white" stop-opacity="0.47"/>
</linearGradient>
<linearGradient id="paint2_linear_222_47" x1="57.831" y1="17.109" x2="57.831" y2="21.277" gradientUnits="userSpaceOnUse">
<stop stop-color="white" stop-opacity="0.61"/>
<stop offset="0.432292" stop-color="white"/>
<stop offset="1" stop-color="white" stop-opacity="0.775455"/>
</linearGradient>
<linearGradient id="paint3_linear_222_47" x1="40.117" y1="8.25201" x2="40.117" y2="12.42" gradientUnits="userSpaceOnUse">
<stop stop-color="white" stop-opacity="0.61"/>
<stop offset="0.432292" stop-color="white"/>
<stop offset="1" stop-color="white" stop-opacity="0.775455"/>
</linearGradient>
<linearGradient id="paint4_linear_222_47" x1="35.4281" y1="5.12601" x2="35.4281" y2="7.21001" gradientUnits="userSpaceOnUse">
<stop stop-color="white" stop-opacity="0.61"/>
<stop offset="0.432292" stop-color="white"/>
<stop offset="1" stop-color="white" stop-opacity="0.775455"/>
</linearGradient>
<linearGradient id="paint5_linear_222_47" x1="39.3356" y1="2" x2="39.3356" y2="4.605" gradientUnits="userSpaceOnUse">
<stop stop-color="white" stop-opacity="0.61"/>
<stop offset="0.432292" stop-color="white"/>
<stop offset="1" stop-color="white" stop-opacity="0.775455"/>
</linearGradient>
<linearGradient id="paint6_linear_222_47" x1="60.0012" y1="11.6939" x2="62.4341" y2="12.6251" gradientUnits="userSpaceOnUse">
<stop stop-color="white" stop-opacity="0.61"/>
<stop offset="0.432292" stop-color="white"/>
<stop offset="1" stop-color="white" stop-opacity="0.775455"/>
</linearGradient>
<linearGradient id="paint7_linear_222_47" x1="63.7322" y1="6.56219" x2="65.997" y2="9.42077" gradientUnits="userSpaceOnUse">
<stop stop-color="white" stop-opacity="0.61"/>
<stop offset="0.432292" stop-color="white"/>
<stop offset="1" stop-color="white" stop-opacity="0.775455"/>
</linearGradient>
<linearGradient id="paint8_linear_222_47" x1="58.2297" y1="5.61604" x2="56.3905" y2="4.63593" gradientUnits="userSpaceOnUse">
<stop stop-color="white" stop-opacity="0.61"/>
<stop offset="0.432292" stop-color="white"/>
<stop offset="1" stop-color="white" stop-opacity="0.775455"/>
</linearGradient>
</defs>
</svg>
