<svg width="100" height="100" viewBox="0 0 100 100" fill="none" xmlns="http://www.w3.org/2000/svg">
<g filter="url(#filter0_bd_395_817)">
<path d="M43.9911 45.6761C44.7347 44.4234 44.6537 42.8468 43.7857 41.6769L40.1334 36.7541C39.9104 36.4535 39.5069 36.3508 39.1673 36.5082L36.1898 37.8877C35.4098 38.2491 34.487 38.0826 33.8824 37.4715C33.179 36.7604 33.095 35.6441 33.6842 34.8358L35.4975 32.3481L39.3342 28.1926C40.5292 26.8983 42.0853 25.9924 43.8009 25.5921V23.8501C43.8009 23.5189 43.6944 23.1965 43.497 22.9306C43.2998 22.6647 43.0223 22.4693 42.7055 22.3733L42.4744 22.3032C41.6704 22.0593 41.0662 21.3922 40.9032 20.568L40.6047 19.0592C40.443 18.2419 40.4985 17.3863 40.7594 16.595C41.025 15.7896 41.4977 15.0558 42.125 14.4851L42.2362 14.384C42.8632 13.8136 43.6387 13.4167 44.4671 13.2372C45.4734 13.0193 46.5344 13.1314 47.47 13.5613L47.5336 13.5905C48.0115 13.8101 48.4459 14.1142 48.8158 14.4881C49.6251 15.3063 50.0791 16.4107 50.0791 17.5615V19.3709C50.0791 20.0831 49.8263 20.772 49.3658 21.3152C49.0366 21.7034 48.6143 22.0017 48.1384 22.1821L47.5874 22.391C47.3609 22.4768 47.1556 22.6103 46.9854 22.7824C46.6355 23.1361 46.4594 23.626 46.5039 24.1214L46.6362 25.5921C48.0749 25.5921 49.4674 26.1005 50.5677 27.0274L54.4667 30.3119C54.7758 30.5723 55.1516 30.7409 55.5517 30.7987L56.8517 30.9865C58.0945 31.1659 58.8986 32.3943 58.5659 33.6051C58.334 34.4489 57.6005 35.0584 56.7286 35.1319L54.0118 35.3607C53.5956 35.3958 53.2452 35.6861 53.1332 36.0884L51.8603 40.6635C51.6224 41.5186 51.6215 42.4223 51.8577 43.2779L52.8886 47.0121C53.5747 49.4977 53.7875 52.09 53.5157 54.6542L53.2663 57.0071C52.9086 60.3824 51.3527 63.5176 48.8811 65.8439C47.5326 67.1131 45.9486 68.106 44.2186 68.7667L41.5585 69.7826C39.0089 70.7563 36.5585 71.9723 34.2411 73.4139L29.8269 76.1599L27.672 81.6711L25.9436 82.988C24.5405 84.057 22.5411 82.9183 22.7449 81.1661L23.504 74.6376L16.0631 72.0023C14.3168 71.3838 14.2774 68.9284 16.0029 68.2542L17.252 67.7661L26.3695 69.1671L31.275 67.4925C32.7319 66.9952 34.1079 66.2864 35.3588 65.3891C38.1156 63.4113 39.7504 60.2263 39.7504 56.8335V56.1017C39.7504 53.9542 40.3289 51.8464 41.4249 49.9997L43.9911 45.6761Z" fill="url(#paint0_linear_395_817)" fill-opacity="0.66" shape-rendering="crispEdges"/>
</g>
<g filter="url(#filter1_bd_395_817)">
<path d="M63.7165 71.877L63.6085 72.1132C62.0815 75.4564 59.1128 77.9205 55.5455 78.8056L46.949 78.927L45.6999 79.4151C43.9744 80.0893 44.0138 82.5447 45.7601 83.1632L53.201 85.7985L52.6451 90.5792C52.418 92.5324 54.8503 93.6064 56.1408 92.1228L56.848 91.3097L59.0029 85.7985L59.4512 85.5277C63.4407 83.1187 67.2367 80.4028 70.8047 77.4046L71.5037 76.7468C74.9271 73.5247 77.7651 69.7326 79.8909 65.5395C81.283 62.7938 81.0787 59.5095 79.357 56.9575L78.9068 56.2901C77.5712 54.3104 77.6296 51.7035 79.0525 49.7855L81.5454 46.4255C81.8952 45.9541 82.5279 45.793 83.0605 46.0397L85.7067 47.2658C86.4866 47.6272 87.4095 47.4607 88.014 46.8496C88.7174 46.1385 88.8014 45.0222 88.2122 44.2139L86.3989 41.7262L82.5623 37.5707C81.3672 36.2763 79.8112 35.3704 78.0955 34.9702V33.2281C78.0955 32.897 78.2021 32.5746 78.3994 32.3086C78.5966 32.0428 78.8741 31.8474 79.1909 31.7513L79.4221 31.6812C80.2261 31.4374 80.8302 30.7702 80.9932 29.946L81.2918 28.4372C81.4534 27.62 81.3979 26.7643 81.137 25.9731C80.8714 25.1677 80.3987 24.4339 79.7714 23.8631L79.6602 23.762C79.0333 23.1916 78.2577 22.7947 77.4293 22.6153C76.423 22.3973 75.362 22.5095 74.4264 22.9394L74.3628 22.9686C73.8849 23.1882 73.4505 23.4922 73.0806 23.8662C72.2713 24.6843 71.8173 25.7887 71.8173 26.9396V28.749C71.8173 29.4611 72.0701 30.1501 72.5307 30.6933C72.8598 31.0814 73.2821 31.3797 73.758 31.5601L74.3091 31.769C74.5355 31.8548 74.7408 31.9883 74.9111 32.1605C75.2609 32.5141 75.437 33.004 75.3925 33.4995L75.2602 34.9702C73.8215 34.9702 72.429 35.4785 71.3287 36.4054L67.4661 39.6594C67.1332 39.9398 66.7285 40.1213 66.2978 40.1836L65.0447 40.3645C63.8019 40.544 62.9978 41.7724 63.3305 42.9832C63.5624 43.8269 64.2959 44.4365 65.1678 44.5099L67.8314 44.7343C68.2796 44.7721 68.657 45.0847 68.7776 45.518L69.9747 49.821C70.2507 50.8131 70.2012 51.8675 69.8335 52.8293L68.773 55.6032C68.2418 56.9927 67.9694 58.4678 67.9694 59.9554C67.9694 63.086 67.1235 66.1584 65.5212 68.8478L63.7165 71.877Z" fill="url(#paint1_linear_395_817)" fill-opacity="0.66" shape-rendering="crispEdges"/>
</g>
<g filter="url(#filter2_bd_395_817)">
<path d="M67.3065 19.6249L67.4185 19.2268C67.5334 18.8184 67.8225 18.4813 68.2088 18.3057C68.4899 18.178 68.8046 18.1439 69.1065 18.2086L69.5008 18.2931C69.8068 18.3587 70.0902 18.5034 70.3228 18.7127C70.6998 19.052 70.9151 19.5354 70.9151 20.0426V20.1227C70.9151 21.2534 69.9042 22.1162 68.7876 21.9385C67.7012 21.7657 67.0087 20.6839 67.3065 19.6249Z" fill="url(#paint2_linear_395_817)" fill-opacity="0.66" shape-rendering="crispEdges"/>
</g>
<g filter="url(#filter3_bd_395_817)">
<path d="M49.5925 10.7679L49.7044 10.3698C49.8193 9.96136 50.1085 9.62433 50.4948 9.44874C50.7759 9.32098 51.0906 9.28694 51.3925 9.35163L51.7868 9.43612C52.0928 9.50169 52.3762 9.64636 52.6088 9.8557C52.9858 10.195 53.2011 10.6784 53.2011 11.1856V11.2658C53.2011 12.3964 52.1902 13.2592 51.0736 13.0816C49.9872 12.9087 49.2946 11.8269 49.5925 10.7679Z" fill="url(#paint3_linear_395_817)" fill-opacity="0.66" shape-rendering="crispEdges"/>
</g>
<g filter="url(#filter4_bd_395_817)">
<path d="M45.6658 6.88394L45.7217 6.68489C45.7792 6.48065 45.9238 6.31214 46.1169 6.22434C46.2575 6.16046 46.4148 6.14344 46.5658 6.17578L46.7629 6.21803C46.9159 6.25082 47.0576 6.32315 47.1739 6.42782C47.3624 6.59747 47.4701 6.83915 47.4701 7.09275V7.13284C47.4701 7.69818 46.9646 8.12957 46.4063 8.04075C45.8631 7.95433 45.5168 7.41344 45.6658 6.88394Z" fill="url(#paint4_linear_395_817)" fill-opacity="0.66" shape-rendering="crispEdges"/>
</g>
<g filter="url(#filter5_bd_395_817)">
<path d="M49.3827 3.94746L49.4527 3.69864C49.5245 3.44334 49.7052 3.2327 49.9467 3.12295C50.1223 3.0431 50.319 3.02183 50.5077 3.06226L50.7541 3.11507C50.9454 3.15605 51.1225 3.24647 51.2679 3.3773C51.5035 3.58936 51.6381 3.89147 51.6381 4.20847V4.25859C51.6381 4.96526 51.0063 5.50449 50.3084 5.39346C49.6294 5.28544 49.1965 4.60933 49.3827 3.94746Z" fill="url(#paint5_linear_395_817)" fill-opacity="0.66" shape-rendering="crispEdges"/>
</g>
<g filter="url(#filter6_bd_395_817)">
<path d="M71.5454 13.9225L71.338 13.7682C71.1253 13.6099 70.9931 13.3658 70.977 13.1011C70.9652 12.9085 71.0156 12.7172 71.1208 12.5554L71.2583 12.3441C71.3649 12.1802 71.5127 12.0471 71.6868 11.9581C71.9691 11.8138 72.2993 11.7962 72.5954 11.9095L72.6422 11.9274C73.3022 12.18 73.5799 12.9628 73.2267 13.5749C72.8831 14.1704 72.097 14.333 71.5454 13.9225Z" fill="url(#paint6_linear_395_817)" fill-opacity="0.66" shape-rendering="crispEdges"/>
</g>
<g filter="url(#filter7_bd_395_817)">
<path d="M74.5103 9.4303L74.3708 9.09643C74.2276 8.75385 74.2428 8.36556 74.4123 8.03523C74.5357 7.79488 74.733 7.60054 74.9752 7.48087L75.2916 7.32455C75.5371 7.20326 75.81 7.14848 76.0833 7.16566C76.5262 7.19352 76.9365 7.40806 77.2121 7.75591L77.2557 7.81091C77.8701 8.58637 77.6456 9.72737 76.7832 10.2123C75.9442 10.6841 74.8814 10.3184 74.5103 9.4303Z" fill="url(#paint7_linear_395_817)" fill-opacity="0.66" shape-rendering="crispEdges"/>
</g>
<g filter="url(#filter8_bd_395_817)">
<path d="M68.9193 5.5868L69.0686 5.72982C69.2219 5.87657 69.3026 6.08343 69.2892 6.29518C69.2795 6.44925 69.2205 6.59611 69.121 6.71411L68.991 6.86824C68.8901 6.98783 68.7596 7.07888 68.6126 7.13228C68.3742 7.21885 68.1103 7.20018 67.8865 7.08091L67.8511 7.06205C67.3522 6.79617 67.2092 6.14724 67.5501 5.69629C67.8819 5.25755 68.5221 5.20636 68.9193 5.5868Z" fill="url(#paint8_linear_395_817)" fill-opacity="0.66" shape-rendering="crispEdges"/>
</g>
<defs>
<filter id="filter0_bd_395_817" x="5.7308" y="4.12885" width="61.9105" height="88.2736" filterUnits="userSpaceOnUse" color-interpolation-filters="sRGB">
<feFlood flood-opacity="0" result="BackgroundImageFix"/>
<feGaussianBlur in="BackgroundImageFix" stdDeviation="4.5"/>
<feComposite in2="SourceAlpha" operator="in" result="effect1_backgroundBlur_395_817"/>
<feColorMatrix in="SourceAlpha" type="matrix" values="0 0 0 0 0 0 0 0 0 0 0 0 0 0 0 0 0 0 127 0" result="hardAlpha"/>
<feOffset/>
<feGaussianBlur stdDeviation="1"/>
<feComposite in2="hardAlpha" operator="out"/>
<feColorMatrix type="matrix" values="0 0 0 0 0.45 0 0 0 0 0.45 0 0 0 0 0.45 0 0 0 0.25 0"/>
<feBlend mode="normal" in2="effect1_backgroundBlur_395_817" result="effect2_dropShadow_395_817"/>
<feBlend mode="normal" in="SourceGraphic" in2="effect2_dropShadow_395_817" result="shape"/>
</filter>
<filter id="filter1_bd_395_817" x="35.4278" y="13.5069" width="62.1758" height="88.3096" filterUnits="userSpaceOnUse" color-interpolation-filters="sRGB">
<feFlood flood-opacity="0" result="BackgroundImageFix"/>
<feGaussianBlur in="BackgroundImageFix" stdDeviation="4.5"/>
<feComposite in2="SourceAlpha" operator="in" result="effect1_backgroundBlur_395_817"/>
<feColorMatrix in="SourceAlpha" type="matrix" values="0 0 0 0 0 0 0 0 0 0 0 0 0 0 0 0 0 0 127 0" result="hardAlpha"/>
<feOffset/>
<feGaussianBlur stdDeviation="1"/>
<feComposite in2="hardAlpha" operator="out"/>
<feColorMatrix type="matrix" values="0 0 0 0 0.45 0 0 0 0 0.45 0 0 0 0 0.45 0 0 0 0.25 0"/>
<feBlend mode="normal" in2="effect1_backgroundBlur_395_817" result="effect2_dropShadow_395_817"/>
<feBlend mode="normal" in="SourceGraphic" in2="effect2_dropShadow_395_817" result="shape"/>
</filter>
<filter id="filter2_bd_395_817" x="58.2371" y="9.17664" width="21.678" height="21.7852" filterUnits="userSpaceOnUse" color-interpolation-filters="sRGB">
<feFlood flood-opacity="0" result="BackgroundImageFix"/>
<feGaussianBlur in="BackgroundImageFix" stdDeviation="4.5"/>
<feComposite in2="SourceAlpha" operator="in" result="effect1_backgroundBlur_395_817"/>
<feColorMatrix in="SourceAlpha" type="matrix" values="0 0 0 0 0 0 0 0 0 0 0 0 0 0 0 0 0 0 127 0" result="hardAlpha"/>
<feOffset/>
<feGaussianBlur stdDeviation="1"/>
<feComposite in2="hardAlpha" operator="out"/>
<feColorMatrix type="matrix" values="0 0 0 0 0.45 0 0 0 0 0.45 0 0 0 0 0.45 0 0 0 0.25 0"/>
<feBlend mode="normal" in2="effect1_backgroundBlur_395_817" result="effect2_dropShadow_395_817"/>
<feBlend mode="normal" in="SourceGraphic" in2="effect2_dropShadow_395_817" result="shape"/>
</filter>
<filter id="filter3_bd_395_817" x="40.5231" y="0.319641" width="21.678" height="21.7852" filterUnits="userSpaceOnUse" color-interpolation-filters="sRGB">
<feFlood flood-opacity="0" result="BackgroundImageFix"/>
<feGaussianBlur in="BackgroundImageFix" stdDeviation="4.5"/>
<feComposite in2="SourceAlpha" operator="in" result="effect1_backgroundBlur_395_817"/>
<feColorMatrix in="SourceAlpha" type="matrix" values="0 0 0 0 0 0 0 0 0 0 0 0 0 0 0 0 0 0 127 0" result="hardAlpha"/>
<feOffset/>
<feGaussianBlur stdDeviation="1"/>
<feComposite in2="hardAlpha" operator="out"/>
<feColorMatrix type="matrix" values="0 0 0 0 0.45 0 0 0 0 0.45 0 0 0 0 0.45 0 0 0 0.25 0"/>
<feBlend mode="normal" in2="effect1_backgroundBlur_395_817" result="effect2_dropShadow_395_817"/>
<feBlend mode="normal" in="SourceGraphic" in2="effect2_dropShadow_395_817" result="shape"/>
</filter>
<filter id="filter4_bd_395_817" x="36.6311" y="-2.84021" width="19.839" height="19.8926" filterUnits="userSpaceOnUse" color-interpolation-filters="sRGB">
<feFlood flood-opacity="0" result="BackgroundImageFix"/>
<feGaussianBlur in="BackgroundImageFix" stdDeviation="4.5"/>
<feComposite in2="SourceAlpha" operator="in" result="effect1_backgroundBlur_395_817"/>
<feColorMatrix in="SourceAlpha" type="matrix" values="0 0 0 0 0 0 0 0 0 0 0 0 0 0 0 0 0 0 127 0" result="hardAlpha"/>
<feOffset/>
<feGaussianBlur stdDeviation="1"/>
<feComposite in2="hardAlpha" operator="out"/>
<feColorMatrix type="matrix" values="0 0 0 0 0.45 0 0 0 0 0.45 0 0 0 0 0.45 0 0 0 0.25 0"/>
<feBlend mode="normal" in2="effect1_backgroundBlur_395_817" result="effect2_dropShadow_395_817"/>
<feBlend mode="normal" in="SourceGraphic" in2="effect2_dropShadow_395_817" result="shape"/>
</filter>
<filter id="filter5_bd_395_817" x="40.3393" y="-5.9577" width="20.2987" height="20.3657" filterUnits="userSpaceOnUse" color-interpolation-filters="sRGB">
<feFlood flood-opacity="0" result="BackgroundImageFix"/>
<feGaussianBlur in="BackgroundImageFix" stdDeviation="4.5"/>
<feComposite in2="SourceAlpha" operator="in" result="effect1_backgroundBlur_395_817"/>
<feColorMatrix in="SourceAlpha" type="matrix" values="0 0 0 0 0 0 0 0 0 0 0 0 0 0 0 0 0 0 127 0" result="hardAlpha"/>
<feOffset/>
<feGaussianBlur stdDeviation="1"/>
<feComposite in2="hardAlpha" operator="out"/>
<feColorMatrix type="matrix" values="0 0 0 0 0.45 0 0 0 0 0.45 0 0 0 0 0.45 0 0 0 0.25 0"/>
<feBlend mode="normal" in2="effect1_backgroundBlur_395_817" result="effect2_dropShadow_395_817"/>
<feBlend mode="normal" in="SourceGraphic" in2="effect2_dropShadow_395_817" result="shape"/>
</filter>
<filter id="filter6_bd_395_817" x="61.9753" y="2.83557" width="20.4057" height="20.3143" filterUnits="userSpaceOnUse" color-interpolation-filters="sRGB">
<feFlood flood-opacity="0" result="BackgroundImageFix"/>
<feGaussianBlur in="BackgroundImageFix" stdDeviation="4.5"/>
<feComposite in2="SourceAlpha" operator="in" result="effect1_backgroundBlur_395_817"/>
<feColorMatrix in="SourceAlpha" type="matrix" values="0 0 0 0 0 0 0 0 0 0 0 0 0 0 0 0 0 0 127 0" result="hardAlpha"/>
<feOffset/>
<feGaussianBlur stdDeviation="1"/>
<feComposite in2="hardAlpha" operator="out"/>
<feColorMatrix type="matrix" values="0 0 0 0 0.45 0 0 0 0 0.45 0 0 0 0 0.45 0 0 0 0.25 0"/>
<feBlend mode="normal" in2="effect1_backgroundBlur_395_817" result="effect2_dropShadow_395_817"/>
<feBlend mode="normal" in="SourceGraphic" in2="effect2_dropShadow_395_817" result="shape"/>
</filter>
<filter id="filter7_bd_395_817" x="65.2733" y="-1.8374" width="21.3304" height="21.2567" filterUnits="userSpaceOnUse" color-interpolation-filters="sRGB">
<feFlood flood-opacity="0" result="BackgroundImageFix"/>
<feGaussianBlur in="BackgroundImageFix" stdDeviation="4.5"/>
<feComposite in2="SourceAlpha" operator="in" result="effect1_backgroundBlur_395_817"/>
<feColorMatrix in="SourceAlpha" type="matrix" values="0 0 0 0 0 0 0 0 0 0 0 0 0 0 0 0 0 0 127 0" result="hardAlpha"/>
<feOffset/>
<feGaussianBlur stdDeviation="1"/>
<feComposite in2="hardAlpha" operator="out"/>
<feColorMatrix type="matrix" values="0 0 0 0 0.45 0 0 0 0 0.45 0 0 0 0 0.45 0 0 0 0.25 0"/>
<feBlend mode="normal" in2="effect1_backgroundBlur_395_817" result="effect2_dropShadow_395_817"/>
<feBlend mode="normal" in="SourceGraphic" in2="effect2_dropShadow_395_817" result="shape"/>
</filter>
<filter id="filter8_bd_395_817" x="58.364" y="-3.66858" width="19.9267" height="19.8546" filterUnits="userSpaceOnUse" color-interpolation-filters="sRGB">
<feFlood flood-opacity="0" result="BackgroundImageFix"/>
<feGaussianBlur in="BackgroundImageFix" stdDeviation="4.5"/>
<feComposite in2="SourceAlpha" operator="in" result="effect1_backgroundBlur_395_817"/>
<feColorMatrix in="SourceAlpha" type="matrix" values="0 0 0 0 0 0 0 0 0 0 0 0 0 0 0 0 0 0 127 0" result="hardAlpha"/>
<feOffset/>
<feGaussianBlur stdDeviation="1"/>
<feComposite in2="hardAlpha" operator="out"/>
<feColorMatrix type="matrix" values="0 0 0 0 0.45 0 0 0 0 0.45 0 0 0 0 0.45 0 0 0 0.25 0"/>
<feBlend mode="normal" in2="effect1_backgroundBlur_395_817" result="effect2_dropShadow_395_817"/>
<feBlend mode="normal" in="SourceGraphic" in2="effect2_dropShadow_395_817" result="shape"/>
</filter>
<linearGradient id="paint0_linear_395_817" x1="35.0963" y1="12.899" x2="35.0963" y2="85.8391" gradientUnits="userSpaceOnUse">
<stop stop-color="white" stop-opacity="0.61"/>
<stop offset="0.432292" stop-color="white"/>
<stop offset="1" stop-color="white" stop-opacity="0.42"/>
</linearGradient>
<linearGradient id="paint1_linear_395_817" x1="64.9656" y1="22.277" x2="64.9656" y2="97" gradientUnits="userSpaceOnUse">
<stop stop-color="white" stop-opacity="0.33"/>
<stop offset="0.476357" stop-color="white"/>
<stop offset="1" stop-color="white" stop-opacity="0.47"/>
</linearGradient>
<linearGradient id="paint2_linear_395_817" x1="68.8311" y1="18.109" x2="68.8311" y2="22.277" gradientUnits="userSpaceOnUse">
<stop stop-color="white" stop-opacity="0.61"/>
<stop offset="0.432292" stop-color="white"/>
<stop offset="1" stop-color="white" stop-opacity="0.775455"/>
</linearGradient>
<linearGradient id="paint3_linear_395_817" x1="51.1171" y1="9.25201" x2="51.1171" y2="13.42" gradientUnits="userSpaceOnUse">
<stop stop-color="white" stop-opacity="0.61"/>
<stop offset="0.432292" stop-color="white"/>
<stop offset="1" stop-color="white" stop-opacity="0.775455"/>
</linearGradient>
<linearGradient id="paint4_linear_395_817" x1="46.4281" y1="6.12598" x2="46.4281" y2="8.20998" gradientUnits="userSpaceOnUse">
<stop stop-color="white" stop-opacity="0.61"/>
<stop offset="0.432292" stop-color="white"/>
<stop offset="1" stop-color="white" stop-opacity="0.775455"/>
</linearGradient>
<linearGradient id="paint5_linear_395_817" x1="50.3356" y1="3" x2="50.3356" y2="5.605" gradientUnits="userSpaceOnUse">
<stop stop-color="white" stop-opacity="0.61"/>
<stop offset="0.432292" stop-color="white"/>
<stop offset="1" stop-color="white" stop-opacity="0.775455"/>
</linearGradient>
<linearGradient id="paint6_linear_395_817" x1="71.0012" y1="12.6939" x2="73.434" y2="13.6251" gradientUnits="userSpaceOnUse">
<stop stop-color="white" stop-opacity="0.61"/>
<stop offset="0.432292" stop-color="white"/>
<stop offset="1" stop-color="white" stop-opacity="0.775455"/>
</linearGradient>
<linearGradient id="paint7_linear_395_817" x1="74.7322" y1="7.56219" x2="76.997" y2="10.4208" gradientUnits="userSpaceOnUse">
<stop stop-color="white" stop-opacity="0.61"/>
<stop offset="0.432292" stop-color="white"/>
<stop offset="1" stop-color="white" stop-opacity="0.775455"/>
</linearGradient>
<linearGradient id="paint8_linear_395_817" x1="69.2297" y1="6.61601" x2="67.3906" y2="5.6359" gradientUnits="userSpaceOnUse">
<stop stop-color="white" stop-opacity="0.61"/>
<stop offset="0.432292" stop-color="white"/>
<stop offset="1" stop-color="white" stop-opacity="0.775455"/>
</linearGradient>
</defs>
</svg>
