<svg width="580" height="181" viewBox="0 0 580 181" fill="none" xmlns="http://www.w3.org/2000/svg">
<g clip-path="url(#clip0_480_4038)">
<mask id="mask0_480_4038" style="mask-type:alpha" maskUnits="userSpaceOnUse" x="69" y="0" width="443" height="181">
<rect x="69" width="443" height="181" fill="#D9D9D9"/>
</mask>
<g mask="url(#mask0_480_4038)">
<path d="M106.484 19.4882V10.0336H112.153V11.0492H107.629V14.2438H111.729V15.2595H107.629V19.4882H106.484ZM115.259 10.0336V19.4882H114.114V10.0336H115.259ZM125.052 10.0336V19.4882H123.944L118.792 12.0649H118.699V19.4882H117.555V10.0336H118.663L123.833 17.4754H123.925V10.0336H125.052ZM130.26 19.4882H127.343V10.0336H130.39C131.307 10.0336 132.091 10.2229 132.744 10.6014C133.396 10.9769 133.896 11.517 134.244 12.2218C134.592 12.9235 134.766 13.7637 134.766 14.7424C134.766 15.7273 134.591 16.5752 134.24 17.2861C133.889 17.994 133.378 18.5387 132.707 18.9203C132.036 19.2989 131.22 19.4882 130.26 19.4882ZM128.488 18.4725H130.186C130.968 18.4725 131.616 18.3217 132.13 18.0201C132.644 17.7185 133.027 17.2892 133.279 16.7321C133.532 16.1751 133.658 15.5118 133.658 14.7424C133.658 13.9792 133.533 13.3221 133.284 12.7712C133.035 12.2172 132.662 11.7925 132.167 11.497C131.671 11.1985 131.054 11.0492 130.316 11.0492H128.488V18.4725ZM140.343 19.4882V10.0336H143.537C144.276 10.0336 144.882 10.1598 145.356 10.4122C145.83 10.6615 146.181 11.0046 146.409 11.4416C146.636 11.8787 146.75 12.3757 146.75 12.9328C146.75 13.4898 146.636 13.9838 146.409 14.4147C146.181 14.8455 145.832 15.1841 145.361 15.4303C144.89 15.6734 144.288 15.795 143.556 15.795H140.97V14.7609H143.519C144.024 14.7609 144.43 14.687 144.738 14.5393C145.048 14.3916 145.273 14.1823 145.412 13.9115C145.553 13.6375 145.624 13.3113 145.624 12.9328C145.624 12.5542 145.553 12.2234 145.412 11.9402C145.27 11.6571 145.044 11.4386 144.733 11.2847C144.422 11.1277 144.011 11.0492 143.5 11.0492H141.488V19.4882H140.343ZM144.793 15.241L147.12 19.4882H145.79L143.5 15.241H144.793ZM148.658 19.4882V10.0336H154.364V11.0492H149.803V14.2438H154.069V15.2595H149.803V18.4725H154.438V19.4882H148.658ZM156.428 19.4882V10.0336H159.622C160.364 10.0336 160.97 10.1675 161.441 10.4352C161.915 10.6999 162.266 11.0585 162.494 11.5109C162.721 11.9633 162.835 12.468 162.835 13.0251C162.835 13.5821 162.721 14.0884 162.494 14.5439C162.269 14.9994 161.921 15.3626 161.45 15.6334C160.979 15.9012 160.376 16.035 159.641 16.035H157.351V15.0194H159.604C160.112 15.0194 160.519 14.9317 160.827 14.7563C161.135 14.5808 161.358 14.3439 161.496 14.0453C161.638 13.7437 161.709 13.4036 161.709 13.0251C161.709 12.6465 161.638 12.308 161.496 12.0095C161.358 11.7109 161.133 11.477 160.822 11.3078C160.512 11.1354 160.099 11.0492 159.585 11.0492H157.572V19.4882H156.428ZM172.657 14.7609C172.657 15.758 172.477 16.6198 172.117 17.3461C171.757 18.0724 171.263 18.6326 170.635 19.0265C170.007 19.4205 169.29 19.6174 168.484 19.6174C167.677 19.6174 166.96 19.4205 166.332 19.0265C165.704 18.6326 165.21 18.0724 164.85 17.3461C164.49 16.6198 164.31 15.758 164.31 14.7609C164.31 13.7637 164.49 12.902 164.85 12.1757C165.21 11.4493 165.704 10.8892 166.332 10.4953C166.96 10.1013 167.677 9.90435 168.484 9.90435C169.29 9.90435 170.007 10.1013 170.635 10.4953C171.263 10.8892 171.757 11.4493 172.117 12.1757C172.477 12.902 172.657 13.7637 172.657 14.7609ZM171.549 14.7609C171.549 13.9422 171.412 13.2513 171.138 12.6881C170.867 12.1249 170.499 11.6986 170.035 11.4093C169.573 11.12 169.056 10.9754 168.484 10.9754C167.911 10.9754 167.393 11.12 166.928 11.4093C166.466 11.6986 166.098 12.1249 165.824 12.6881C165.554 13.2513 165.418 13.9422 165.418 14.7609C165.418 15.5795 165.554 16.2705 165.824 16.8337C166.098 17.3969 166.466 17.8231 166.928 18.1124C167.393 18.4017 167.911 18.5464 168.484 18.5464C169.056 18.5464 169.573 18.4017 170.035 18.1124C170.499 17.8231 170.867 17.3969 171.138 16.8337C171.412 16.2705 171.549 15.5795 171.549 14.7609ZM179.752 12.3972C179.697 11.9294 179.472 11.5663 179.078 11.3078C178.684 11.0492 178.201 10.92 177.629 10.92C177.21 10.92 176.844 10.9877 176.53 11.1231C176.219 11.2585 175.976 11.4447 175.801 11.6817C175.628 11.9187 175.542 12.188 175.542 12.4896C175.542 12.7419 175.602 12.9589 175.722 13.1405C175.845 13.319 176.002 13.4683 176.193 13.5883C176.384 13.7053 176.584 13.8022 176.793 13.8791C177.002 13.953 177.195 14.013 177.37 14.0592L178.33 14.3177C178.577 14.3823 178.851 14.4716 179.152 14.5855C179.457 14.6993 179.748 14.8548 180.025 15.0517C180.305 15.2456 180.536 15.4949 180.717 15.7996C180.899 16.1043 180.99 16.4782 180.99 16.9214C180.99 17.4323 180.856 17.8939 180.588 18.3063C180.323 18.7187 179.935 19.0465 179.425 19.2897C178.917 19.5328 178.3 19.6544 177.573 19.6544C176.896 19.6544 176.31 19.5451 175.814 19.3266C175.322 19.1081 174.934 18.8034 174.651 18.4125C174.371 18.0217 174.213 17.5677 174.176 17.0507H175.357C175.388 17.4077 175.508 17.7031 175.718 17.937C175.93 18.1678 176.198 18.3402 176.521 18.4541C176.847 18.5649 177.198 18.6203 177.573 18.6203C178.01 18.6203 178.403 18.5495 178.751 18.4079C179.098 18.2633 179.374 18.0632 179.577 17.8078C179.78 17.5492 179.882 17.2476 179.882 16.9029C179.882 16.589 179.794 16.3336 179.618 16.1366C179.443 15.9396 179.212 15.7796 178.926 15.6565C178.64 15.5334 178.33 15.4257 177.998 15.3333L176.835 15.0009C176.096 14.7886 175.511 14.4854 175.08 14.0915C174.65 13.6976 174.434 13.1821 174.434 12.545C174.434 12.0156 174.577 11.554 174.864 11.16C175.153 10.763 175.541 10.4553 176.027 10.2367C176.516 10.0151 177.062 9.90435 177.666 9.90435C178.275 9.90435 178.817 10.0136 179.291 10.2321C179.765 10.4476 180.14 10.743 180.417 11.1185C180.697 11.494 180.845 11.9202 180.86 12.3972H179.752ZM184.017 10.0336V19.4882H182.872V10.0336H184.017ZM185.795 11.0492V10.0336H192.886V11.0492H189.913V19.4882H188.768V11.0492H185.795ZM202.237 14.7609C202.237 15.758 202.057 16.6198 201.697 17.3461C201.337 18.0724 200.843 18.6326 200.215 19.0265C199.587 19.4205 198.87 19.6174 198.064 19.6174C197.257 19.6174 196.54 19.4205 195.912 19.0265C195.284 18.6326 194.791 18.0724 194.43 17.3461C194.07 16.6198 193.89 15.758 193.89 14.7609C193.89 13.7637 194.07 12.902 194.43 12.1757C194.791 11.4493 195.284 10.8892 195.912 10.4953C196.54 10.1013 197.257 9.90435 198.064 9.90435C198.87 9.90435 199.587 10.1013 200.215 10.4953C200.843 10.8892 201.337 11.4493 201.697 12.1757C202.057 12.902 202.237 13.7637 202.237 14.7609ZM201.129 14.7609C201.129 13.9422 200.992 13.2513 200.718 12.6881C200.447 12.1249 200.079 11.6986 199.615 11.4093C199.153 11.12 198.636 10.9754 198.064 10.9754C197.491 10.9754 196.973 11.12 196.508 11.4093C196.046 11.6986 195.678 12.1249 195.405 12.6881C195.134 13.2513 194.998 13.9422 194.998 14.7609C194.998 15.5795 195.134 16.2705 195.405 16.8337C195.678 17.3969 196.046 17.8231 196.508 18.1124C196.973 18.4017 197.491 18.5464 198.064 18.5464C198.636 18.5464 199.153 18.4017 199.615 18.1124C200.079 17.8231 200.447 17.3969 200.718 16.8337C200.992 16.2705 201.129 15.5795 201.129 14.7609ZM204.162 19.4882V10.0336H207.357C208.095 10.0336 208.702 10.1598 209.175 10.4122C209.649 10.6615 210 11.0046 210.228 11.4416C210.456 11.8787 210.57 12.3757 210.57 12.9328C210.57 13.4898 210.456 13.9838 210.228 14.4147C210 14.8455 209.651 15.1841 209.18 15.4303C208.709 15.6734 208.108 15.795 207.375 15.795H204.79V14.7609H207.338C207.843 14.7609 208.249 14.687 208.557 14.5393C208.868 14.3916 209.092 14.1823 209.231 13.9115C209.372 13.6375 209.443 13.3113 209.443 12.9328C209.443 12.5542 209.372 12.2234 209.231 11.9402C209.089 11.6571 208.863 11.4386 208.552 11.2847C208.241 11.1277 207.831 11.0492 207.32 11.0492H205.307V19.4882H204.162ZM208.612 15.241L210.939 19.4882H209.609L207.32 15.241H208.612ZM211.348 10.0336H212.659L215.281 14.447H215.392L218.014 10.0336H219.325L215.909 15.5919V19.4882H214.764V15.5919L211.348 10.0336Z" fill="#A5A5A5"/>
<path d="M137.648 121.034V130.488H136.503V121.034H137.648ZM147.44 121.034V130.488H146.332L141.18 123.065H141.088V130.488H139.943V121.034H141.051L146.222 128.475H146.314V121.034H147.44ZM154.902 123.397C154.846 122.929 154.622 122.566 154.228 122.308C153.834 122.049 153.351 121.92 152.778 121.92C152.36 121.92 151.993 121.988 151.679 122.123C151.369 122.259 151.125 122.445 150.95 122.682C150.778 122.919 150.692 123.188 150.692 123.49C150.692 123.742 150.752 123.959 150.872 124.141C150.995 124.319 151.152 124.468 151.342 124.588C151.533 124.705 151.733 124.802 151.943 124.879C152.152 124.953 152.344 125.013 152.52 125.059L153.48 125.318C153.726 125.382 154 125.472 154.302 125.585C154.606 125.699 154.897 125.855 155.174 126.052C155.454 126.246 155.685 126.495 155.867 126.8C156.048 127.104 156.139 127.478 156.139 127.921C156.139 128.432 156.005 128.894 155.737 129.306C155.473 129.719 155.085 130.047 154.574 130.29C154.066 130.533 153.449 130.654 152.723 130.654C152.046 130.654 151.459 130.545 150.964 130.327C150.471 130.108 150.084 129.803 149.801 129.413C149.52 129.022 149.362 128.568 149.325 128.051H150.507C150.538 128.408 150.658 128.703 150.867 128.937C151.079 129.168 151.347 129.34 151.67 129.454C151.996 129.565 152.347 129.62 152.723 129.62C153.16 129.62 153.552 129.549 153.9 129.408C154.248 129.263 154.523 129.063 154.726 128.808C154.929 128.549 155.031 128.248 155.031 127.903C155.031 127.589 154.943 127.334 154.768 127.137C154.592 126.94 154.362 126.78 154.075 126.656C153.789 126.533 153.48 126.426 153.148 126.333L151.984 126.001C151.246 125.789 150.661 125.485 150.23 125.091C149.799 124.698 149.584 124.182 149.584 123.545C149.584 123.016 149.727 122.554 150.013 122.16C150.302 121.763 150.69 121.455 151.176 121.237C151.666 121.015 152.212 120.904 152.815 120.904C153.424 120.904 153.966 121.014 154.44 121.232C154.914 121.448 155.29 121.743 155.567 122.118C155.847 122.494 155.994 122.92 156.01 123.397H154.902ZM157.504 122.049V121.034H164.595V122.049H161.622V130.488H160.477V122.049H157.504ZM165.645 130.488H164.445L167.917 121.034H169.099L172.57 130.488H171.37L168.545 122.529H168.471L165.645 130.488ZM166.089 126.795H170.927V127.811H166.089V126.795ZM174.043 130.488V121.034H175.188V129.473H179.583V130.488H174.043ZM181.355 130.488V121.034H182.5V129.473H186.895V130.488H181.355ZM192.324 130.488V121.034H195.519C196.257 121.034 196.864 121.16 197.338 121.412C197.812 121.661 198.162 122.005 198.39 122.442C198.618 122.879 198.732 123.376 198.732 123.933C198.732 124.49 198.618 124.984 198.39 125.415C198.162 125.846 197.813 126.184 197.342 126.43C196.871 126.673 196.27 126.795 195.537 126.795H192.952V125.761H195.5C196.005 125.761 196.411 125.687 196.719 125.539C197.03 125.392 197.254 125.182 197.393 124.911C197.535 124.638 197.605 124.311 197.605 123.933C197.605 123.554 197.535 123.223 197.393 122.94C197.251 122.657 197.025 122.439 196.714 122.285C196.404 122.128 195.993 122.049 195.482 122.049H193.469V130.488H192.324ZM196.774 126.241L199.101 130.488H197.772L195.482 126.241H196.774ZM200.64 130.488V121.034H206.345V122.049H201.784V125.244H206.05V126.259H201.784V129.473H206.419V130.488H200.64ZM208.409 130.488V121.034H211.604C212.345 121.034 212.952 121.167 213.423 121.435C213.896 121.7 214.247 122.058 214.475 122.511C214.703 122.963 214.817 123.468 214.817 124.025C214.817 124.582 214.703 125.088 214.475 125.544C214.25 125.999 213.903 126.363 213.432 126.633C212.961 126.901 212.358 127.035 211.622 127.035H209.332V126.019H211.585C212.093 126.019 212.501 125.932 212.809 125.756C213.116 125.581 213.339 125.344 213.478 125.045C213.62 124.744 213.69 124.404 213.69 124.025C213.69 123.647 213.62 123.308 213.478 123.009C213.339 122.711 213.115 122.477 212.804 122.308C212.493 122.135 212.081 122.049 211.567 122.049H209.554V130.488H208.409ZM224.638 125.761C224.638 126.758 224.458 127.62 224.098 128.346C223.738 129.072 223.244 129.633 222.616 130.027C221.988 130.42 221.271 130.617 220.465 130.617C219.659 130.617 218.942 130.42 218.314 130.027C217.686 129.633 217.192 129.072 216.832 128.346C216.472 127.62 216.292 126.758 216.292 125.761C216.292 124.764 216.472 123.902 216.832 123.176C217.192 122.449 217.686 121.889 218.314 121.495C218.942 121.101 219.659 120.904 220.465 120.904C221.271 120.904 221.988 121.101 222.616 121.495C223.244 121.889 223.738 122.449 224.098 123.176C224.458 123.902 224.638 124.764 224.638 125.761ZM223.53 125.761C223.53 124.942 223.393 124.251 223.119 123.688C222.849 123.125 222.481 122.699 222.016 122.409C221.554 122.12 221.037 121.975 220.465 121.975C219.893 121.975 219.374 122.12 218.909 122.409C218.448 122.699 218.08 123.125 217.806 123.688C217.535 124.251 217.4 124.942 217.4 125.761C217.4 126.58 217.535 127.27 217.806 127.834C218.08 128.397 218.448 128.823 218.909 129.112C219.374 129.402 219.893 129.546 220.465 129.546C221.037 129.546 221.554 129.402 222.016 129.112C222.481 128.823 222.849 128.397 223.119 127.834C223.393 127.27 223.53 126.58 223.53 125.761ZM231.734 123.397C231.678 122.929 231.454 122.566 231.06 122.308C230.666 122.049 230.183 121.92 229.61 121.92C229.192 121.92 228.825 121.988 228.511 122.123C228.201 122.259 227.958 122.445 227.782 122.682C227.61 122.919 227.524 123.188 227.524 123.49C227.524 123.742 227.584 123.959 227.704 124.141C227.827 124.319 227.984 124.468 228.174 124.588C228.365 124.705 228.565 124.802 228.775 124.879C228.984 124.953 229.176 125.013 229.352 125.059L230.312 125.318C230.558 125.382 230.832 125.472 231.134 125.585C231.438 125.699 231.729 125.855 232.006 126.052C232.286 126.246 232.517 126.495 232.699 126.8C232.88 127.104 232.971 127.478 232.971 127.921C232.971 128.432 232.837 128.894 232.569 129.306C232.305 129.719 231.917 130.047 231.406 130.29C230.898 130.533 230.281 130.654 229.555 130.654C228.878 130.654 228.291 130.545 227.796 130.327C227.304 130.108 226.916 129.803 226.633 129.413C226.353 129.022 226.194 128.568 226.157 128.051H227.339C227.37 128.408 227.49 128.703 227.699 128.937C227.911 129.168 228.179 129.34 228.502 129.454C228.828 129.565 229.179 129.62 229.555 129.62C229.992 129.62 230.384 129.549 230.732 129.408C231.08 129.263 231.355 129.063 231.558 128.808C231.761 128.549 231.863 128.248 231.863 127.903C231.863 127.589 231.775 127.334 231.6 127.137C231.424 126.94 231.194 126.78 230.907 126.656C230.621 126.533 230.312 126.426 229.98 126.333L228.816 126.001C228.078 125.789 227.493 125.485 227.062 125.091C226.631 124.698 226.416 124.182 226.416 123.545C226.416 123.016 226.559 122.554 226.845 122.16C227.134 121.763 227.522 121.455 228.008 121.237C228.498 121.015 229.044 120.904 229.647 120.904C230.257 120.904 230.798 121.014 231.272 121.232C231.746 121.448 232.122 121.743 232.399 122.118C232.679 122.494 232.826 122.92 232.842 123.397H231.734ZM235.998 121.034V130.488H234.853V121.034H235.998ZM237.777 122.049V121.034H244.868V122.049H241.895V130.488H240.75V122.049H237.777ZM254.218 125.761C254.218 126.758 254.038 127.62 253.678 128.346C253.318 129.072 252.824 129.633 252.196 130.027C251.568 130.42 250.851 130.617 250.045 130.617C249.239 130.617 248.522 130.42 247.894 130.027C247.266 129.633 246.772 129.072 246.412 128.346C246.052 127.62 245.872 126.758 245.872 125.761C245.872 124.764 246.052 123.902 246.412 123.176C246.772 122.449 247.266 121.889 247.894 121.495C248.522 121.101 249.239 120.904 250.045 120.904C250.851 120.904 251.568 121.101 252.196 121.495C252.824 121.889 253.318 122.449 253.678 123.176C254.038 123.902 254.218 124.764 254.218 125.761ZM253.11 125.761C253.11 124.942 252.973 124.251 252.7 123.688C252.429 123.125 252.061 122.699 251.596 122.409C251.135 122.12 250.617 121.975 250.045 121.975C249.473 121.975 248.954 122.12 248.489 122.409C248.028 122.699 247.66 123.125 247.386 123.688C247.115 124.251 246.98 124.942 246.98 125.761C246.98 126.58 247.115 127.27 247.386 127.834C247.66 128.397 248.028 128.823 248.489 129.112C248.954 129.402 249.473 129.546 250.045 129.546C250.617 129.546 251.135 129.402 251.596 129.112C252.061 128.823 252.429 128.397 252.7 127.834C252.973 127.27 253.11 126.58 253.11 125.761ZM256.143 130.488V121.034H259.338C260.077 121.034 260.683 121.16 261.157 121.412C261.631 121.661 261.982 122.005 262.209 122.442C262.437 122.879 262.551 123.376 262.551 123.933C262.551 124.49 262.437 124.984 262.209 125.415C261.982 125.846 261.632 126.184 261.162 126.43C260.691 126.673 260.089 126.795 259.356 126.795H256.771V125.761H259.32C259.824 125.761 260.231 125.687 260.538 125.539C260.849 125.392 261.074 125.182 261.212 124.911C261.354 124.638 261.425 124.311 261.425 123.933C261.425 123.554 261.354 123.223 261.212 122.94C261.071 122.657 260.845 122.439 260.534 122.285C260.223 122.128 259.812 122.049 259.301 122.049H257.288V130.488H256.143ZM260.594 126.241L262.92 130.488H261.591L259.301 126.241H260.594ZM263.329 121.034H264.64L267.262 125.447H267.373L269.995 121.034H271.306L267.89 126.592V130.488H266.745V126.592L263.329 121.034Z" fill="#A5A5A5"/>
<path d="M276.735 45.0336V54.4882H275.59V45.0336H276.735ZM286.527 45.0336V54.4882H285.419L280.267 47.0649H280.175V54.4882H279.03V45.0336H280.138L285.309 52.4754H285.401V45.0336H286.527ZM293.989 47.3972C293.933 46.9294 293.709 46.5663 293.315 46.3078C292.921 46.0492 292.438 45.92 291.865 45.92C291.447 45.92 291.08 45.9877 290.766 46.1231C290.456 46.2585 290.212 46.4447 290.037 46.6817C289.865 46.9187 289.778 47.188 289.778 47.4896C289.778 47.7419 289.838 47.9589 289.958 48.1405C290.082 48.319 290.239 48.4683 290.429 48.5883C290.62 48.7053 290.82 48.8022 291.03 48.8791C291.239 48.953 291.431 49.013 291.607 49.0592L292.567 49.3177C292.813 49.3823 293.087 49.4716 293.389 49.5855C293.693 49.6993 293.984 49.8548 294.261 50.0517C294.541 50.2456 294.772 50.4949 294.954 50.7996C295.135 51.1043 295.226 51.4782 295.226 51.9214C295.226 52.4323 295.092 52.8939 294.824 53.3063C294.56 53.7187 294.172 54.0465 293.661 54.2897C293.153 54.5328 292.536 54.6544 291.81 54.6544C291.133 54.6544 290.546 54.5451 290.051 54.3266C289.558 54.1081 289.171 53.8034 288.887 53.4125C288.607 53.0217 288.449 52.5677 288.412 52.0507H289.594C289.625 52.4077 289.745 52.7031 289.954 52.937C290.166 53.1678 290.434 53.3402 290.757 53.4541C291.083 53.5649 291.434 53.6203 291.81 53.6203C292.247 53.6203 292.639 53.5495 292.987 53.4079C293.335 53.2633 293.61 53.0632 293.813 52.8078C294.016 52.5492 294.118 52.2476 294.118 51.9029C294.118 51.589 294.03 51.3336 293.855 51.1366C293.679 50.9396 293.449 50.7796 293.162 50.6565C292.876 50.5334 292.567 50.4257 292.234 50.3333L291.071 50.0009C290.332 49.7886 289.748 49.4854 289.317 49.0915C288.886 48.6976 288.67 48.1821 288.67 47.545C288.67 47.0156 288.814 46.554 289.1 46.16C289.389 45.763 289.777 45.4553 290.263 45.2367C290.753 45.0151 291.299 44.9044 291.902 44.9044C292.511 44.9044 293.053 45.0136 293.527 45.2321C294.001 45.4476 294.376 45.743 294.653 46.1185C294.934 46.494 295.081 46.9202 295.097 47.3972H293.989ZM296.591 46.0492V45.0336H303.682V46.0492H300.709V54.4882H299.564V46.0492H296.591ZM304.732 54.4882H303.532L307.004 45.0336H308.186L311.657 54.4882H310.457L307.632 46.5294H307.558L304.732 54.4882ZM305.176 50.795H310.014V51.8106H305.176V50.795ZM313.13 54.4882V45.0336H314.275V53.4725H318.67V54.4882H313.13ZM320.442 54.4882V45.0336H321.587V53.4725H325.982V54.4882H320.442ZM331.799 54.4882H330.598L334.07 45.0336H335.252L338.723 54.4882H337.523L334.698 46.5294H334.624L331.799 54.4882ZM332.242 50.795H337.08V51.8106H332.242V50.795ZM340.196 54.4882V45.0336H343.391C344.132 45.0336 344.739 45.1675 345.21 45.4352C345.684 45.6999 346.034 46.0585 346.262 46.5109C346.49 46.9633 346.604 47.468 346.604 48.0251C346.604 48.5821 346.49 49.0884 346.262 49.5439C346.038 49.9994 345.69 50.3626 345.219 50.6334C344.748 50.9012 344.145 51.035 343.409 51.035H341.119V50.0194H343.372C343.88 50.0194 344.288 49.9317 344.596 49.7563C344.903 49.5808 345.127 49.3439 345.265 49.0453C345.407 48.7437 345.477 48.4036 345.477 48.0251C345.477 47.6465 345.407 47.308 345.265 47.0095C345.127 46.7109 344.902 46.477 344.591 46.3078C344.28 46.1354 343.868 46.0492 343.354 46.0492H341.341V54.4882H340.196ZM348.448 54.4882V45.0336H351.643C352.384 45.0336 352.991 45.1675 353.462 45.4352C353.936 45.6999 354.286 46.0585 354.514 46.5109C354.742 46.9633 354.856 47.468 354.856 48.0251C354.856 48.5821 354.742 49.0884 354.514 49.5439C354.289 49.9994 353.942 50.3626 353.471 50.6334C353 50.9012 352.397 51.035 351.661 51.035H349.371V50.0194H351.624C352.132 50.0194 352.54 49.9317 352.848 49.7563C353.155 49.5808 353.379 49.3439 353.517 49.0453C353.659 48.7437 353.729 48.4036 353.729 48.0251C353.729 47.6465 353.659 47.308 353.517 47.0095C353.379 46.7109 353.154 46.477 352.843 46.3078C352.532 46.1354 352.12 46.0492 351.606 46.0492H349.593V54.4882H348.448Z" fill="#A5A5A5"/>
<path d="M203.854 138.635C203.658 138.44 203.342 138.44 203.146 138.635L199.964 141.817C199.769 142.012 199.769 142.329 199.964 142.524C200.16 142.719 200.476 142.719 200.672 142.524L203.5 139.696L206.328 142.524C206.524 142.719 206.84 142.719 207.035 142.524C207.231 142.329 207.231 142.012 207.035 141.817L203.854 138.635ZM182.189 172.628L182.381 173.089L182.189 172.628ZM193.338 165.151L192.984 164.797L193.338 165.151ZM195.722 162.767L196.075 163.12L195.722 162.767ZM140.767 65.2708L140.422 64.9089L140.767 65.2708ZM113.131 80.0131L113.022 79.525L113.131 80.0131ZM146.885 59.4395L147.23 59.8014L146.885 59.4395ZM71.167 115.763L70.6874 115.621L71.167 115.763ZM144.901 180.508L144.931 180.009L144.901 180.508ZM175.88 175.266L176.073 175.727L175.88 175.266ZM71.6914 113.983L71.2117 113.842L71.6914 113.983ZM106.465 81.4943L106.357 81.0062L106.465 81.4943ZM127.728 179.463L127.758 178.964L127.728 179.463ZM85.607 161.586L85.2692 161.955L85.607 161.586ZM203 138.989L203 140.238L204 140.238L204 138.989L203 138.989ZM203 142.738L203 143.988L204 143.988L204 142.738L203 142.738ZM203 143.988C203 144.559 202.981 145.127 202.944 145.693L203.942 145.758C203.981 145.171 204 144.581 204 143.988L203 143.988ZM202.499 149.072C202.277 150.19 201.982 151.289 201.617 152.364L202.564 152.686C202.943 151.57 203.249 150.428 203.48 149.267L202.499 149.072ZM200.313 155.513C199.811 156.531 199.242 157.517 198.609 158.465L199.44 159.02C200.098 158.036 200.689 157.012 201.21 155.955L200.313 155.513ZM196.534 161.169C196.16 161.595 195.772 162.01 195.368 162.413L196.075 163.12C196.494 162.702 196.898 162.27 197.286 161.828L196.534 161.169ZM195.368 162.413L194.772 163.009L195.479 163.716L196.075 163.12L195.368 162.413ZM193.58 164.201L192.984 164.797L193.691 165.505L194.287 164.908L193.58 164.201ZM192.984 164.797C192.591 165.19 192.19 165.573 191.779 165.945L192.451 166.686C192.873 166.303 193.287 165.909 193.691 165.505L192.984 164.797ZM189.209 168.058C188.318 168.72 187.396 169.339 186.445 169.911L186.961 170.768C187.94 170.179 188.889 169.542 189.806 168.861L189.209 168.058ZM183.515 171.487C183.015 171.726 182.508 171.952 181.996 172.166L182.381 173.089C182.909 172.869 183.43 172.635 183.945 172.39L183.515 171.487ZM181.996 172.166L180.419 172.826L180.804 173.749L182.381 173.089L181.996 172.166ZM177.264 174.145L175.687 174.804L176.073 175.727L177.65 175.067L177.264 174.145ZM175.687 174.804C175.203 175.007 174.717 175.204 174.229 175.395L174.593 176.326C175.089 176.132 175.582 175.932 176.073 175.727L175.687 174.804ZM171.274 176.475C170.28 176.812 169.279 177.127 168.272 177.419L168.55 178.379C169.572 178.083 170.587 177.764 171.595 177.422L171.274 176.475ZM165.231 178.224C164.211 178.47 163.186 178.692 162.156 178.89L162.345 179.872C163.39 179.671 164.43 179.446 165.465 179.197L165.231 178.224ZM159.054 179.415C158.016 179.567 156.975 179.694 155.931 179.798L156.03 180.793C157.089 180.688 158.145 180.558 159.198 180.405L159.054 179.415ZM152.793 180.038C151.747 180.094 150.698 180.126 149.649 180.134L149.656 181.134C150.721 181.126 151.785 181.093 152.847 181.036L152.793 180.038ZM146.503 180.087C145.979 180.067 145.455 180.041 144.931 180.009L144.87 181.007C145.402 181.039 145.933 181.066 146.465 181.086L146.503 180.087ZM144.931 180.009L143.5 179.922L143.439 180.92L144.87 181.007L144.931 180.009ZM140.638 179.748L137.776 179.573L137.715 180.572L140.577 180.746L140.638 179.748ZM134.914 179.399L132.052 179.225L131.991 180.223L134.853 180.397L134.914 179.399ZM129.19 179.051L127.758 178.964L127.698 179.962L129.129 180.049L129.19 179.051ZM127.758 178.964C127.276 178.934 126.795 178.9 126.315 178.86L126.233 179.857C126.72 179.897 127.209 179.932 127.698 179.962L127.758 178.964ZM123.436 178.562C122.477 178.442 121.522 178.301 120.572 178.141L120.406 179.127C121.37 179.29 122.339 179.432 123.312 179.554L123.436 178.562ZM117.729 177.598C116.785 177.397 115.845 177.176 114.912 176.936L114.662 177.904C115.609 178.148 116.562 178.372 117.521 178.577L117.729 177.598ZM112.125 176.153C111.201 175.873 110.284 175.573 109.374 175.253L109.043 176.197C109.967 176.521 110.897 176.825 111.834 177.11L112.125 176.153ZM106.664 174.237C105.768 173.879 104.88 173.502 104 173.106L103.59 174.018C104.483 174.42 105.384 174.802 106.293 175.165L106.664 174.237ZM101.386 171.863C100.524 171.43 99.6709 170.979 98.8274 170.51L98.3411 171.383C99.1971 171.86 100.063 172.318 100.937 172.757L101.386 171.863ZM96.3287 169.049C95.507 168.545 94.6954 168.023 93.8945 167.483L93.3357 168.312C94.1484 168.86 94.972 169.39 95.8057 169.901L96.3287 169.049ZM91.5292 165.815C90.7537 165.243 89.9895 164.654 89.237 164.047L88.6097 164.826C89.3732 165.441 90.1487 166.039 90.9356 166.62L91.5292 165.815ZM87.0221 162.184C86.6599 161.866 86.3008 161.544 85.9449 161.218L85.2692 161.955C85.6304 162.286 85.9947 162.613 86.3622 162.936L87.0221 162.184ZM85.9449 161.218L85.3739 160.694L84.6982 161.431L85.2692 161.955L85.9449 161.218ZM84.232 159.647L83.6611 159.124L82.9854 159.861L83.5563 160.385L84.232 159.647ZM83.6611 159.124C83.3476 158.837 83.0386 158.545 82.7341 158.248L82.0365 158.965C82.3481 159.268 82.6645 159.567 82.9854 159.861L83.6611 159.124ZM80.9612 156.415C80.3888 155.786 79.8354 155.141 79.3018 154.479L78.5232 155.106C79.0694 155.784 79.6358 156.445 80.2218 157.088L80.9612 156.415ZM77.7619 152.446C77.5156 152.099 77.2744 151.749 77.0385 151.396L76.2065 151.95C76.448 152.312 76.6949 152.671 76.947 153.025L77.7619 152.446ZM77.0385 151.396C76.7522 150.966 76.4743 150.533 76.2049 150.095L75.3533 150.619C75.629 151.067 75.9135 151.511 76.2065 151.95L77.0385 151.396ZM74.6832 147.408C74.2074 146.491 73.7666 145.56 73.361 144.616L72.4423 145.011C72.8574 145.977 73.3086 146.93 73.7956 147.868L74.6832 147.408ZM72.2459 141.736C71.909 140.762 71.6081 139.777 71.3436 138.783L70.3773 139.04C70.6479 140.057 70.9559 141.066 71.3009 142.063L72.2459 141.736ZM70.6587 135.771C70.4671 134.76 70.3124 133.741 70.1949 132.718L69.2014 132.832C69.3217 133.879 69.48 134.922 69.6762 135.957L70.6587 135.771ZM69.9545 129.639C69.9118 128.611 69.9065 127.581 69.9389 126.551L68.9394 126.519C68.9063 127.574 68.9117 128.629 68.9553 129.68L69.9545 129.639ZM70.1484 123.469C70.2554 122.448 70.3998 121.428 70.5819 120.411L69.5976 120.235C69.4112 121.275 69.2634 122.32 69.1538 123.365L70.1484 123.469ZM71.237 117.394C71.3642 116.896 71.5008 116.399 71.6466 115.904L70.6874 115.621C70.5381 116.128 70.3984 116.636 70.2681 117.146L71.237 117.394ZM71.6466 115.904L71.7777 115.459L70.8185 115.177L70.6874 115.621L71.6466 115.904ZM72.0399 114.57L72.171 114.125L71.2117 113.842L71.0807 114.287L72.0399 114.57ZM72.171 114.125C72.3167 113.63 72.4704 113.139 72.6317 112.652L71.6824 112.337C71.5176 112.835 71.3606 113.337 71.2117 113.842L72.171 114.125ZM73.6987 109.756C74.0877 108.8 74.5072 107.86 74.956 106.938L74.0568 106.5C73.5983 107.442 73.1698 108.402 72.7724 109.379L73.6987 109.756ZM76.3983 104.21C76.9103 103.315 77.4511 102.439 78.0192 101.584L77.1863 101.03C76.6058 101.904 76.0534 102.799 75.5303 103.713L76.3983 104.21ZM79.8115 99.0714C80.4373 98.2533 81.0896 97.4571 81.767 96.684L81.0149 96.025C80.3229 96.8147 79.6565 97.6281 79.0172 98.4638L79.8115 99.0714ZM83.877 94.432C84.6051 93.7049 85.3572 93.0022 86.132 92.3251L85.474 91.5721C84.6825 92.2638 83.9142 92.9816 83.1704 93.7244L83.877 94.432ZM88.5221 90.3728C89.3393 89.7494 90.1779 89.1527 91.0366 88.5838L90.4843 87.7502C89.6071 88.3313 88.7505 88.9409 87.9155 89.5778L88.5221 90.3728ZM93.6646 86.9662C94.5565 86.4573 95.4669 85.9773 96.3945 85.5271L95.958 84.6275C95.0103 85.0873 94.0802 85.5778 93.1691 86.0976L93.6646 86.9662ZM99.2143 84.2733C100.165 83.8881 101.131 83.5333 102.111 83.2101L101.798 82.2604C100.797 82.5906 99.8096 82.953 98.8386 83.3465L99.2143 84.2733ZM105.073 82.3421C105.57 82.2142 106.07 82.0943 106.574 81.9824L106.357 81.0062C105.843 81.1205 105.332 81.243 104.824 81.3737L105.073 82.3421ZM106.574 81.9824L108.24 81.6121L108.023 80.6359L106.357 81.0062L106.574 81.9824ZM111.573 80.8715L113.239 80.5012L113.022 79.525L111.356 79.8953L111.573 80.8715ZM113.239 80.5012C113.76 80.3854 114.279 80.2627 114.795 80.1331L114.552 79.1632C114.044 79.2906 113.534 79.4112 113.022 79.525L113.239 80.5012ZM117.875 79.2711C118.894 78.9557 119.904 78.6129 120.903 78.2434L120.556 77.3055C119.574 77.6688 118.581 78.0057 117.579 78.3158L117.875 79.2711ZM123.871 77.0528C124.849 76.629 125.816 76.1789 126.77 75.703L126.323 74.8082C125.386 75.2761 124.435 75.7186 123.473 76.1351L123.871 77.0528ZM129.591 74.198C130.517 73.671 131.43 73.1189 132.327 72.5421L131.786 71.7009C130.904 72.268 130.007 72.8108 129.097 73.3287L129.591 74.198ZM134.969 70.7402C135.832 70.1165 136.679 69.4688 137.509 68.7977L136.88 68.0201C136.064 68.6798 135.231 69.3165 134.383 69.9297L134.969 70.7402ZM139.94 66.7203C140.335 66.3634 140.726 66.0009 141.112 65.6328L140.422 64.9089C140.042 65.2708 139.658 65.6271 139.27 65.978L139.94 66.7203ZM141.112 65.6328L142.642 64.1749L141.952 63.4511L140.422 64.9089L141.112 65.6328ZM145.701 61.2592L147.23 59.8014L146.54 59.0775L145.011 60.5354L145.701 61.2592ZM147.23 59.8014C147.605 59.4438 147.974 59.0805 148.336 58.7117L147.622 58.0114C147.268 58.3722 146.907 58.7277 146.54 59.0775L147.23 59.8014ZM150.433 56.4242C151.107 55.6364 151.754 54.8279 152.371 54.0001L151.569 53.4023C150.965 54.212 150.333 55.003 149.673 55.7736L150.433 56.4242ZM154.141 51.4511C154.703 50.5808 155.235 49.6928 155.736 48.7886L154.861 48.3041C154.371 49.1886 153.851 50.0574 153.301 50.9087L154.141 51.4511ZM157.147 46.0246C157.586 45.0877 157.994 44.1362 158.369 43.1718L157.437 42.8093C157.07 43.7527 156.671 44.6835 156.242 45.6001L157.147 46.0246ZM159.396 40.2431C159.705 39.2568 159.981 38.2592 160.223 37.252L159.251 37.0181C159.014 38.0034 158.744 38.9793 158.442 39.9442L159.396 40.2431ZM160.847 34.2119C161.02 33.194 161.16 32.1683 161.264 31.1364L160.269 31.0354C160.167 32.0449 160.031 33.0483 159.861 34.0441L160.847 34.2119ZM161.473 28.0402C161.491 27.5239 161.499 27.0065 161.499 26.4882L160.499 26.4882C160.499 26.9953 160.491 27.5014 160.474 28.0065L161.473 28.0402Z" fill="#A5A5A5"/>
<path d="M222.5 108.183C222.5 108.459 222.723 108.683 223 108.683C223.276 108.683 223.5 108.459 223.5 108.183L222.5 108.183ZM315.146 32.537C315.342 32.7323 315.658 32.7323 315.853 32.537L319.035 29.355C319.231 29.1598 319.231 28.8432 319.035 28.6479C318.84 28.4527 318.524 28.4527 318.328 28.6479L315.5 31.4763L312.672 28.6479C312.476 28.4527 312.16 28.4527 311.964 28.6479C311.769 28.8432 311.769 29.1598 311.964 29.355L315.146 32.537ZM286.5 1.98816L286.443 1.49138L286.414 1.49467L286.386 1.50132L286.5 1.98816ZM223 91.1254L223.5 91.1254L223 91.1254ZM238.946 87.0626L239.437 87.1527L238.946 87.0626ZM282.946 2.81984L282.832 2.33299L282.946 2.81984ZM298.913 0.573615L298.97 1.0704L298.913 0.573615ZM248.232 36.3742L248.724 36.4643L248.232 36.3742ZM223.5 108.183L223.5 106.762L222.5 106.762L222.5 108.183L223.5 108.183ZM223.5 103.919L223.5 101.076L222.5 101.076L222.5 103.919L223.5 103.919ZM223.5 98.2328L223.5 95.3898L222.5 95.3898L222.5 98.2328L223.5 98.2328ZM223.5 92.5469L223.5 91.1254L222.5 91.1254L222.5 92.5469L223.5 92.5469ZM223.5 91.1254C223.5 90.68 223.566 90.27 223.684 89.8976L222.731 89.5953C222.581 90.0679 222.5 90.58 222.5 91.1254L223.5 91.1254ZM225.132 87.9563C225.816 87.4852 226.646 87.2339 227.477 87.2462L227.491 86.2463C226.453 86.231 225.42 86.5438 224.565 87.1326L225.132 87.9563ZM229.758 88.0581C230.063 88.3025 230.345 88.6069 230.592 88.9775L231.424 88.4227C231.122 87.9689 230.77 87.5879 230.383 87.2778L229.758 88.0581ZM230.592 88.9775C230.871 89.396 231.195 89.7531 231.551 90.0498L232.191 89.2814C231.91 89.0472 231.651 88.7623 231.424 88.4227L230.592 88.9775ZM234.194 91.1312C235.156 91.214 236.132 91.0127 236.982 90.5561L236.509 89.6751C235.83 90.0398 235.048 90.201 234.28 90.1349L234.194 91.1312ZM238.981 88.5168C239.191 88.1034 239.347 87.6474 239.437 87.1527L238.454 86.9725C238.38 87.3739 238.255 87.7381 238.09 88.0645L238.981 88.5168ZM239.437 87.1527L239.695 85.7447L238.712 85.5645L238.454 86.9725L239.437 87.1527ZM240.211 82.9286L240.727 80.1126L239.744 79.9324L239.228 82.7484L240.211 82.9286ZM241.243 77.2966L241.759 74.4806L240.775 74.3004L240.26 77.1164L241.243 77.2966ZM242.275 71.6646L242.791 68.8485L241.807 68.6683L241.291 71.4843L242.275 71.6646ZM243.307 66.0325L243.823 63.2165L242.839 63.0363L242.323 65.8523L243.307 66.0325ZM244.339 60.4005L244.855 57.5844L243.871 57.4042L243.355 60.2203L244.339 60.4005ZM245.37 54.7684L245.886 51.9524L244.903 51.7722L244.387 54.5882L245.37 54.7684ZM246.402 49.1364L246.918 46.3203L245.935 46.1401L245.419 48.9562L246.402 49.1364ZM247.434 43.5043L247.95 40.6883L246.966 40.5081L246.45 43.3241L247.434 43.5043ZM248.466 37.8723L248.724 36.4643L247.74 36.2841L247.482 37.6921L248.466 37.8723ZM248.724 36.4643C248.848 35.7851 249.001 35.1123 249.181 34.4476L248.216 34.1858C248.029 34.8774 247.87 35.5774 247.74 36.2841L248.724 36.4643ZM250.592 30.5637C250.881 29.9383 251.195 29.3244 251.536 28.7237L250.666 28.2306C250.312 28.8555 249.984 29.4943 249.684 30.145L250.592 30.5637ZM251.536 28.7237L251.985 27.9317L251.115 27.4385L250.666 28.2306L251.536 28.7237ZM252.883 26.3476L253.332 25.5555L252.462 25.0624L252.013 25.8544L252.883 26.3476ZM253.332 25.5555C253.594 25.093 253.864 24.6358 254.141 24.1841L253.288 23.6613C253.006 24.1228 252.73 24.5898 252.462 25.0624L253.332 25.5555ZM255.897 21.5294C256.514 20.6628 257.16 19.8198 257.832 19.0014L257.059 18.3667C256.372 19.2027 255.713 20.064 255.083 20.9494L255.897 21.5294ZM259.936 16.6126C260.665 15.8398 261.42 15.0933 262.199 14.374L261.52 13.6393C260.725 14.3741 259.953 15.1368 259.208 15.9263L259.936 16.6126ZM264.61 12.2961C265.438 11.6313 266.288 10.9952 267.159 10.3888L266.588 9.56804C265.698 10.1875 264.829 10.8374 263.984 11.5166L264.61 12.2961ZM269.832 8.66092C270.742 8.11642 271.671 7.6027 272.618 7.12091L272.165 6.22962C271.197 6.72182 270.248 7.24663 269.319 7.80289L269.832 8.66092ZM275.503 5.776C276.478 5.36185 277.469 4.98032 278.474 4.63252L278.147 3.68746C277.12 4.04277 276.108 4.43254 275.112 4.85565L275.503 5.776ZM281.516 3.69608C282.028 3.5577 282.543 3.42785 283.06 3.30668L282.832 2.33299C282.304 2.45677 281.778 2.58942 281.255 2.73079L281.516 3.69608ZM283.06 3.30668L283.949 3.09876L283.721 2.12507L282.832 2.33299L283.06 3.30668ZM285.725 2.68292L286.614 2.475L286.386 1.50132L285.498 1.70923L285.725 2.68292ZM286.557 2.48495L288.108 2.30813L287.995 1.31456L286.443 1.49138L286.557 2.48495ZM291.211 1.95449L294.315 1.60085L294.202 0.607285L291.098 0.960921L291.211 1.95449ZM297.418 1.24722L298.97 1.0704L298.856 0.0768305L297.305 0.253649L297.418 1.24722ZM298.97 1.0704C299.479 1.0124 299.984 0.981565 300.484 0.976652L300.474 -0.0232996C299.939 -0.0180472 299.4 0.0149122 298.856 0.0768305L298.97 1.0704ZM303.496 1.26584C304.496 1.47057 305.462 1.78019 306.379 2.18331L306.781 1.26782C305.8 0.836601 304.767 0.505256 303.696 0.286138L303.496 1.26584ZM309.007 3.68549C309.827 4.27675 310.585 4.95278 311.265 5.70145L312.005 5.02889C311.278 4.22863 310.468 3.50606 309.591 2.87406L309.007 3.68549ZM313.055 8.14219C313.56 9.00788 313.977 9.93192 314.293 10.9028L315.244 10.5927C314.905 9.55359 314.459 8.56482 313.919 7.63877L313.055 8.14219ZM314.922 13.863C314.973 14.3601 315 14.8654 315 15.3777L316 15.3777C316 14.8308 315.972 14.291 315.916 13.7595L314.922 13.863ZM315 15.3777L315 16.7781L316 16.7781L316 15.3777L315 15.3777ZM315 19.5791L315 22.3801L316 22.3801L316 19.5791L315 19.5791ZM315 25.181L315 27.982L316 27.982L316 25.181L315 25.181ZM315 30.783L315 32.1835L316 32.1835L316 30.783L315 30.783Z" fill="#A5A5A5"/>
<path d="M339.481 66.611C339.55 66.3437 339.39 66.0707 339.123 66.0011C338.856 65.9315 338.583 66.0917 338.513 66.3589L339.481 66.611ZM424.354 114.134C424.158 113.939 423.842 113.939 423.646 114.134L420.465 117.316C420.269 117.511 420.269 117.828 420.465 118.023C420.66 118.218 420.976 118.218 421.172 118.023L424 115.195L426.828 118.023C427.024 118.218 427.34 118.218 427.536 118.023C427.731 117.828 427.731 117.511 427.536 117.316L424.354 114.134ZM393.656 136.375L393.903 135.94L393.656 136.375ZM399.706 138.628L399.804 138.137L399.706 138.628ZM406.85 140.053L406.752 140.543L406.85 140.053ZM369.547 122.702L369.301 123.136L369.547 122.702ZM331.714 94.4499L331.23 94.3239L331.714 94.4499ZM338.513 66.3589L338.149 67.7572L339.117 68.0092L339.481 66.611L338.513 66.3589ZM337.421 70.5537L336.692 73.3502L337.66 73.6022L338.388 70.8057L337.421 70.5537ZM335.964 76.1467L335.236 78.9432L336.203 79.1952L336.932 76.3987L335.964 76.1467ZM334.507 81.7397L333.779 84.5361L334.747 84.7882L335.475 81.9917L334.507 81.7397ZM333.051 87.3326L332.322 90.1291L333.29 90.3812L334.018 87.5847L333.051 87.3326ZM331.594 92.9256L331.23 94.3239L332.197 94.5759L332.562 93.1777L331.594 92.9256ZM331.23 94.3239C331.1 94.8225 330.988 95.3201 330.895 95.8163L331.878 96.0013C331.967 95.5277 332.073 95.0524 332.197 94.5759L331.23 94.3239ZM330.542 98.8545C330.497 99.8883 330.527 100.91 330.628 101.913L331.623 101.812C331.527 100.857 331.498 99.8839 331.541 98.8988L330.542 98.8545ZM331.157 104.925C331.408 105.921 331.73 106.891 332.117 107.829L333.041 107.448C332.673 106.554 332.366 105.63 332.127 104.681L331.157 104.925ZM333.483 110.566C334.003 111.445 334.584 112.285 335.221 113.08L336.001 112.455C335.394 111.697 334.839 110.895 334.343 110.057L333.483 110.566ZM337.295 115.326C338.037 116.024 338.829 116.67 339.664 117.259L340.24 116.441C339.443 115.88 338.688 115.264 337.98 114.598L337.295 115.326ZM342.283 118.837C343.188 119.297 344.129 119.695 345.102 120.024L345.422 119.077C344.496 118.764 343.599 118.385 342.737 117.946L342.283 118.837ZM348.063 120.791C349.055 120.971 350.071 121.083 351.105 121.119L351.14 120.12C350.154 120.085 349.187 119.979 348.243 119.807L348.063 120.791ZM354.161 121.009C354.663 120.955 355.168 120.883 355.676 120.793L355.501 119.809C355.016 119.895 354.534 119.963 354.055 120.014L354.161 121.009ZM355.676 120.793C356.256 120.691 356.839 120.613 357.423 120.561L357.334 119.565C356.722 119.62 356.11 119.701 355.501 119.809L355.676 120.793ZM360.944 120.552C362.116 120.651 363.278 120.851 364.415 121.149L364.669 120.182C363.476 119.869 362.257 119.659 361.028 119.556L360.944 120.552ZM367.731 122.334C368.264 122.578 368.788 122.845 369.301 123.136L369.794 122.267C369.256 121.961 368.707 121.681 368.148 121.425L367.731 122.334ZM369.301 123.136L370.506 123.82L370.999 122.95L369.794 122.267L369.301 123.136ZM372.917 125.188L375.328 126.555L375.821 125.685L373.41 124.318L372.917 125.188ZM377.739 127.922L380.15 129.29L380.643 128.42L378.232 127.052L377.739 127.922ZM382.561 130.657L384.972 132.024L385.465 131.155L383.054 129.787L382.561 130.657ZM387.382 133.392L389.793 134.759L390.287 133.889L387.876 132.522L387.382 133.392ZM392.204 136.127L393.41 136.81L393.903 135.94L392.698 135.257L392.204 136.127ZM393.41 136.81C393.892 137.084 394.384 137.337 394.885 137.571L395.308 136.665C394.831 136.442 394.362 136.201 393.903 135.94L393.41 136.81ZM397.994 138.729C398.526 138.88 399.065 139.01 399.608 139.118L399.804 138.137C399.286 138.034 398.774 137.91 398.267 137.767L397.994 138.729ZM399.608 139.118L401.394 139.474L401.59 138.494L399.804 138.137L399.608 139.118ZM404.966 140.187L406.752 140.543L406.948 139.562L405.162 139.206L404.966 140.187ZM406.752 140.543C407.296 140.651 407.837 140.729 408.375 140.776L408.463 139.78C407.961 139.736 407.456 139.664 406.948 139.562L406.752 140.543ZM411.649 140.703C412.746 140.555 413.81 140.286 414.825 139.907L414.476 138.97C413.529 139.323 412.537 139.574 411.515 139.712L411.649 140.703ZM417.748 138.431C418.664 137.834 419.513 137.138 420.278 136.356L419.564 135.656C418.85 136.386 418.057 137.036 417.202 137.594L417.748 138.431ZM422.297 133.778C422.867 132.857 423.34 131.866 423.699 130.819L422.754 130.494C422.419 131.47 421.978 132.393 421.447 133.252L422.297 133.778ZM424.412 127.622C424.47 127.086 424.5 126.54 424.5 125.986L423.5 125.986C423.5 126.504 423.472 127.014 423.417 127.514L424.412 127.622ZM424.5 125.986L424.5 124.549L423.5 124.549L423.5 125.986L424.5 125.986ZM424.5 121.674L424.5 118.799L423.5 118.799L423.5 121.674L424.5 121.674ZM424.5 115.925L424.5 114.488L423.5 114.488L423.5 115.925L424.5 115.925Z" fill="#A5A5A5"/>
<g filter="url(#filter0_d_480_4038)">
<rect x="379" y="67" width="88.9994" height="38" rx="8" fill="white"/>
<path d="M397.529 81.5455H398.674V87.8054C398.674 88.4517 398.522 89.0288 398.217 89.5366C397.915 90.0413 397.489 90.4399 396.938 90.7322C396.387 91.0215 395.741 91.1662 394.999 91.1662C394.258 91.1662 393.611 91.0215 393.06 90.7322C392.509 90.4399 392.082 90.0413 391.777 89.5366C391.475 89.0288 391.325 88.4517 391.325 87.8054V81.5455H392.469V87.7131C392.469 88.1747 392.571 88.5856 392.774 88.9457C392.977 89.3027 393.267 89.5843 393.642 89.7905C394.021 89.9936 394.473 90.0952 394.999 90.0952C395.526 90.0952 395.978 89.9936 396.357 89.7905C396.735 89.5843 397.024 89.3027 397.224 88.9457C397.428 88.5856 397.529 88.1747 397.529 87.7131V81.5455ZM406.131 83.9091C406.075 83.4413 405.851 83.0781 405.457 82.8196C405.063 82.5611 404.58 82.4318 404.007 82.4318C403.589 82.4318 403.222 82.4995 402.908 82.6349C402.598 82.7704 402.354 82.9566 402.179 83.1935C402.007 83.4305 401.921 83.6998 401.921 84.0014C401.921 84.2538 401.981 84.4708 402.101 84.6523C402.224 84.8308 402.381 84.9801 402.571 85.1001C402.762 85.2171 402.962 85.314 403.172 85.391C403.381 85.4648 403.573 85.5249 403.749 85.571L404.709 85.8295C404.955 85.8942 405.229 85.9834 405.531 86.0973C405.835 86.2112 406.126 86.3666 406.403 86.5636C406.683 86.7575 406.914 87.0067 407.096 87.3114C407.277 87.6161 407.368 87.9901 407.368 88.4332C407.368 88.9441 407.234 89.4058 406.966 89.8182C406.702 90.2306 406.314 90.5584 405.803 90.8015C405.295 91.0446 404.678 91.1662 403.952 91.1662C403.275 91.1662 402.688 91.0569 402.193 90.8384C401.7 90.6199 401.313 90.3152 401.03 89.9244C400.749 89.5335 400.591 89.0795 400.554 88.5625H401.736C401.767 88.9195 401.887 89.215 402.096 89.4489C402.308 89.6797 402.576 89.852 402.899 89.9659C403.225 90.0767 403.576 90.1321 403.952 90.1321C404.389 90.1321 404.781 90.0613 405.129 89.9197C405.477 89.7751 405.752 89.575 405.955 89.3196C406.158 89.0611 406.26 88.7595 406.26 88.4148C406.26 88.1009 406.172 87.8454 405.997 87.6484C405.821 87.4515 405.591 87.2914 405.304 87.1683C405.018 87.0452 404.709 86.9375 404.377 86.8452L403.213 86.5128C402.475 86.3004 401.89 85.9973 401.459 85.6033C401.028 85.2094 400.813 84.6939 400.813 84.0568C400.813 83.5275 400.956 83.0658 401.242 82.6719C401.531 82.2749 401.919 81.9671 402.405 81.7486C402.895 81.527 403.441 81.4162 404.044 81.4162C404.653 81.4162 405.195 81.5254 405.669 81.744C406.143 81.9594 406.519 82.2549 406.796 82.6303C407.076 83.0058 407.223 83.4321 407.239 83.9091H406.131ZM409.25 91V81.5455H414.956V82.5611H410.395V85.7557H414.661V86.7713H410.395V89.9844H415.03V91H409.25ZM421.064 91H419.864L423.335 81.5455H424.517L427.989 91H426.788L423.963 83.0412H423.889L421.064 91ZM421.507 87.3068H426.345V88.3224H421.507V87.3068ZM429.461 91V81.5455H432.656C433.398 81.5455 434.004 81.6793 434.475 81.9471C434.949 82.2118 435.3 82.5703 435.527 83.0227C435.755 83.4751 435.869 83.9799 435.869 84.5369C435.869 85.094 435.755 85.6003 435.527 86.0558C435.303 86.5112 434.955 86.8744 434.484 87.1452C434.013 87.413 433.41 87.5469 432.674 87.5469H430.385V86.5312H432.637C433.145 86.5312 433.553 86.4435 433.861 86.2681C434.169 86.0927 434.392 85.8557 434.53 85.5572C434.672 85.2556 434.743 84.9155 434.743 84.5369C434.743 84.1584 434.672 83.8198 434.53 83.5213C434.392 83.2228 434.167 82.9889 433.856 82.8196C433.545 82.6473 433.133 82.5611 432.619 82.5611H430.606V91H429.461ZM437.713 91V81.5455H440.908C441.65 81.5455 442.256 81.6793 442.727 81.9471C443.201 82.2118 443.552 82.5703 443.779 83.0227C444.007 83.4751 444.121 83.9799 444.121 84.5369C444.121 85.094 444.007 85.6003 443.779 86.0558C443.555 86.5112 443.207 86.8744 442.736 87.1452C442.265 87.413 441.662 87.5469 440.926 87.5469H438.637V86.5312H440.889C441.397 86.5312 441.805 86.4435 442.113 86.2681C442.421 86.0927 442.644 85.8557 442.782 85.5572C442.924 85.2556 442.994 84.9155 442.994 84.5369C442.994 84.1584 442.924 83.8198 442.782 83.5213C442.644 83.2228 442.419 82.9889 442.108 82.8196C441.797 82.6473 441.385 82.5611 440.871 82.5611H438.858V91H437.713Z" fill="#696969"/>
<circle cx="453.999" cy="86" r="3" fill="#2BD202"/>
</g>
</g>
</g>
<defs>
<filter id="filter0_d_480_4038" x="374" y="63" width="98.9994" height="48" filterUnits="userSpaceOnUse" color-interpolation-filters="sRGB">
<feFlood flood-opacity="0" result="BackgroundImageFix"/>
<feColorMatrix in="SourceAlpha" type="matrix" values="0 0 0 0 0 0 0 0 0 0 0 0 0 0 0 0 0 0 127 0" result="hardAlpha"/>
<feOffset dy="1"/>
<feGaussianBlur stdDeviation="2.5"/>
<feComposite in2="hardAlpha" operator="out"/>
<feColorMatrix type="matrix" values="0 0 0 0 0.0916667 0 0 0 0 0.0916667 0 0 0 0 0.0916667 0 0 0 0.15 0"/>
<feBlend mode="normal" in2="BackgroundImageFix" result="effect1_dropShadow_480_4038"/>
<feBlend mode="normal" in="SourceGraphic" in2="effect1_dropShadow_480_4038" result="shape"/>
</filter>
<clipPath id="clip0_480_4038">
<rect width="580" height="181" fill="white"/>
</clipPath>
</defs>
</svg>
