<svg width="580" height="143" viewBox="0 0 580 143" fill="none" xmlns="http://www.w3.org/2000/svg">
<g clip-path="url(#clip0_480_4039)">
<mask id="mask0_480_4039" style="mask-type:alpha" maskUnits="userSpaceOnUse" x="0" y="-82" width="580" height="225">
<rect y="-82" width="580" height="225" fill="#FAFAFA"/>
</mask>
<g mask="url(#mask0_480_4039)">
<path d="M142.571 20V10.5455H148.24V11.5611H143.716V14.7557H147.815V15.7713H143.716V20H142.571ZM151.346 10.5455V20H150.201V10.5455H151.346ZM161.139 10.5455V20H160.031L154.879 12.5767H154.786V20H153.641V10.5455H154.749L159.92 17.9872H160.012V10.5455H161.139ZM166.347 20H163.43V10.5455H166.476C167.394 10.5455 168.178 10.7347 168.831 11.1133C169.483 11.4888 169.983 12.0289 170.331 12.7337C170.679 13.4354 170.853 14.2756 170.853 15.2543C170.853 16.2391 170.677 17.087 170.327 17.7979C169.976 18.5058 169.465 19.0505 168.794 19.4322C168.123 19.8107 167.307 20 166.347 20ZM164.574 18.9844H166.273C167.055 18.9844 167.703 18.8336 168.217 18.532C168.731 18.2304 169.114 17.801 169.366 17.244C169.619 16.6869 169.745 16.0237 169.745 15.2543C169.745 14.491 169.62 13.8339 169.371 13.283C169.122 12.729 168.749 12.3043 168.254 12.0089C167.758 11.7103 167.141 11.5611 166.403 11.5611H164.574V18.9844ZM176.817 20H175.617L179.089 10.5455H180.27L183.742 20H182.542L179.716 12.0412H179.643L176.817 20ZM177.261 16.3068H182.099V17.3224H177.261V16.3068ZM185.215 20V10.5455H188.409C189.151 10.5455 189.757 10.6793 190.228 10.9471C190.702 11.2118 191.053 11.5703 191.281 12.0227C191.509 12.4751 191.622 12.9799 191.622 13.5369C191.622 14.094 191.509 14.6003 191.281 15.0558C191.056 15.5112 190.708 15.8744 190.237 16.1452C189.767 16.413 189.163 16.5469 188.428 16.5469H186.138V15.5312H188.391C188.899 15.5312 189.306 15.4435 189.614 15.2681C189.922 15.0927 190.145 14.8557 190.284 14.5572C190.425 14.2556 190.496 13.9155 190.496 13.5369C190.496 13.1584 190.425 12.8198 190.284 12.5213C190.145 12.2228 189.92 11.9889 189.61 11.8196C189.299 11.6473 188.886 11.5611 188.372 11.5611H186.36V20H185.215ZM193.467 20V10.5455H196.661C197.403 10.5455 198.009 10.6793 198.48 10.9471C198.954 11.2118 199.305 11.5703 199.533 12.0227C199.76 12.4751 199.874 12.9799 199.874 13.5369C199.874 14.094 199.76 14.6003 199.533 15.0558C199.308 15.5112 198.96 15.8744 198.489 16.1452C198.019 16.413 197.415 16.5469 196.68 16.5469H194.39V15.5312H196.643C197.151 15.5312 197.558 15.4435 197.866 15.2681C198.174 15.0927 198.397 14.8557 198.536 14.5572C198.677 14.2556 198.748 13.9155 198.748 13.5369C198.748 13.1584 198.677 12.8198 198.536 12.5213C198.397 12.2228 198.172 11.9889 197.862 11.8196C197.551 11.6473 197.138 11.5611 196.624 11.5611H194.612V20H193.467Z" fill="#A5A5A5"/>
<path d="M285.735 45.5455V55H284.59V45.5455H285.735ZM295.527 45.5455V55H294.419L289.267 47.5767H289.175V55H288.03V45.5455H289.138L294.309 52.9872H294.401V45.5455H295.527ZM302.989 47.9091C302.933 47.4413 302.709 47.0781 302.315 46.8196C301.921 46.5611 301.438 46.4318 300.865 46.4318C300.447 46.4318 300.08 46.4995 299.766 46.6349C299.456 46.7704 299.212 46.9566 299.037 47.1935C298.865 47.4305 298.778 47.6998 298.778 48.0014C298.778 48.2538 298.838 48.4708 298.958 48.6523C299.082 48.8308 299.239 48.9801 299.429 49.1001C299.62 49.2171 299.82 49.314 300.03 49.391C300.239 49.4648 300.431 49.5249 300.607 49.571L301.567 49.8295C301.813 49.8942 302.087 49.9834 302.389 50.0973C302.693 50.2112 302.984 50.3666 303.261 50.5636C303.541 50.7575 303.772 51.0067 303.954 51.3114C304.135 51.6161 304.226 51.9901 304.226 52.4332C304.226 52.9441 304.092 53.4058 303.824 53.8182C303.56 54.2306 303.172 54.5584 302.661 54.8015C302.153 55.0446 301.536 55.1662 300.81 55.1662C300.133 55.1662 299.546 55.0569 299.051 54.8384C298.558 54.6199 298.171 54.3152 297.887 53.9244C297.607 53.5335 297.449 53.0795 297.412 52.5625H298.594C298.625 52.9195 298.745 53.215 298.954 53.4489C299.166 53.6797 299.434 53.852 299.757 53.9659C300.083 54.0767 300.434 54.1321 300.81 54.1321C301.247 54.1321 301.639 54.0613 301.987 53.9197C302.335 53.7751 302.61 53.575 302.813 53.3196C303.016 53.0611 303.118 52.7595 303.118 52.4148C303.118 52.1009 303.03 51.8454 302.855 51.6484C302.679 51.4515 302.449 51.2914 302.162 51.1683C301.876 51.0452 301.567 50.9375 301.234 50.8452L300.071 50.5128C299.332 50.3004 298.748 49.9973 298.317 49.6033C297.886 49.2094 297.67 48.6939 297.67 48.0568C297.67 47.5275 297.814 47.0658 298.1 46.6719C298.389 46.2749 298.777 45.9671 299.263 45.7486C299.753 45.527 300.299 45.4162 300.902 45.4162C301.511 45.4162 302.053 45.5254 302.527 45.744C303.001 45.9594 303.376 46.2549 303.653 46.6303C303.934 47.0058 304.081 47.4321 304.097 47.9091H302.989ZM305.591 46.5611V45.5455H312.682V46.5611H309.709V55H308.564V46.5611H305.591ZM313.732 55H312.532L316.004 45.5455H317.186L320.657 55H319.457L316.632 47.0412H316.558L313.732 55ZM314.176 51.3068H319.014V52.3224H314.176V51.3068ZM322.13 55V45.5455H323.275V53.9844H327.67V55H322.13ZM329.442 55V45.5455H330.587V53.9844H334.982V55H329.442ZM340.799 55H339.598L343.07 45.5455H344.252L347.723 55H346.523L343.698 47.0412H343.624L340.799 55ZM341.242 51.3068H346.08V52.3224H341.242V51.3068ZM349.196 55V45.5455H352.391C353.132 45.5455 353.739 45.6793 354.21 45.9471C354.684 46.2118 355.034 46.5703 355.262 47.0227C355.49 47.4751 355.604 47.9799 355.604 48.5369C355.604 49.094 355.49 49.6003 355.262 50.0558C355.038 50.5112 354.69 50.8744 354.219 51.1452C353.748 51.413 353.145 51.5469 352.409 51.5469H350.119V50.5312H352.372C352.88 50.5312 353.288 50.4435 353.596 50.2681C353.903 50.0927 354.127 49.8557 354.265 49.5572C354.407 49.2556 354.477 48.9155 354.477 48.5369C354.477 48.1584 354.407 47.8198 354.265 47.5213C354.127 47.2228 353.902 46.9889 353.591 46.8196C353.28 46.6473 352.868 46.5611 352.354 46.5611H350.341V55H349.196ZM357.448 55V45.5455H360.643C361.384 45.5455 361.991 45.6793 362.462 45.9471C362.936 46.2118 363.286 46.5703 363.514 47.0227C363.742 47.4751 363.856 47.9799 363.856 48.5369C363.856 49.094 363.742 49.6003 363.514 50.0558C363.289 50.5112 362.942 50.8744 362.471 51.1452C362 51.413 361.397 51.5469 360.661 51.5469H358.371V50.5312H360.624C361.132 50.5312 361.54 50.4435 361.848 50.2681C362.155 50.0927 362.379 49.8557 362.517 49.5572C362.659 49.2556 362.729 48.9155 362.729 48.5369C362.729 48.1584 362.659 47.8198 362.517 47.5213C362.379 47.2228 362.154 46.9889 361.843 46.8196C361.532 46.6473 361.12 46.5611 360.606 46.5611H358.593V55H357.448Z" fill="#A5A5A5"/>
<path d="M175 32.6953C175 32.4191 174.776 32.1953 174.5 32.1953C174.224 32.1953 174 32.4191 174 32.6953L175 32.6953ZM324.146 33.0489C324.342 33.2442 324.658 33.2442 324.853 33.0489L328.035 29.8669C328.231 29.6717 328.231 29.3551 328.035 29.1598C327.84 28.9645 327.524 28.9645 327.328 29.1598L324.5 31.9882L321.672 29.1598C321.476 28.9645 321.16 28.9645 320.964 29.1598C320.769 29.3551 320.769 29.6716 320.964 29.8669L324.146 33.0489ZM295.5 2.50005L295.443 2.00327L295.414 2.00657L295.386 2.01321L295.5 2.50005ZM174.5 47.0628L175 47.0628L174.5 47.0628ZM254.044 54.2891L254.536 54.3792L254.044 54.2891ZM291.946 3.33173L291.832 2.84488L291.946 3.33173ZM307.913 1.08549L307.856 0.588709L307.913 1.08549ZM256.576 40.4683L256.084 40.3782L256.576 40.4683ZM174 32.6953L174 34.4912L175 34.4912L175 32.6953L174 32.6953ZM174 38.0831L174 41.675L175 41.675L175 38.0831L174 38.0831ZM174 45.2669L174 47.0628L175 47.0628L175 45.2669L174 45.2669ZM174 47.0628C174 47.5467 174.009 48.029 174.026 48.5096L175.025 48.4743C175.008 48.0054 175 47.5349 175 47.0628L174 47.0628ZM174.23 51.3952C174.333 52.3586 174.47 53.3134 174.64 54.2583L175.624 54.0814C175.459 53.1599 175.325 52.2286 175.225 51.289L174.23 51.3952ZM175.253 57.0846C175.492 58.0221 175.763 58.9479 176.066 59.8604L177.015 59.5451C176.72 58.6551 176.455 57.7522 176.222 56.8379L175.253 57.0846ZM177.076 62.5712C177.445 63.4639 177.846 64.3417 178.276 65.2029L179.171 64.7558C178.751 63.9158 178.36 63.0597 178 62.189L177.076 62.5712ZM179.661 67.7424C180.152 68.5726 180.673 69.3846 181.222 70.177L182.044 69.6076C181.509 68.8347 181.001 68.0426 180.521 67.2328L179.661 67.7424ZM182.952 72.4947C183.556 73.2461 184.186 73.9762 184.843 74.6836L185.576 74.0035C184.936 73.3135 184.321 72.6013 183.732 71.8684L182.952 72.4947ZM186.884 76.7326C187.587 77.3901 188.315 78.0235 189.066 78.6313L189.695 77.854C188.963 77.2612 188.253 76.6434 187.567 76.0021L186.884 76.7326ZM191.378 80.3697C192.167 80.9198 192.977 81.4433 193.808 81.9386L194.32 81.0796C193.51 80.5965 192.719 80.086 191.95 79.5495L191.378 80.3697ZM196.344 83.3296C197.201 83.7609 198.078 84.1636 198.972 84.5361L199.357 83.613C198.484 83.2496 197.629 82.8569 196.793 82.4362L196.344 83.3296ZM201.68 85.5527C202.136 85.7056 202.596 85.8509 203.06 85.9884L203.345 85.0297C202.892 84.8955 202.443 84.7538 201.998 84.6046L201.68 85.5527ZM203.06 85.9884C203.558 86.1361 204.057 86.2737 204.555 86.4015L204.804 85.4328C204.317 85.3081 203.831 85.1738 203.345 85.0297L203.06 85.9884ZM207.579 87.0562C208.603 87.2378 209.627 87.3788 210.648 87.4803L210.747 86.4852C209.751 86.3862 208.753 86.2487 207.753 86.0716L207.579 87.0562ZM213.737 87.668C214.774 87.6911 215.807 87.674 216.834 87.6177L216.779 86.6192C215.778 86.6741 214.771 86.6908 213.759 86.6683L213.737 87.668ZM219.916 87.3292C220.943 87.1931 221.961 87.0178 222.968 86.8047L222.761 85.8263C221.779 86.0342 220.786 86.2051 219.785 86.3379L219.916 87.3292ZM225.97 86.0481C226.962 85.7573 227.941 85.4291 228.906 85.0649L228.552 84.1294C227.612 84.4847 226.657 84.8048 225.689 85.0885L225.97 86.0481ZM231.758 83.8615C232.694 83.4243 233.612 82.9519 234.511 82.4456L234.02 81.5743C233.143 82.0682 232.247 82.529 231.335 82.9555L231.758 83.8615ZM237.149 80.8257C238.007 80.2529 238.844 79.6476 239.657 79.0109L239.041 78.2235C238.247 78.8446 237.431 79.4352 236.594 79.9939L237.149 80.8257ZM242.021 77.0113C242.782 76.3162 243.517 75.5913 244.226 74.8379L243.497 74.153C242.806 74.8879 242.089 75.5949 241.346 76.2729L242.021 77.0113ZM246.258 72.5027C246.904 71.7009 247.521 70.8724 248.107 70.0182L247.282 69.4526C246.711 70.2855 246.109 71.0936 245.48 71.8754L246.258 72.5027ZM249.758 67.3998C250.273 66.5099 250.755 65.5964 251.204 64.6604L250.302 64.2281C249.865 65.1407 249.394 66.0315 248.892 66.8993L249.758 67.3998ZM252.434 61.8207C252.805 60.8644 253.142 59.8878 253.444 58.8921L252.487 58.6024C252.193 59.5737 251.864 60.5262 251.502 61.4588L252.434 61.8207ZM254.228 55.8995C254.339 55.3969 254.442 54.8902 254.536 54.3792L253.552 54.199C253.461 54.6977 253.36 55.1923 253.251 55.6826L254.228 55.8995ZM254.536 54.3792L254.852 52.6516L253.868 52.4714L253.552 54.199L254.536 54.3792ZM255.485 49.1964L256.118 45.7412L255.134 45.561L254.501 49.0162L255.485 49.1964ZM256.751 42.286L257.068 40.5584L256.084 40.3782L255.767 42.1058L256.751 42.286ZM257.068 40.5584C257.145 40.1349 257.229 39.7128 257.318 39.2921L256.34 39.0846C256.249 39.5143 256.163 39.9456 256.084 40.3782L257.068 40.5584ZM257.924 36.783C258.149 35.9521 258.398 35.1279 258.669 34.3115L257.72 33.9963C257.443 34.8304 257.189 35.6724 256.959 36.5212L257.924 36.783ZM259.55 31.8853C259.866 31.0853 260.205 30.2939 260.565 29.5121L259.657 29.0933C259.289 29.892 258.943 30.7005 258.62 31.5178L259.55 31.8853ZM261.711 27.1991C261.913 26.8192 262.12 26.4419 262.332 26.0674L261.462 25.5742C261.245 25.9568 261.034 26.3423 260.828 26.7303L261.711 27.1991ZM262.332 26.0674C262.594 25.6048 262.864 25.1477 263.141 24.696L262.289 24.1732C262.006 24.6346 261.73 25.1017 261.462 25.5742L262.332 26.0674ZM264.897 22.0413C265.514 21.1747 266.16 20.3316 266.832 19.5133L266.059 18.8786C265.373 19.7146 264.713 20.5759 264.083 21.4612L264.897 22.0413ZM268.936 17.1245C269.665 16.3517 270.42 15.6051 271.199 14.8859L270.52 14.1512C269.725 14.886 268.954 15.6487 268.208 16.4381L268.936 17.1245ZM273.61 12.808C274.438 12.1432 275.288 11.507 276.159 10.9006L275.588 10.0799C274.698 10.6994 273.829 11.3493 272.984 12.0284L273.61 12.808ZM278.832 9.17281C279.742 8.6283 280.671 8.11459 281.618 7.6328L281.165 6.74151C280.197 7.2337 279.248 7.75852 278.319 8.31478L278.832 9.17281ZM284.503 6.28789C285.478 5.87373 286.469 5.4922 287.474 5.14441L287.147 4.19935C286.12 4.55465 285.108 4.94443 284.112 5.36753L284.503 6.28789ZM290.516 4.20797C291.028 4.06959 291.543 3.93974 292.06 3.81857L291.832 2.84488C291.304 2.96866 290.778 3.10131 290.255 3.24268L290.516 4.20797ZM292.06 3.81857L292.949 3.61065L292.721 2.63696L291.832 2.84488L292.06 3.81857ZM294.726 3.19482L295.614 2.9869L295.386 2.01321L294.498 2.22113L294.726 3.19482ZM295.557 2.99684L297.108 2.82002L296.995 1.82645L295.443 2.00327L295.557 2.99684ZM300.212 2.46638L303.315 2.11274L303.202 1.11917L300.098 1.47281L300.212 2.46638ZM306.418 1.7591L307.97 1.58228L307.856 0.588709L306.305 0.765529L306.418 1.7591ZM307.97 1.58228C308.479 1.52427 308.984 1.49344 309.484 1.48853L309.474 0.488578C308.939 0.49383 308.4 0.52679 307.856 0.588709L307.97 1.58228ZM312.496 1.77771C313.496 1.98244 314.462 2.29207 315.379 2.69518L315.781 1.7797C314.8 1.34847 313.767 1.01713 312.696 0.798013L312.496 1.77771ZM318.007 4.19737C318.827 4.78862 319.585 5.46465 320.265 6.21332L321.005 5.54076C320.278 4.74051 319.468 4.01793 318.591 3.38593L318.007 4.19737ZM322.055 8.65406C322.56 9.51975 322.977 10.4438 323.293 11.4147L324.244 11.1046C323.905 10.0655 323.459 9.0767 322.919 8.15065L322.055 8.65406ZM323.922 14.3748C323.973 14.8719 324 15.3772 324 15.8895L325 15.8895C325 15.3427 324.972 14.8028 324.916 14.2714L323.922 14.3748ZM324 15.8895L324 17.29L325 17.29L325 15.8895L324 15.8895ZM324 20.091L324 22.8919L325 22.8919L325 20.091L324 20.091ZM324 25.6929L324 28.4939L325 28.4939L325 25.6929L324 25.6929ZM324 31.2949L324 32.6953L325 32.6953L325 31.2949L324 31.2949Z" fill="#A5A5A5"/>
<path d="M348.481 67.1228C348.55 66.8556 348.39 66.5825 348.123 66.5129C347.856 66.4433 347.583 66.6035 347.513 66.8708L348.481 67.1228ZM433.354 114.646C433.158 114.451 432.842 114.451 432.646 114.646L429.465 117.828C429.269 118.023 429.269 118.34 429.465 118.535C429.66 118.73 429.976 118.73 430.172 118.535L433 115.707L435.828 118.535C436.024 118.73 436.34 118.73 436.536 118.535C436.731 118.34 436.731 118.023 436.536 117.828L433.354 114.646ZM402.656 136.887L402.903 136.452L402.656 136.887ZM408.706 139.139L408.804 138.649L408.706 139.139ZM415.85 140.565L415.752 141.055L415.85 140.565ZM378.547 123.213L378.301 123.648L378.547 123.213ZM340.714 94.9617L340.23 94.8357L340.714 94.9617ZM347.513 66.8708L347.149 68.269L348.117 68.5211L348.481 67.1228L347.513 66.8708ZM346.421 71.0655L345.692 73.862L346.66 74.114L347.388 71.3175L346.421 71.0655ZM344.964 76.6585L344.236 79.455L345.203 79.707L345.932 76.9105L344.964 76.6585ZM343.507 82.2515L342.779 85.048L343.747 85.3L344.475 82.5035L343.507 82.2515ZM342.051 87.8445L341.322 90.641L342.29 90.893L343.018 88.0965L342.051 87.8445ZM340.594 93.4375L340.23 94.8357L341.197 95.0878L341.562 93.6895L340.594 93.4375ZM340.23 94.8357C340.1 95.3343 339.988 95.832 339.895 96.3281L340.878 96.5131C340.967 96.0396 341.073 95.5643 341.197 95.0878L340.23 94.8357ZM339.542 99.3664C339.497 100.4 339.527 101.421 339.628 102.424L340.623 102.324C340.527 101.368 340.498 100.396 340.541 99.4107L339.542 99.3664ZM340.157 105.437C340.408 106.433 340.73 107.403 341.117 108.341L342.041 107.96C341.673 107.066 341.366 106.141 341.127 105.193L340.157 105.437ZM342.483 111.077C343.003 111.957 343.584 112.797 344.221 113.592L345.001 112.967C344.394 112.209 343.839 111.407 343.343 110.568L342.483 111.077ZM346.295 115.838C347.037 116.536 347.829 117.182 348.664 117.771L349.24 116.953C348.443 116.392 347.688 115.775 346.98 115.11L346.295 115.838ZM351.283 119.349C352.188 119.809 353.129 120.207 354.102 120.536L354.422 119.589C353.496 119.275 352.599 118.896 351.737 118.458L351.283 119.349ZM357.063 121.302C358.055 121.483 359.071 121.595 360.105 121.631L360.14 120.632C359.154 120.597 358.187 120.491 357.243 120.319L357.063 121.302ZM363.161 121.52C363.663 121.467 364.168 121.395 364.676 121.305L364.501 120.321C364.016 120.407 363.534 120.475 363.055 120.526L363.161 121.52ZM364.676 121.305C365.256 121.202 365.839 121.125 366.423 121.073L366.334 120.077C365.722 120.132 365.11 120.213 364.501 120.321L364.676 121.305ZM369.944 121.064C371.116 121.163 372.278 121.362 373.415 121.661L373.669 120.694C372.476 120.381 371.257 120.171 370.028 120.068L369.944 121.064ZM376.731 122.846C377.264 123.09 377.788 123.357 378.301 123.648L378.794 122.778C378.256 122.473 377.707 122.193 377.148 121.937L376.731 122.846ZM378.301 123.648L379.506 124.332L379.999 123.462L378.794 122.778L378.301 123.648ZM381.917 125.699L384.328 127.067L384.821 126.197L382.41 124.83L381.917 125.699ZM386.739 128.434L389.15 129.802L389.643 128.932L387.232 127.564L386.739 128.434ZM391.561 131.169L393.972 132.536L394.465 131.666L392.054 130.299L391.561 131.169ZM396.382 133.904L398.793 135.271L399.287 134.401L396.876 133.034L396.382 133.904ZM401.204 136.638L402.41 137.322L402.903 136.452L401.698 135.769L401.204 136.638ZM402.41 137.322C402.892 137.596 403.384 137.849 403.885 138.083L404.308 137.177C403.831 136.954 403.362 136.713 402.903 136.452L402.41 137.322ZM406.994 139.24C407.526 139.391 408.065 139.521 408.608 139.63L408.804 138.649C408.286 138.546 407.774 138.422 407.267 138.278L406.994 139.24ZM408.608 139.63L410.394 139.986L410.59 139.005L408.804 138.649L408.608 139.63ZM413.966 140.699L415.752 141.055L415.948 140.074L414.162 139.718L413.966 140.699ZM415.752 141.055C416.296 141.163 416.837 141.241 417.375 141.288L417.463 140.292C416.961 140.248 416.456 140.175 415.948 140.074L415.752 141.055ZM420.649 141.215C421.746 141.067 422.81 140.797 423.825 140.419L423.476 139.482C422.529 139.835 421.537 140.086 420.515 140.224L420.649 141.215ZM426.748 138.943C427.664 138.346 428.513 137.65 429.278 136.867L428.564 136.168C427.85 136.898 427.057 137.548 426.202 138.105L426.748 138.943ZM431.297 134.29C431.867 133.369 432.34 132.378 432.699 131.331L431.754 131.006C431.419 131.981 430.978 132.905 430.447 133.764L431.297 134.29ZM433.412 128.134C433.47 127.598 433.5 127.052 433.5 126.498L432.5 126.498C432.5 127.015 432.472 127.525 432.417 128.026L433.412 128.134ZM433.5 126.498L433.5 125.06L432.5 125.06L432.5 126.498L433.5 126.498ZM433.5 122.186L433.5 119.311L432.5 119.311L432.5 122.186L433.5 122.186ZM433.5 116.437L433.5 115L432.5 115L432.5 116.437L433.5 116.437Z" fill="#A5A5A5"/>
</g>
<g filter="url(#filter0_d_480_4039)">
<rect x="389" y="66" width="88.9994" height="38" rx="8" fill="white"/>
<path d="M407.529 80.5455H408.674V86.8054C408.674 87.4517 408.522 88.0288 408.217 88.5366C407.915 89.0413 407.489 89.4399 406.938 89.7322C406.387 90.0215 405.741 90.1662 404.999 90.1662C404.258 90.1662 403.611 90.0215 403.06 89.7322C402.509 89.4399 402.082 89.0413 401.777 88.5366C401.475 88.0288 401.325 87.4517 401.325 86.8054V80.5455H402.469V86.7131C402.469 87.1747 402.571 87.5856 402.774 87.9457C402.977 88.3027 403.267 88.5843 403.642 88.7905C404.021 88.9936 404.473 89.0952 404.999 89.0952C405.526 89.0952 405.978 88.9936 406.357 88.7905C406.735 88.5843 407.024 88.3027 407.224 87.9457C407.428 87.5856 407.529 87.1747 407.529 86.7131V80.5455ZM416.131 82.9091C416.075 82.4413 415.851 82.0781 415.457 81.8196C415.063 81.5611 414.58 81.4318 414.007 81.4318C413.589 81.4318 413.222 81.4995 412.908 81.6349C412.598 81.7704 412.354 81.9566 412.179 82.1935C412.007 82.4305 411.921 82.6998 411.921 83.0014C411.921 83.2538 411.981 83.4708 412.101 83.6523C412.224 83.8308 412.381 83.9801 412.571 84.1001C412.762 84.2171 412.962 84.314 413.172 84.391C413.381 84.4648 413.573 84.5249 413.749 84.571L414.709 84.8295C414.955 84.8942 415.229 84.9834 415.531 85.0973C415.835 85.2112 416.126 85.3666 416.403 85.5636C416.683 85.7575 416.914 86.0067 417.096 86.3114C417.277 86.6161 417.368 86.9901 417.368 87.4332C417.368 87.9441 417.234 88.4058 416.966 88.8182C416.702 89.2306 416.314 89.5584 415.803 89.8015C415.295 90.0446 414.678 90.1662 413.952 90.1662C413.275 90.1662 412.688 90.0569 412.193 89.8384C411.7 89.6199 411.313 89.3152 411.03 88.9244C410.749 88.5335 410.591 88.0795 410.554 87.5625H411.736C411.767 87.9195 411.887 88.215 412.096 88.4489C412.308 88.6797 412.576 88.852 412.899 88.9659C413.225 89.0767 413.576 89.1321 413.952 89.1321C414.389 89.1321 414.781 89.0613 415.129 88.9197C415.477 88.7751 415.752 88.575 415.955 88.3196C416.158 88.0611 416.26 87.7595 416.26 87.4148C416.26 87.1009 416.172 86.8454 415.997 86.6484C415.821 86.4515 415.591 86.2914 415.304 86.1683C415.018 86.0452 414.709 85.9375 414.377 85.8452L413.213 85.5128C412.475 85.3004 411.89 84.9973 411.459 84.6033C411.028 84.2094 410.813 83.6939 410.813 83.0568C410.813 82.5275 410.956 82.0658 411.242 81.6719C411.531 81.2749 411.919 80.9671 412.405 80.7486C412.895 80.527 413.441 80.4162 414.044 80.4162C414.653 80.4162 415.195 80.5254 415.669 80.744C416.143 80.9594 416.519 81.2549 416.796 81.6303C417.076 82.0058 417.223 82.4321 417.239 82.9091H416.131ZM419.25 90V80.5455H424.956V81.5611H420.395V84.7557H424.661V85.7713H420.395V88.9844H425.03V90H419.25ZM431.064 90H429.864L433.335 80.5455H434.517L437.989 90H436.788L433.963 82.0412H433.889L431.064 90ZM431.507 86.3068H436.345V87.3224H431.507V86.3068ZM439.461 90V80.5455H442.656C443.398 80.5455 444.004 80.6793 444.475 80.9471C444.949 81.2118 445.3 81.5703 445.527 82.0227C445.755 82.4751 445.869 82.9799 445.869 83.5369C445.869 84.094 445.755 84.6003 445.527 85.0558C445.303 85.5112 444.955 85.8744 444.484 86.1452C444.013 86.413 443.41 86.5469 442.674 86.5469H440.385V85.5312H442.637C443.145 85.5312 443.553 85.4435 443.861 85.2681C444.169 85.0927 444.392 84.8557 444.53 84.5572C444.672 84.2556 444.743 83.9155 444.743 83.5369C444.743 83.1584 444.672 82.8198 444.53 82.5213C444.392 82.2228 444.167 81.9889 443.856 81.8196C443.545 81.6473 443.133 81.5611 442.619 81.5611H440.606V90H439.461ZM447.713 90V80.5455H450.908C451.65 80.5455 452.256 80.6793 452.727 80.9471C453.201 81.2118 453.552 81.5703 453.779 82.0227C454.007 82.4751 454.121 82.9799 454.121 83.5369C454.121 84.094 454.007 84.6003 453.779 85.0558C453.555 85.5112 453.207 85.8744 452.736 86.1452C452.265 86.413 451.662 86.5469 450.926 86.5469H448.637V85.5312H450.889C451.397 85.5312 451.805 85.4435 452.113 85.2681C452.421 85.0927 452.644 84.8557 452.782 84.5572C452.924 84.2556 452.994 83.9155 452.994 83.5369C452.994 83.1584 452.924 82.8198 452.782 82.5213C452.644 82.2228 452.419 81.9889 452.108 81.8196C451.797 81.6473 451.385 81.5611 450.871 81.5611H448.858V90H447.713Z" fill="#696969"/>
<circle cx="463.999" cy="85" r="3" fill="#2BD202"/>
</g>
</g>
<defs>
<filter id="filter0_d_480_4039" x="384" y="62" width="98.9994" height="48" filterUnits="userSpaceOnUse" color-interpolation-filters="sRGB">
<feFlood flood-opacity="0" result="BackgroundImageFix"/>
<feColorMatrix in="SourceAlpha" type="matrix" values="0 0 0 0 0 0 0 0 0 0 0 0 0 0 0 0 0 0 127 0" result="hardAlpha"/>
<feOffset dy="1"/>
<feGaussianBlur stdDeviation="2.5"/>
<feComposite in2="hardAlpha" operator="out"/>
<feColorMatrix type="matrix" values="0 0 0 0 0.0916667 0 0 0 0 0.0916667 0 0 0 0 0.0916667 0 0 0 0.15 0"/>
<feBlend mode="normal" in2="BackgroundImageFix" result="effect1_dropShadow_480_4039"/>
<feBlend mode="normal" in="SourceGraphic" in2="effect1_dropShadow_480_4039" result="shape"/>
</filter>
<clipPath id="clip0_480_4039">
<rect width="580" height="143" fill="white"/>
</clipPath>
</defs>
</svg>
