<svg width="580" height="168" viewBox="0 0 580 168" fill="none" xmlns="http://www.w3.org/2000/svg">
<g clip-path="url(#clip0_480_4040)">
<mask id="mask0_480_4040" style="mask-type:alpha" maskUnits="userSpaceOnUse" x="0" y="-88" width="580" height="256">
<rect y="-88" width="580" height="256" fill="#D9D9D9"/>
</mask>
<g mask="url(#mask0_480_4040)">
<mask id="mask1_480_4040" style="mask-type:alpha" maskUnits="userSpaceOnUse" x="0" y="-88" width="580" height="256">
<rect y="-88" width="580" height="256" fill="#FAFAFA"/>
</mask>
<g mask="url(#mask1_480_4040)">
<path d="M39.4149 27V17.5455H45.0839V18.5611H40.5598V21.7557H44.6592V22.7713H40.5598V27H39.4149ZM48.1897 17.5455V27H47.0448V17.5455H48.1897ZM57.9824 17.5455V27H56.8744L51.7224 19.5767H51.6301V27H50.4852V17.5455H51.5932L56.7636 24.9872H56.856V17.5455H57.9824ZM63.1909 27H60.2733V17.5455H63.3202C64.2373 17.5455 65.0221 17.7347 65.6746 18.1133C66.327 18.4888 66.8272 19.0289 67.1749 19.7337C67.5227 20.4354 67.6966 21.2756 67.6966 22.2543C67.6966 23.2391 67.5212 24.087 67.1703 24.7979C66.8195 25.5058 66.3086 26.0505 65.6377 26.4322C64.9667 26.8107 64.1511 27 63.1909 27ZM61.4182 25.9844H63.1171C63.8988 25.9844 64.5466 25.8336 65.0606 25.532C65.5746 25.2304 65.9577 24.801 66.2101 24.244C66.4625 23.6869 66.5886 23.0237 66.5886 22.2543C66.5886 21.491 66.464 20.8339 66.2147 20.283C65.9654 19.729 65.593 19.3043 65.0975 19.0089C64.602 18.7103 63.985 18.5611 63.2463 18.5611H61.4182V25.9844ZM73.6611 27H72.4608L75.9324 17.5455H77.1142L80.5858 27H79.3855L76.5602 19.0412H76.4864L73.6611 27ZM74.1043 23.3068H78.9423V24.3224H74.1043V23.3068ZM85.7147 27V17.5455H88.9093C89.6479 17.5455 90.2542 17.6716 90.7282 17.924C91.2022 18.1733 91.553 18.5165 91.7808 18.9535C92.0085 19.3905 92.1224 19.8875 92.1224 20.4446C92.1224 21.0017 92.0085 21.4956 91.7808 21.9265C91.553 22.3574 91.2037 22.6959 90.7328 22.9421C90.2619 23.1853 89.6603 23.3068 88.9278 23.3068H86.3426V22.2727H88.8908C89.3956 22.2727 89.8018 22.1989 90.1096 22.0511C90.4204 21.9034 90.6451 21.6941 90.7836 21.4233C90.9252 21.1494 90.996 20.8232 90.996 20.4446C90.996 20.0661 90.9252 19.7352 90.7836 19.4521C90.642 19.1689 90.4158 18.9504 90.105 18.7965C89.7941 18.6396 89.3833 18.5611 88.8724 18.5611H86.8596V27H85.7147ZM90.165 22.7528L92.4917 27H91.1622L88.8724 22.7528H90.165ZM94.0301 27V17.5455H99.7361V18.5611H95.175V21.7557H99.4407V22.7713H95.175V25.9844H99.81V27H94.0301ZM101.8 27V17.5455H104.994C105.736 17.5455 106.342 17.6793 106.813 17.9471C107.287 18.2118 107.638 18.5703 107.866 19.0227C108.093 19.4751 108.207 19.9799 108.207 20.5369C108.207 21.094 108.093 21.6003 107.866 22.0558C107.641 22.5112 107.293 22.8744 106.822 23.1452C106.352 23.413 105.748 23.5469 105.013 23.5469H102.723V22.5312H104.976C105.484 22.5312 105.891 22.4435 106.199 22.2681C106.507 22.0927 106.73 21.8557 106.869 21.5572C107.01 21.2556 107.081 20.9155 107.081 20.5369C107.081 20.1584 107.01 19.8198 106.869 19.5213C106.73 19.2228 106.505 18.9889 106.195 18.8196C105.884 18.6473 105.471 18.5611 104.957 18.5611H102.945V27H101.8ZM118.029 22.2727C118.029 23.2699 117.849 24.1316 117.489 24.858C117.129 25.5843 116.635 26.1444 116.007 26.5384C115.379 26.9323 114.662 27.1293 113.856 27.1293C113.049 27.1293 112.332 26.9323 111.704 26.5384C111.076 26.1444 110.583 25.5843 110.222 24.858C109.862 24.1316 109.682 23.2699 109.682 22.2727C109.682 21.2756 109.862 20.4138 110.222 19.6875C110.583 18.9612 111.076 18.401 111.704 18.0071C112.332 17.6132 113.049 17.4162 113.856 17.4162C114.662 17.4162 115.379 17.6132 116.007 18.0071C116.635 18.401 117.129 18.9612 117.489 19.6875C117.849 20.4138 118.029 21.2756 118.029 22.2727ZM116.921 22.2727C116.921 21.4541 116.784 20.7631 116.51 20.1999C116.239 19.6367 115.871 19.2105 115.407 18.9212C114.945 18.6319 114.428 18.4872 113.856 18.4872C113.283 18.4872 112.765 18.6319 112.3 18.9212C111.838 19.2105 111.47 19.6367 111.197 20.1999C110.926 20.7631 110.79 21.4541 110.79 22.2727C110.79 23.0914 110.926 23.7823 111.197 24.3455C111.47 24.9087 111.838 25.335 112.3 25.6243C112.765 25.9136 113.283 26.0582 113.856 26.0582C114.428 26.0582 114.945 25.9136 115.407 25.6243C115.871 25.335 116.239 24.9087 116.51 24.3455C116.784 23.7823 116.921 23.0914 116.921 22.2727ZM125.124 19.9091C125.069 19.4413 124.844 19.0781 124.45 18.8196C124.056 18.5611 123.573 18.4318 123.001 18.4318C122.582 18.4318 122.216 18.4995 121.902 18.6349C121.591 18.7704 121.348 18.9566 121.173 19.1935C121 19.4305 120.914 19.6998 120.914 20.0014C120.914 20.2538 120.974 20.4708 121.094 20.6523C121.217 20.8308 121.374 20.9801 121.565 21.1001C121.756 21.2171 121.956 21.314 122.165 21.391C122.375 21.4648 122.567 21.5249 122.742 21.571L123.703 21.8295C123.949 21.8942 124.223 21.9834 124.524 22.0973C124.829 22.2112 125.12 22.3666 125.397 22.5636C125.677 22.7575 125.908 23.0067 126.089 23.3114C126.271 23.6161 126.362 23.9901 126.362 24.4332C126.362 24.9441 126.228 25.4058 125.96 25.8182C125.695 26.2306 125.308 26.5584 124.797 26.8015C124.289 27.0446 123.672 27.1662 122.945 27.1662C122.268 27.1662 121.682 27.0569 121.187 26.8384C120.694 26.6199 120.306 26.3152 120.023 25.9244C119.743 25.5335 119.585 25.0795 119.548 24.5625H120.73C120.76 24.9195 120.88 25.215 121.09 25.4489C121.302 25.6797 121.57 25.852 121.893 25.9659C122.219 26.0767 122.57 26.1321 122.945 26.1321C123.382 26.1321 123.775 26.0613 124.123 25.9197C124.47 25.7751 124.746 25.575 124.949 25.3196C125.152 25.0611 125.254 24.7595 125.254 24.4148C125.254 24.1009 125.166 23.8454 124.991 23.6484C124.815 23.4515 124.584 23.2914 124.298 23.1683C124.012 23.0452 123.703 22.9375 123.37 22.8452L122.207 22.5128C121.468 22.3004 120.883 21.9973 120.453 21.6033C120.022 21.2094 119.806 20.6939 119.806 20.0568C119.806 19.5275 119.949 19.0658 120.236 18.6719C120.525 18.2749 120.913 17.9671 121.399 17.7486C121.888 17.527 122.435 17.4162 123.038 17.4162C123.647 17.4162 124.189 17.5254 124.663 17.744C125.137 17.9594 125.512 18.2549 125.789 18.6303C126.069 19.0058 126.217 19.4321 126.232 19.9091H125.124ZM129.389 17.5455V27H128.244V17.5455H129.389ZM131.167 18.5611V17.5455H138.258V18.5611H135.285V27H134.14V18.5611H131.167ZM147.609 22.2727C147.609 23.2699 147.429 24.1316 147.069 24.858C146.709 25.5843 146.215 26.1444 145.587 26.5384C144.959 26.9323 144.242 27.1293 143.436 27.1293C142.629 27.1293 141.912 26.9323 141.284 26.5384C140.657 26.1444 140.163 25.5843 139.803 24.858C139.442 24.1316 139.262 23.2699 139.262 22.2727C139.262 21.2756 139.442 20.4138 139.803 19.6875C140.163 18.9612 140.657 18.401 141.284 18.0071C141.912 17.6132 142.629 17.4162 143.436 17.4162C144.242 17.4162 144.959 17.6132 145.587 18.0071C146.215 18.401 146.709 18.9612 147.069 19.6875C147.429 20.4138 147.609 21.2756 147.609 22.2727ZM146.501 22.2727C146.501 21.4541 146.364 20.7631 146.09 20.1999C145.819 19.6367 145.452 19.2105 144.987 18.9212C144.525 18.6319 144.008 18.4872 143.436 18.4872C142.863 18.4872 142.345 18.6319 141.88 18.9212C141.418 19.2105 141.051 19.6367 140.777 20.1999C140.506 20.7631 140.37 21.4541 140.37 22.2727C140.37 23.0914 140.506 23.7823 140.777 24.3455C141.051 24.9087 141.418 25.335 141.88 25.6243C142.345 25.9136 142.863 26.0582 143.436 26.0582C144.008 26.0582 144.525 25.9136 144.987 25.6243C145.452 25.335 145.819 24.9087 146.09 24.3455C146.364 23.7823 146.501 23.0914 146.501 22.2727ZM149.534 27V17.5455H152.729C153.467 17.5455 154.074 17.6716 154.548 17.924C155.021 18.1733 155.372 18.5165 155.6 18.9535C155.828 19.3905 155.942 19.8875 155.942 20.4446C155.942 21.0017 155.828 21.4956 155.6 21.9265C155.372 22.3574 155.023 22.6959 154.552 22.9421C154.081 23.1853 153.48 23.3068 152.747 23.3068H150.162V22.2727H152.71C153.215 22.2727 153.621 22.1989 153.929 22.0511C154.24 21.9034 154.464 21.6941 154.603 21.4233C154.745 21.1494 154.815 20.8232 154.815 20.4446C154.815 20.0661 154.745 19.7352 154.603 19.4521C154.461 19.1689 154.235 18.9504 153.924 18.7965C153.613 18.6396 153.203 18.5611 152.692 18.5611H150.679V27H149.534ZM153.984 22.7528L156.311 27H154.981L152.692 22.7528H153.984ZM156.72 17.5455H158.031L160.653 21.9588H160.764L163.386 17.5455H164.697L161.281 23.1037V27H160.136V23.1037L156.72 17.5455ZM170.979 17.5455V27H169.834V17.5455H170.979ZM180.771 17.5455V27H179.663L174.511 19.5767H174.419V27H173.274V17.5455H174.382L179.553 24.9872H179.645V17.5455H180.771ZM193.182 20.5C193.08 20.1892 192.946 19.9106 192.78 19.6644C192.617 19.4151 192.422 19.2028 192.194 19.0273C191.969 18.8519 191.714 18.718 191.427 18.6257C191.141 18.5334 190.827 18.4872 190.486 18.4872C189.926 18.4872 189.416 18.6319 188.958 18.9212C188.499 19.2105 188.134 19.6367 187.864 20.1999C187.593 20.7631 187.457 21.4541 187.457 22.2727C187.457 23.0914 187.594 23.7823 187.868 24.3455C188.142 24.9087 188.513 25.335 188.981 25.6243C189.448 25.9136 189.975 26.0582 190.56 26.0582C191.101 26.0582 191.578 25.9428 191.991 25.712C192.406 25.4781 192.729 25.1488 192.96 24.7241C193.194 24.2963 193.311 23.7931 193.311 23.2145L193.662 23.2884H190.818V22.2727H194.419V23.2884C194.419 24.067 194.253 24.7441 193.92 25.3196C193.591 25.8951 193.136 26.3414 192.554 26.6584C191.975 26.9723 191.31 27.1293 190.56 27.1293C189.722 27.1293 188.987 26.9323 188.353 26.5384C187.722 26.1444 187.23 25.5843 186.876 24.858C186.525 24.1316 186.349 23.2699 186.349 22.2727C186.349 21.5249 186.449 20.8524 186.649 20.2553C186.852 19.6552 187.139 19.1443 187.508 18.7227C187.877 18.301 188.314 17.9779 188.819 17.7532C189.324 17.5285 189.879 17.4162 190.486 17.4162C190.984 17.4162 191.449 17.4916 191.88 17.6424C192.314 17.7901 192.7 18.0009 193.039 18.2749C193.38 18.5457 193.665 18.8704 193.893 19.2489C194.12 19.6244 194.277 20.0414 194.364 20.5H193.182ZM197.525 17.5455V27H196.38V17.5455H197.525ZM199.303 18.5611V17.5455H206.394V18.5611H203.421V27H202.276V18.5611H199.303ZM208.161 27V17.5455H209.306V21.7557H214.347V17.5455H215.492V27H214.347V22.7713H209.306V27H208.161ZM223.989 17.5455H225.133V23.8054C225.133 24.4517 224.981 25.0288 224.676 25.5366C224.375 26.0413 223.949 26.4399 223.398 26.7322C222.847 27.0215 222.2 27.1662 221.459 27.1662C220.717 27.1662 220.071 27.0215 219.52 26.7322C218.969 26.4399 218.541 26.0413 218.236 25.5366C217.935 25.0288 217.784 24.4517 217.784 23.8054V17.5455H218.929V23.7131C218.929 24.1747 219.03 24.5856 219.234 24.9457C219.437 25.3027 219.726 25.5843 220.102 25.7905C220.48 25.9936 220.932 26.0952 221.459 26.0952C221.985 26.0952 222.437 25.9936 222.816 25.7905C223.195 25.5843 223.484 25.3027 223.684 24.9457C223.887 24.5856 223.989 24.1747 223.989 23.7131V17.5455ZM227.42 27V17.5455H230.725C231.384 17.5455 231.927 17.6593 232.355 17.8871C232.783 18.1117 233.101 18.4149 233.31 18.7965C233.52 19.1751 233.624 19.5952 233.624 20.0568C233.624 20.4631 233.552 20.7985 233.407 21.0632C233.266 21.3279 233.078 21.5372 232.844 21.6911C232.613 21.8449 232.362 21.9588 232.092 22.0327V22.125C232.381 22.1435 232.672 22.245 232.964 22.4297C233.257 22.6143 233.501 22.879 233.698 23.2237C233.895 23.5684 233.994 23.9901 233.994 24.4886C233.994 24.9626 233.886 25.3888 233.67 25.7674C233.455 26.146 233.115 26.446 232.65 26.6676C232.186 26.8892 231.581 27 230.836 27H227.42ZM228.565 25.9844H230.836C231.584 25.9844 232.115 25.8397 232.429 25.5504C232.746 25.258 232.904 24.9041 232.904 24.4886C232.904 24.1686 232.823 23.8731 232.659 23.6023C232.496 23.3284 232.264 23.1098 231.962 22.9467C231.661 22.7805 231.304 22.6974 230.891 22.6974H228.565V25.9844ZM228.565 21.7003H230.688C231.033 21.7003 231.344 21.6326 231.621 21.4972C231.901 21.3617 232.122 21.1709 232.286 20.9247C232.452 20.6785 232.535 20.3892 232.535 20.0568C232.535 19.6413 232.39 19.2889 232.101 18.9996C231.812 18.7073 231.353 18.5611 230.725 18.5611H228.565V21.7003Z" fill="#A5A5A5"/>
<path d="M158.192 119V109.545H161.386C162.128 109.545 162.734 109.679 163.205 109.947C163.679 110.212 164.03 110.57 164.258 111.023C164.486 111.475 164.599 111.98 164.599 112.537C164.599 113.094 164.486 113.6 164.258 114.056C164.033 114.511 163.685 114.874 163.214 115.145C162.744 115.413 162.14 115.547 161.405 115.547H159.115V114.531H161.368C161.876 114.531 162.283 114.444 162.591 114.268C162.899 114.093 163.122 113.856 163.261 113.557C163.402 113.256 163.473 112.915 163.473 112.537C163.473 112.158 163.402 111.82 163.261 111.521C163.122 111.223 162.897 110.989 162.587 110.82C162.276 110.647 161.863 110.561 161.349 110.561H159.337V119H158.192ZM172.648 109.545H173.793V115.805C173.793 116.452 173.641 117.029 173.336 117.537C173.035 118.041 172.608 118.44 172.057 118.732C171.506 119.022 170.86 119.166 170.118 119.166C169.377 119.166 168.73 119.022 168.18 118.732C167.629 118.44 167.201 118.041 166.896 117.537C166.595 117.029 166.444 116.452 166.444 115.805V109.545H167.589V115.713C167.589 116.175 167.69 116.586 167.893 116.946C168.096 117.303 168.386 117.584 168.761 117.79C169.14 117.994 169.592 118.095 170.118 118.095C170.645 118.095 171.097 117.994 171.476 117.79C171.854 117.584 172.144 117.303 172.344 116.946C172.547 116.586 172.648 116.175 172.648 115.713V109.545ZM175.562 110.561V109.545H182.653V110.561H179.68V119H178.535V110.561H175.562ZM188.077 119V109.545H189.221V117.984H193.616V119H188.077ZM196.534 109.545V119H195.389V109.545H196.534ZM206.327 109.545V119H205.219L200.067 111.577H199.974V119H198.829V109.545H199.937L205.108 116.987H205.2V109.545H206.327ZM208.618 119V109.545H209.762V114.236H209.873L214.12 109.545H215.616L211.646 113.811L215.616 119H214.231L210.944 114.605L209.762 115.935V119H208.618Z" fill="#A5A5A5"/>
<path d="M319.735 109.545V119H318.59V109.545H319.735ZM329.527 109.545V119H328.419L323.267 111.577H323.175V119H322.03V109.545H323.138L328.309 116.987H328.401V109.545H329.527ZM336.989 111.909C336.933 111.441 336.709 111.078 336.315 110.82C335.921 110.561 335.438 110.432 334.865 110.432C334.447 110.432 334.08 110.5 333.766 110.635C333.456 110.77 333.212 110.957 333.037 111.194C332.865 111.431 332.778 111.7 332.778 112.001C332.778 112.254 332.838 112.471 332.958 112.652C333.082 112.831 333.239 112.98 333.429 113.1C333.62 113.217 333.82 113.314 334.03 113.391C334.239 113.465 334.431 113.525 334.607 113.571L335.567 113.83C335.813 113.894 336.087 113.983 336.389 114.097C336.693 114.211 336.984 114.367 337.261 114.564C337.541 114.757 337.772 115.007 337.954 115.311C338.135 115.616 338.226 115.99 338.226 116.433C338.226 116.944 338.092 117.406 337.824 117.818C337.56 118.231 337.172 118.558 336.661 118.801C336.153 119.045 335.536 119.166 334.81 119.166C334.133 119.166 333.546 119.057 333.051 118.838C332.558 118.62 332.171 118.315 331.887 117.924C331.607 117.533 331.449 117.08 331.412 116.562H332.594C332.625 116.92 332.745 117.215 332.954 117.449C333.166 117.68 333.434 117.852 333.757 117.966C334.083 118.077 334.434 118.132 334.81 118.132C335.247 118.132 335.639 118.061 335.987 117.92C336.335 117.775 336.61 117.575 336.813 117.32C337.016 117.061 337.118 116.759 337.118 116.415C337.118 116.101 337.03 115.845 336.855 115.648C336.679 115.451 336.449 115.291 336.162 115.168C335.876 115.045 335.567 114.937 335.234 114.845L334.071 114.513C333.332 114.3 332.748 113.997 332.317 113.603C331.886 113.209 331.67 112.694 331.67 112.057C331.67 111.527 331.814 111.066 332.1 110.672C332.389 110.275 332.777 109.967 333.263 109.749C333.753 109.527 334.299 109.416 334.902 109.416C335.511 109.416 336.053 109.525 336.527 109.744C337.001 109.959 337.376 110.255 337.653 110.63C337.934 111.006 338.081 111.432 338.097 111.909H336.989ZM339.591 110.561V109.545H346.682V110.561H343.709V119H342.564V110.561H339.591ZM347.732 119H346.532L350.004 109.545H351.186L354.657 119H353.457L350.632 111.041H350.558L347.732 119ZM348.176 115.307H353.014V116.322H348.176V115.307ZM356.13 119V109.545H357.275V117.984H361.67V119H356.13ZM363.442 119V109.545H364.587V117.984H368.982V119H363.442ZM374.799 119H373.598L377.07 109.545H378.252L381.723 119H380.523L377.698 111.041H377.624L374.799 119ZM375.242 115.307H380.08V116.322H375.242V115.307ZM383.196 119V109.545H386.391C387.132 109.545 387.739 109.679 388.21 109.947C388.684 110.212 389.034 110.57 389.262 111.023C389.49 111.475 389.604 111.98 389.604 112.537C389.604 113.094 389.49 113.6 389.262 114.056C389.038 114.511 388.69 114.874 388.219 115.145C387.748 115.413 387.145 115.547 386.409 115.547H384.119V114.531H386.372C386.88 114.531 387.288 114.444 387.596 114.268C387.903 114.093 388.127 113.856 388.265 113.557C388.407 113.256 388.477 112.915 388.477 112.537C388.477 112.158 388.407 111.82 388.265 111.521C388.127 111.223 387.902 110.989 387.591 110.82C387.28 110.647 386.868 110.561 386.354 110.561H384.341V119H383.196ZM391.448 119V109.545H394.643C395.384 109.545 395.991 109.679 396.462 109.947C396.936 110.212 397.286 110.57 397.514 111.023C397.742 111.475 397.856 111.98 397.856 112.537C397.856 113.094 397.742 113.6 397.514 114.056C397.289 114.511 396.942 114.874 396.471 115.145C396 115.413 395.397 115.547 394.661 115.547H392.371V114.531H394.624C395.132 114.531 395.54 114.444 395.848 114.268C396.155 114.093 396.379 113.856 396.517 113.557C396.659 113.256 396.729 112.915 396.729 112.537C396.729 112.158 396.659 111.82 396.517 111.521C396.379 111.223 396.154 110.989 395.843 110.82C395.532 110.647 395.12 110.561 394.606 110.561H392.593V119H391.448Z" fill="#A5A5A5"/>
<path d="M498.101 138.938C497.906 138.743 497.589 138.743 497.394 138.938L494.212 142.12C494.017 142.316 494.017 142.632 494.212 142.827C494.407 143.023 494.724 143.023 494.919 142.827L497.747 139.999L500.576 142.827C500.771 143.023 501.088 143.023 501.283 142.827C501.478 142.632 501.478 142.316 501.283 142.12L498.101 138.938ZM467.404 161.18L467.65 160.745L467.404 161.18ZM473.453 163.432L473.355 163.922L473.453 163.432ZM480.597 164.857L480.695 164.366L480.597 164.857ZM411.293 148.302L411.206 147.809L411.293 148.302ZM459.233 156.545L458.986 156.98L459.233 156.545ZM381.371 147.29L381.263 147.779L381.371 147.29ZM405.721 149.289L405.634 148.796L405.721 149.289ZM388.843 148.938L388.736 149.426L388.843 148.938ZM359.53 128.669C359.7 129.145 359.883 129.614 360.076 130.077L360.999 129.692C360.812 129.244 360.636 128.79 360.47 128.331L359.53 128.669ZM361.379 132.801C361.86 133.69 362.384 134.55 362.949 135.379L363.775 134.817C363.23 134.015 362.723 133.184 362.258 132.325L361.379 132.801ZM364.771 137.787C365.419 138.559 366.105 139.297 366.826 139.998L367.523 139.281C366.826 138.604 366.163 137.89 365.537 137.144L364.771 137.787ZM369.093 141.992C369.881 142.617 370.701 143.203 371.55 143.747L372.089 142.905C371.269 142.379 370.477 141.813 369.715 141.209L369.093 141.992ZM374.17 145.246C375.065 145.7 375.986 146.11 376.929 146.474L377.288 145.541C376.377 145.189 375.487 144.793 374.622 144.354L374.17 145.246ZM379.796 147.417C380.281 147.549 380.77 147.67 381.263 147.779L381.478 146.802C381.001 146.697 380.529 146.58 380.061 146.452L379.796 147.417ZM381.263 147.779L383.131 148.191L383.346 147.214L381.478 146.802L381.263 147.779ZM386.868 149.014L388.736 149.426L388.951 148.449L387.083 148.038L386.868 149.014ZM388.736 149.426C389.202 149.529 389.67 149.624 390.139 149.711L390.322 148.728C389.864 148.643 389.407 148.55 388.951 148.449L388.736 149.426ZM392.97 150.144C393.919 150.257 394.871 150.339 395.824 150.39L395.877 149.392C394.946 149.342 394.016 149.261 393.089 149.151L392.97 150.144ZM398.687 150.45C399.641 150.438 400.595 150.396 401.548 150.322L401.471 149.325C400.54 149.397 399.607 149.439 398.675 149.45L398.687 150.45ZM404.394 150.008C404.867 149.94 405.338 149.864 405.809 149.781L405.634 148.796C405.174 148.878 404.714 148.952 404.252 149.018L404.394 150.008ZM405.809 149.781L407.201 149.534L407.027 148.55L405.634 148.796L405.809 149.781ZM409.987 149.041L411.38 148.794L411.206 147.809L409.813 148.056L409.987 149.041ZM411.38 148.794C411.886 148.704 412.393 148.62 412.899 148.542L412.746 147.554C412.232 147.633 411.719 147.718 411.206 147.809L411.38 148.794ZM415.952 148.136C416.974 148.022 417.997 147.931 419.02 147.862L418.953 146.865C417.915 146.935 416.878 147.027 415.842 147.142L415.952 148.136ZM422.097 147.722C423.124 147.697 424.151 147.694 425.176 147.714L425.195 146.714C424.155 146.694 423.114 146.697 422.072 146.722L422.097 147.722ZM428.253 147.839C429.279 147.903 430.302 147.989 431.322 148.097L431.428 147.103C430.393 146.993 429.355 146.906 428.316 146.841L428.253 147.839ZM434.377 148.488C435.393 148.64 436.405 148.814 437.413 149.01L437.603 148.028C436.581 147.829 435.555 147.653 434.526 147.499L434.377 148.488ZM440.422 149.662C441.42 149.901 442.414 150.162 443.401 150.444L443.676 149.482C442.675 149.196 441.667 148.932 440.655 148.69L440.422 149.662ZM446.344 151.354C447.317 151.678 448.284 152.023 449.244 152.39L449.601 151.456C448.627 151.084 447.646 150.734 446.66 150.405L446.344 151.354ZM452.097 153.55C453.038 153.957 453.971 154.385 454.897 154.833L455.333 153.933C454.394 153.478 453.448 153.045 452.493 152.632L452.097 153.55ZM457.639 156.235C458.09 156.478 458.539 156.727 458.986 156.98L459.48 156.111C459.026 155.853 458.571 155.602 458.113 155.355L457.639 156.235ZM458.986 156.98L460.008 157.56L460.501 156.69L459.48 156.111L458.986 156.98ZM462.05 158.718L464.093 159.877L464.586 159.007L462.544 157.848L462.05 158.718ZM466.136 161.035L467.157 161.614L467.65 160.745L466.629 160.165L466.136 161.035ZM467.157 161.614C467.639 161.888 468.131 162.142 468.632 162.375L469.055 161.469C468.578 161.246 468.109 161.005 467.65 160.745L467.157 161.614ZM471.742 163.533C472.274 163.684 472.812 163.814 473.355 163.922L473.551 162.941C473.034 162.838 472.521 162.715 472.015 162.571L471.742 163.533ZM473.355 163.922L475.141 164.278L475.337 163.298L473.551 162.941L473.355 163.922ZM478.714 164.991L480.5 165.347L480.695 164.366L478.909 164.01L478.714 164.991ZM480.5 165.347C481.043 165.456 481.584 165.533 482.122 165.581L482.21 164.585C481.709 164.54 481.203 164.468 480.695 164.366L480.5 165.347ZM485.396 165.507C486.493 165.36 487.557 165.09 488.572 164.711L488.223 163.774C487.276 164.127 486.285 164.379 485.262 164.516L485.396 165.507ZM491.495 163.236C492.412 162.638 493.261 161.942 494.026 161.16L493.311 160.461C492.597 161.19 491.804 161.84 490.949 162.398L491.495 163.236ZM496.044 158.582C496.614 157.661 497.087 156.67 497.447 155.623L496.501 155.298C496.166 156.274 495.725 157.197 495.194 158.056L496.044 158.582ZM498.159 152.427C498.217 151.89 498.247 151.344 498.247 150.79L497.247 150.79C497.247 151.308 497.219 151.818 497.165 152.318L498.159 152.427ZM498.247 150.79L498.247 149.353L497.247 149.353L497.247 150.79L498.247 150.79ZM498.247 146.478L498.247 143.604L497.247 143.604L497.247 146.478L498.247 146.478ZM498.247 140.729L498.247 139.292L497.247 139.292L497.247 140.729L498.247 140.729Z" fill="#A5A5A5"/>
</g>
<g filter="url(#filter0_d_480_4040)">
<rect x="455" y="88" width="88.9994" height="38" rx="8" fill="white"/>
<path d="M473.529 102.545H474.674V108.805C474.674 109.452 474.522 110.029 474.217 110.537C473.915 111.041 473.489 111.44 472.938 111.732C472.387 112.022 471.741 112.166 470.999 112.166C470.258 112.166 469.611 112.022 469.06 111.732C468.509 111.44 468.082 111.041 467.777 110.537C467.475 110.029 467.325 109.452 467.325 108.805V102.545H468.469V108.713C468.469 109.175 468.571 109.586 468.774 109.946C468.977 110.303 469.267 110.584 469.642 110.79C470.021 110.994 470.473 111.095 470.999 111.095C471.526 111.095 471.978 110.994 472.357 110.79C472.735 110.584 473.024 110.303 473.224 109.946C473.428 109.586 473.529 109.175 473.529 108.713V102.545ZM482.131 104.909C482.075 104.441 481.851 104.078 481.457 103.82C481.063 103.561 480.58 103.432 480.007 103.432C479.589 103.432 479.222 103.5 478.908 103.635C478.598 103.77 478.354 103.957 478.179 104.194C478.007 104.431 477.921 104.7 477.921 105.001C477.921 105.254 477.981 105.471 478.101 105.652C478.224 105.831 478.381 105.98 478.571 106.1C478.762 106.217 478.962 106.314 479.172 106.391C479.381 106.465 479.573 106.525 479.749 106.571L480.709 106.83C480.955 106.894 481.229 106.983 481.531 107.097C481.835 107.211 482.126 107.367 482.403 107.564C482.683 107.757 482.914 108.007 483.096 108.311C483.277 108.616 483.368 108.99 483.368 109.433C483.368 109.944 483.234 110.406 482.966 110.818C482.702 111.231 482.314 111.558 481.803 111.801C481.295 112.045 480.678 112.166 479.952 112.166C479.275 112.166 478.688 112.057 478.193 111.838C477.7 111.62 477.313 111.315 477.03 110.924C476.749 110.533 476.591 110.08 476.554 109.562H477.736C477.767 109.92 477.887 110.215 478.096 110.449C478.308 110.68 478.576 110.852 478.899 110.966C479.225 111.077 479.576 111.132 479.952 111.132C480.389 111.132 480.781 111.061 481.129 110.92C481.477 110.775 481.752 110.575 481.955 110.32C482.158 110.061 482.26 109.759 482.26 109.415C482.26 109.101 482.172 108.845 481.997 108.648C481.821 108.451 481.591 108.291 481.304 108.168C481.018 108.045 480.709 107.937 480.377 107.845L479.213 107.513C478.475 107.3 477.89 106.997 477.459 106.603C477.028 106.209 476.813 105.694 476.813 105.057C476.813 104.527 476.956 104.066 477.242 103.672C477.531 103.275 477.919 102.967 478.405 102.749C478.895 102.527 479.441 102.416 480.044 102.416C480.653 102.416 481.195 102.525 481.669 102.744C482.143 102.959 482.519 103.255 482.796 103.63C483.076 104.006 483.223 104.432 483.239 104.909H482.131ZM485.25 112V102.545H490.956V103.561H486.395V106.756H490.661V107.771H486.395V110.984H491.03V112H485.25ZM497.064 112H495.864L499.335 102.545H500.517L503.989 112H502.788L499.963 104.041H499.889L497.064 112ZM497.507 108.307H502.345V109.322H497.507V108.307ZM505.461 112V102.545H508.656C509.398 102.545 510.004 102.679 510.475 102.947C510.949 103.212 511.3 103.57 511.527 104.023C511.755 104.475 511.869 104.98 511.869 105.537C511.869 106.094 511.755 106.6 511.527 107.056C511.303 107.511 510.955 107.874 510.484 108.145C510.013 108.413 509.41 108.547 508.674 108.547H506.385V107.531H508.637C509.145 107.531 509.553 107.444 509.861 107.268C510.169 107.093 510.392 106.856 510.53 106.557C510.672 106.256 510.743 105.915 510.743 105.537C510.743 105.158 510.672 104.82 510.53 104.521C510.392 104.223 510.167 103.989 509.856 103.82C509.545 103.647 509.133 103.561 508.619 103.561H506.606V112H505.461ZM513.713 112V102.545H516.908C517.65 102.545 518.256 102.679 518.727 102.947C519.201 103.212 519.552 103.57 519.779 104.023C520.007 104.475 520.121 104.98 520.121 105.537C520.121 106.094 520.007 106.6 519.779 107.056C519.555 107.511 519.207 107.874 518.736 108.145C518.265 108.413 517.662 108.547 516.926 108.547H514.637V107.531H516.889C517.397 107.531 517.805 107.444 518.113 107.268C518.421 107.093 518.644 106.856 518.782 106.557C518.924 106.256 518.994 105.915 518.994 105.537C518.994 105.158 518.924 104.82 518.782 104.521C518.644 104.223 518.419 103.989 518.108 103.82C517.797 103.647 517.385 103.561 516.871 103.561H514.858V112H513.713Z" fill="#696969"/>
<circle cx="529.999" cy="107" r="3" fill="#2BD202"/>
</g>
<path d="M131.5 41C131.5 40.7238 131.276 40.5 131 40.5C130.724 40.5 130.5 40.7238 130.5 41L131.5 41ZM186.646 96.3536C186.842 96.5488 187.158 96.5488 187.353 96.3536L190.535 93.1716C190.731 92.9763 190.731 92.6597 190.535 92.4645C190.34 92.2692 190.024 92.2692 189.828 92.4645L187 95.2929L184.172 92.4645C183.976 92.2692 183.66 92.2692 183.464 92.4645C183.269 92.6597 183.269 92.9763 183.464 93.1716L186.646 96.3536ZM131 78.5747L131.5 78.5747L131 78.5747ZM152.969 81.9348L153.446 82.0842L152.969 81.9348ZM170.338 63.3737L170.239 62.8837L170.338 63.3737ZM167.449 63.9588L167.548 64.4488L167.449 63.9588ZM130.5 41L130.5 42.5656L131.5 42.5656L131.5 41L130.5 41ZM130.5 45.6968L130.5 48.828L131.5 48.828L131.5 45.6968L130.5 45.6968ZM130.5 51.9592L130.5 55.0905L131.5 55.0905L131.5 51.9592L130.5 51.9592ZM130.5 58.2217L130.5 61.3529L131.5 61.3529L131.5 58.2217L130.5 58.2217ZM130.5 64.4841L130.5 67.6154L131.5 67.6154L131.5 64.4841L130.5 64.4841ZM130.5 70.7466L130.5 73.8778L131.5 73.8778L131.5 70.7466L130.5 70.7466ZM130.5 77.009L130.5 78.5747L131.5 78.5747L131.5 77.009L130.5 77.009ZM130.5 78.5747C130.5 79.094 130.534 79.6056 130.599 80.1076L131.591 79.9782C131.531 79.5191 131.5 79.0506 131.5 78.5747L130.5 78.5747ZM131.391 83.0692C131.787 84.024 132.305 84.9151 132.926 85.7228L133.719 85.1135C133.151 84.3742 132.677 83.5591 132.315 82.6862L131.391 83.0692ZM135.093 87.89C135.901 88.5107 136.792 89.0289 137.747 89.4248L138.13 88.5011C137.257 88.1391 136.442 87.6651 135.702 87.097L135.093 87.89ZM140.708 90.2167C141.21 90.2822 141.722 90.3159 142.241 90.3159L142.241 89.3159C141.765 89.3159 141.297 89.285 140.838 89.2251L140.708 90.2167ZM142.241 90.3159C142.869 90.3159 143.488 90.2661 144.093 90.1695L143.936 89.182C143.382 89.2703 142.816 89.3159 142.241 89.3159L142.241 90.3159ZM147.614 89.0152C148.718 88.4465 149.726 87.7059 150.599 86.8221L149.887 86.1195C149.089 86.9281 148.166 87.6058 147.156 88.1261L147.614 89.0152ZM152.752 83.808C153.026 83.2588 153.258 82.6831 153.446 82.0842L152.491 81.7853C152.32 82.3336 152.107 82.8604 151.857 83.3626L152.752 83.808ZM153.446 82.0842L153.983 80.3685L153.029 80.0696L152.491 81.7853L153.446 82.0842ZM155.058 76.9369L155.595 75.2211L154.641 74.9222L154.104 76.638L155.058 76.9369ZM155.595 75.2211C155.737 74.7708 155.897 74.3297 156.075 73.8988L155.151 73.5164C154.961 73.9747 154.791 74.4436 154.641 74.9222L155.595 75.2211ZM157.376 71.4087C157.884 70.616 158.461 69.8733 159.097 69.1881L158.365 68.5076C157.688 69.2361 157.075 70.0258 156.534 70.8686L157.376 71.4087ZM161.185 67.307C161.932 66.7451 162.73 66.2485 163.572 65.8247L163.122 64.9316C162.227 65.3822 161.378 65.9103 160.584 66.5077L161.185 67.307ZM166.183 64.7888C166.63 64.6561 167.085 64.5425 167.548 64.4488L167.349 63.4687C166.858 63.5683 166.374 63.6891 165.898 63.8302L166.183 64.7888ZM167.548 64.4488L168.27 64.3026L168.072 63.3225L167.349 63.4687L167.548 64.4488ZM169.715 64.01L170.437 63.8638L170.239 62.8837L169.516 63.0299L169.715 64.01ZM170.437 63.8638C170.93 63.7641 171.42 63.6927 171.906 63.6482L171.815 62.6524C171.292 62.7001 170.767 62.7768 170.239 62.8837L170.437 63.8638ZM174.866 63.7068C175.857 63.838 176.82 64.0798 177.738 64.4204L178.086 63.4827C177.098 63.1166 176.064 62.8566 174.997 62.7154L174.866 63.7068ZM180.384 65.7502C181.214 66.2893 181.984 66.9186 182.677 67.6255L183.391 66.9253C182.647 66.1662 181.82 65.4904 180.929 64.9115L180.384 65.7502ZM184.506 69.9548C185.022 70.7875 185.45 71.6826 185.775 72.6285L186.721 72.3032C186.371 71.2857 185.91 70.3231 185.356 69.428L184.506 69.9548ZM186.42 75.5177C186.473 76.0033 186.5 76.4978 186.5 77L187.5 77C187.5 76.4616 187.471 75.9309 187.414 75.4094L186.42 75.5177ZM186.5 77L186.5 78.5833L187.5 78.5833L187.5 77L186.5 77ZM186.5 81.75L186.5 84.9167L187.5 84.9167L187.5 81.75L186.5 81.75ZM186.5 88.0833L186.5 91.25L187.5 91.25L187.5 88.0833L186.5 88.0833ZM186.5 94.4167L186.5 96L187.5 96L187.5 94.4167L186.5 94.4167Z" fill="#A5A5A5"/>
<path d="M404.706 42.1968C404.922 42.0245 404.957 41.7099 404.785 41.4941C404.613 41.2783 404.298 41.243 404.082 41.4153L404.706 42.1968ZM356.646 100.853C356.842 101.049 357.158 101.049 357.354 100.853L360.536 97.6714C360.731 97.4762 360.731 97.1596 360.536 96.9643C360.34 96.7691 360.024 96.7691 359.828 96.9643L357 99.7927L354.172 96.9643C353.976 96.769 353.66 96.769 353.465 96.9642C353.269 97.1595 353.269 97.4761 353.465 97.6714L356.646 100.853ZM357 93.9999L357.5 93.9999L357.5 93.9999L357 93.9999ZM384.087 66.014L383.982 66.5028L384.087 66.014ZM370.193 63.0275L370.088 63.5163L370.193 63.0275ZM357.5 100.5L357.5 98.8748L356.5 98.8748L356.5 100.5L357.5 100.5ZM357.5 95.6249L357.5 93.9999L356.5 93.9999L356.5 95.6248L357.5 95.6249ZM357.5 93.9999L357.5 93.5083L356.5 93.5083L356.5 93.9999L357.5 93.9999ZM357.5 92.5251L357.5 92.0336L356.5 92.0336L356.5 92.5251L357.5 92.5251ZM357.5 92.0336C357.5 91.3527 357.453 90.6751 357.361 90.0053L356.37 90.1417C356.456 90.7664 356.5 91.3985 356.5 92.0336L357.5 92.0336ZM356.265 86.0997C355.995 85.4797 355.682 84.8768 355.328 84.2953L354.474 84.8157C354.805 85.358 355.096 85.9205 355.348 86.4987L356.265 86.0997ZM355.328 84.2953C355.089 83.9028 354.872 83.507 354.676 83.1088L353.779 83.5496C353.988 83.9751 354.219 84.3975 354.474 84.8157L355.328 84.2953ZM353.725 80.5891C353.486 79.7041 353.342 78.8165 353.287 77.9362L352.289 77.9992C352.348 78.9456 352.503 79.8994 352.759 80.8497L353.725 80.5891ZM353.387 75.2496C353.511 74.3544 353.723 73.4779 354.016 72.6317L353.071 72.3049C352.757 73.2115 352.53 74.1516 352.397 75.1126L353.387 75.2496ZM355.136 70.1805C355.586 69.4008 356.109 68.6642 356.697 67.9827L355.94 67.3294C355.311 68.0586 354.751 68.8466 354.27 69.6807L355.136 70.1805ZM358.643 66.1182C359.345 65.5632 360.103 65.0743 360.908 64.6626L360.452 63.7724C359.588 64.2143 358.776 64.7389 358.023 65.3334L358.643 66.1182ZM363.411 63.6827C364.261 63.4453 365.146 63.2886 366.06 63.2227L365.989 62.2253C365.007 62.296 364.055 62.4644 363.142 62.7197L363.411 63.6827ZM368.753 63.2917C369.193 63.3451 369.638 63.4197 370.088 63.5163L370.298 62.5386C369.819 62.4357 369.344 62.3561 368.874 62.299L368.753 63.2917ZM370.088 63.5163L371.825 63.8896L372.035 62.9119L370.298 62.5386L370.088 63.5163ZM375.298 64.6362L378.772 65.3829L378.982 64.4052L375.508 63.6586L375.298 64.6362ZM382.245 66.1295L383.982 66.5028L384.192 65.5252L382.455 65.1518L382.245 66.1295ZM383.982 66.5028C384.42 66.5969 384.854 66.6359 385.278 66.6249L385.252 65.6253C384.907 65.6342 384.552 65.6026 384.192 65.5252L383.982 66.5028ZM387.773 65.9347C388.534 65.5069 389.184 64.9005 389.664 64.1717L388.829 63.6218C388.436 64.2174 387.904 64.7135 387.283 65.0631L387.773 65.9347ZM390.526 61.7308C390.567 61.3082 390.558 60.8724 390.495 60.4293L389.505 60.5707C389.557 60.9353 389.564 61.2915 389.531 61.6352L390.526 61.7308ZM390.496 60.562C390.548 60.1492 390.613 59.7395 390.69 59.3333L389.708 59.1457C389.626 59.5729 389.558 60.0039 389.504 60.438L390.496 60.562ZM391.313 56.9264C391.572 56.1367 391.882 55.3661 392.239 54.6193L391.337 54.1876C390.962 54.9731 390.636 55.7836 390.363 56.6142L391.313 56.9264ZM393.455 52.4502C393.905 51.7554 394.4 51.0889 394.938 50.4552L394.176 49.808C393.61 50.4746 393.089 51.1756 392.616 51.9063L393.455 52.4502ZM396.666 48.6673C396.972 48.3891 397.287 48.1199 397.613 47.8603L396.989 47.0789C396.647 47.3518 396.315 47.6349 395.993 47.9276L396.666 48.6673ZM397.613 47.8603L398.499 47.1524L397.875 46.3709L396.989 47.0789L397.613 47.8603ZM400.273 45.7365L402.046 44.3206L401.422 43.5391L399.649 44.955L400.273 45.7365ZM403.819 42.9047L404.706 42.1968L404.082 41.4153L403.195 42.1232L403.819 42.9047Z" fill="#A5A5A5"/>
<path d="M185.894 129.806C185.894 129.53 185.67 129.306 185.394 129.306C185.118 129.306 184.894 129.53 184.894 129.806L185.894 129.806ZM406.646 17.3534C406.842 17.5487 407.158 17.5487 407.354 17.3534L410.536 14.1714C410.731 13.9762 410.731 13.6596 410.536 13.4643C410.34 13.2691 410.024 13.2691 409.828 13.4643L407 16.2927L404.172 13.4643C403.976 13.2691 403.66 13.2691 403.464 13.4643C403.269 13.6596 403.269 13.9762 403.464 14.1714L406.646 17.3534ZM229.5 148.5L229.839 148.867L229.852 148.855L229.865 148.842L229.5 148.5ZM385.5 0.999818L385.5 0.499818L385.334 0.499818L385.201 0.598701L385.5 0.999818ZM248.499 103.055L248.992 102.975L248.499 103.055ZM248.566 103.465L248.072 103.545L248.566 103.465ZM237.423 140.049L237.787 140.391L237.423 140.049ZM293.012 41.9877L293.366 42.3413L293.012 41.9877ZM228.154 149.742L228.494 150.109L228.154 149.742ZM279.984 55.0159L280.338 55.3695L279.984 55.0159ZM269.849 62.3769L269.622 61.9313L269.849 62.3769ZM395.5 0.999816L395.5 1.49982L395.5 0.999816ZM345.46 15.6093L345.497 15.1107L345.46 15.6093ZM378.915 5.90005L378.617 5.49894L378.915 5.90005ZM323.43 13.9571L323.393 14.4557L323.43 13.9571ZM184.894 129.806L184.894 130.109L185.894 130.109L185.894 129.806L184.894 129.806ZM184.894 130.717L184.894 131.02L185.894 131.02L185.894 130.717L184.894 130.717ZM184.894 131.02C184.894 131.544 184.91 132.064 184.941 132.582L185.939 132.522C185.909 132.024 185.894 131.524 185.894 131.02L184.894 131.02ZM185.315 135.682C185.502 136.712 185.751 137.724 186.058 138.714L187.013 138.418C186.718 137.466 186.479 136.493 186.298 135.502L185.315 135.682ZM187.161 141.635C187.588 142.588 188.07 143.512 188.606 144.403L189.463 143.888C188.948 143.031 188.484 142.142 188.074 141.227L187.161 141.635ZM190.373 146.978C191.011 147.798 191.7 148.582 192.435 149.322L193.144 148.618C192.438 147.906 191.776 147.153 191.162 146.363L190.373 146.978ZM194.763 151.403C195.576 152.045 196.431 152.642 197.325 153.188L197.846 152.334C196.987 151.81 196.165 151.236 195.383 150.618L194.763 151.403ZM200.082 154.652C200.554 154.867 201.034 155.069 201.522 155.258L201.882 154.325C201.413 154.144 200.951 153.949 200.497 153.742L200.082 154.652ZM201.522 155.258C201.974 155.432 202.429 155.593 202.886 155.741L203.194 154.789C202.754 154.647 202.317 154.492 201.882 154.325L201.522 155.258ZM205.683 156.476C206.632 156.67 207.587 156.809 208.543 156.895L208.633 155.899C207.714 155.816 206.795 155.682 205.882 155.496L205.683 156.476ZM211.433 156.993C212.399 156.972 213.361 156.897 214.316 156.77L214.184 155.779C213.266 155.901 212.34 155.973 211.412 155.994L211.433 156.993ZM217.156 156.228C218.091 155.995 219.013 155.71 219.919 155.374L219.571 154.436C218.7 154.759 217.813 155.033 216.914 155.257L217.156 156.228ZM222.569 154.218C223.427 153.785 224.263 153.304 225.075 152.774L224.528 151.937C223.748 152.446 222.944 152.909 222.119 153.325L222.569 154.218ZM227.404 151.061C227.774 150.755 228.138 150.438 228.494 150.109L227.815 149.375C227.473 149.691 227.124 149.996 226.767 150.29L227.404 151.061ZM228.494 150.109L228.83 149.799L228.152 149.064L227.815 149.375L228.494 150.109ZM229.503 149.178L229.839 148.867L229.161 148.133L228.824 148.443L229.503 149.178ZM229.865 148.842L230.855 147.786L230.126 147.102L229.135 148.158L229.865 148.842ZM232.836 145.673L234.816 143.56L234.087 142.876L232.106 144.989L232.836 145.673ZM236.797 141.447L237.787 140.391L237.058 139.707L236.068 140.764L236.797 141.447ZM237.787 140.391C238.114 140.042 238.435 139.689 238.749 139.331L237.998 138.671C237.691 139.021 237.377 139.366 237.058 139.707L237.787 140.391ZM240.566 137.12C241.149 136.362 241.705 135.586 242.234 134.795L241.403 134.239C240.886 135.012 240.343 135.77 239.773 136.511L240.566 137.12ZM243.747 132.367C244.226 131.54 244.676 130.698 245.098 129.844L244.202 129.401C243.789 130.236 243.349 131.058 242.882 131.866L243.747 132.367ZM246.281 127.239C246.648 126.357 246.985 125.464 247.292 124.562L246.345 124.239C246.045 125.121 245.716 125.994 245.358 126.855L246.281 127.239ZM248.126 121.824C248.374 120.904 248.592 119.974 248.779 119.038L247.799 118.842C247.615 119.757 247.402 120.665 247.16 121.564L248.126 121.824ZM249.249 116.216C249.375 115.271 249.47 114.322 249.534 113.368L248.536 113.301C248.474 114.233 248.381 115.161 248.258 116.084L249.249 116.216ZM249.632 110.509C249.633 109.557 249.604 108.603 249.543 107.649L248.545 107.712C248.604 108.645 248.633 109.577 248.632 110.507L249.632 110.509ZM249.267 104.8C249.205 104.328 249.136 103.856 249.059 103.384L248.072 103.545C248.147 104.006 248.215 104.468 248.275 104.929L249.267 104.8ZM249.059 103.384L249.042 103.282L248.055 103.443L248.072 103.545L249.059 103.384ZM249.009 103.077L248.992 102.975L248.005 103.136L248.022 103.238L249.009 103.077ZM248.992 102.975C248.91 102.473 248.839 101.97 248.777 101.466L247.785 101.587C247.848 102.105 247.921 102.621 248.005 103.136L248.992 102.975ZM248.531 98.4279C248.51 97.9203 248.5 97.4122 248.5 96.9039L247.5 96.904C247.5 97.4257 247.511 97.9473 247.532 98.4684L248.531 98.4279ZM248.5 96.9039C248.5 96.409 248.51 95.9156 248.529 95.4239L247.53 95.3847C247.51 95.8895 247.5 96.396 247.5 96.904L248.5 96.9039ZM248.761 92.4733C248.877 91.4895 249.032 90.5146 249.223 89.5505L248.243 89.3554C248.046 90.3452 247.887 91.346 247.768 92.3559L248.761 92.4733ZM249.914 86.6734C250.183 85.7216 250.488 84.7828 250.829 83.859L249.891 83.5127C249.541 84.461 249.228 85.4247 248.952 86.4018L249.914 86.6734ZM251.963 81.1253C252.376 80.2286 252.825 79.3491 253.307 78.4888L252.434 78C251.94 78.8831 251.479 79.7859 251.055 80.7063L251.963 81.1253ZM254.854 75.9658C255.402 75.146 255.982 74.3473 256.593 73.5719L255.808 72.9527C255.18 73.7487 254.585 74.5686 254.022 75.4102L254.854 75.9658ZM258.515 71.3217C259.184 70.5986 259.882 69.9005 260.608 69.2294L259.93 68.4949C259.184 69.1839 258.467 69.9006 257.781 70.6428L258.515 71.3217ZM262.859 67.3083C263.631 66.7 264.43 66.1199 265.253 65.5699L264.698 64.7382C263.852 65.3027 263.033 65.8983 262.24 66.5227L262.859 67.3083ZM267.778 64.0248C268.207 63.7845 268.643 63.552 269.084 63.3275L268.63 62.4363C268.177 62.6668 267.73 62.9054 267.29 63.1521L267.778 64.0248ZM269.084 63.3275L269.332 63.2012L268.878 62.3101L268.63 62.4363L269.084 63.3275ZM269.828 62.9487L270.076 62.8225L269.622 61.9313L269.374 62.0576L269.828 62.9487ZM270.076 62.8225C270.549 62.5815 271.017 62.3315 271.48 62.0725L270.991 61.1999C270.54 61.4525 270.084 61.6963 269.622 61.9313L270.076 62.8225ZM274.194 60.4101C275.077 59.8207 275.936 59.1967 276.77 58.5397L276.151 57.7543C275.337 58.3951 274.5 59.0036 273.639 59.5786L274.194 60.4101ZM279.19 56.4727C279.579 56.1128 279.962 55.745 280.338 55.3695L279.63 54.6624C279.264 55.0286 278.891 55.3873 278.511 55.7384L279.19 56.4727ZM280.338 55.3695L281.423 54.2838L280.716 53.5767L279.63 54.6624L280.338 55.3695ZM283.595 52.1124L285.766 49.9411L285.059 49.234L282.887 51.4053L283.595 52.1124ZM287.937 47.7697L290.109 45.5983L289.402 44.8912L287.23 47.0626L287.937 47.7697ZM292.28 43.427L293.366 42.3413L292.659 41.6342L291.573 42.7199L292.28 43.427ZM293.366 42.3413C293.739 41.9676 294.1 41.5822 294.447 41.1861L293.694 40.5274C293.362 40.907 293.017 41.2761 292.659 41.6342L293.366 42.3413ZM296.367 38.6736C296.951 37.7945 297.476 36.8776 297.938 35.929L297.039 35.4908C296.596 36.3997 296.094 37.2781 295.534 38.1203L296.367 38.6736ZM299.132 33.0005C299.298 32.5009 299.448 31.9949 299.581 31.4834L298.613 31.2318C298.486 31.7219 298.342 32.2066 298.183 32.6853L299.132 33.0005ZM299.581 31.4834C299.715 30.967 299.866 30.4588 300.034 29.9594L299.086 29.6416C298.911 30.1628 298.753 30.693 298.613 31.2318L299.581 31.4834ZM301.249 27.0266C301.725 26.0719 302.265 25.1588 302.861 24.2918L302.037 23.7252C301.415 24.6303 300.851 25.5836 300.354 26.5803L301.249 27.0266ZM304.838 21.8075C305.555 21.0248 306.325 20.2944 307.141 19.6211L306.504 18.85C305.653 19.5526 304.849 20.3149 304.101 21.1319L304.838 21.8075ZM309.723 17.7742C310.624 17.22 311.564 16.7278 312.537 16.302L312.136 15.386C311.121 15.8303 310.14 16.3441 309.2 16.9224L309.723 17.7742ZM315.527 15.2344C316.54 14.9505 317.579 14.7354 318.636 14.5935L318.503 13.6024C317.399 13.7505 316.315 13.9751 315.257 14.2715L315.527 15.2344ZM321.804 14.3914C322.331 14.3945 322.861 14.4158 323.393 14.4557L323.468 13.4585C322.913 13.4168 322.36 13.3947 321.81 13.3915L321.804 14.3914ZM323.393 14.4557L324.77 14.5589L324.844 13.5617L323.468 13.4585L323.393 14.4557ZM327.523 14.7655L330.277 14.972L330.352 13.9748L327.598 13.7683L327.523 14.7655ZM333.031 15.1785L335.784 15.3851L335.859 14.3879L333.106 14.1813L333.031 15.1785ZM338.538 15.5916L341.292 15.7981L341.367 14.8009L338.613 14.5944L338.538 15.5916ZM344.046 16.0047L345.422 16.1079L345.497 15.1107L344.12 15.0075L344.046 16.0047ZM345.422 16.1079C345.921 16.1453 346.419 16.1752 346.918 16.1977L346.963 15.1987C346.474 15.1767 345.986 15.1474 345.497 15.1107L345.422 16.1079ZM349.912 16.2436C350.912 16.2292 351.91 16.1849 352.904 16.1112L352.83 15.1139C351.856 15.1862 350.878 15.2296 349.898 15.2437L349.912 16.2436ZM355.883 15.8008C356.874 15.6677 357.859 15.5052 358.838 15.3137L358.646 14.3323C357.687 14.52 356.721 14.6793 355.75 14.8097L355.883 15.8008ZM361.759 14.6516C362.726 14.402 363.685 14.1236 364.635 13.8168L364.328 12.8652C363.397 13.1658 362.457 13.4387 361.509 13.6833L361.759 14.6516ZM367.457 12.8124C368.387 12.45 369.306 12.0597 370.214 11.6419L369.796 10.7335C368.906 11.143 368.005 11.5255 367.094 11.8807L367.457 12.8124ZM372.896 10.3093C373.775 9.83936 374.642 9.34257 375.494 8.81929L374.971 7.96701C374.136 8.47989 373.286 8.96679 372.425 9.42738L372.896 10.3093ZM377.999 7.17746C378.408 6.89178 378.813 6.59967 379.214 6.30117L378.617 5.49894C378.224 5.79151 377.827 6.07781 377.426 6.35782L377.999 7.17746ZM379.214 6.30117L380.86 5.07611L380.263 4.27388L378.617 5.49894L379.214 6.30117ZM384.152 2.62599L385.798 1.40093L385.201 0.598701L383.555 1.82376L384.152 2.62599ZM385.5 1.49982L386.75 1.49982L386.75 0.499817L385.5 0.499818L385.5 1.49982ZM389.25 1.49982L391.75 1.49982L391.75 0.499817L389.25 0.499817L389.25 1.49982ZM394.25 1.49982L395.5 1.49982L395.5 0.499816L394.25 0.499816L394.25 1.49982ZM395.5 1.49982C395.987 1.49982 396.467 1.53148 396.937 1.59282L397.067 0.601218C396.554 0.534304 396.031 0.499816 395.5 0.499816L395.5 1.49982ZM399.711 2.33431C400.605 2.70504 401.439 3.19039 402.196 3.77219L402.806 2.97927C401.98 2.34484 401.069 1.81525 400.094 1.41058L399.711 2.33431ZM404.228 5.80347C404.809 6.56056 405.295 7.3953 405.666 8.2893L406.589 7.90624C406.185 6.9304 405.655 6.01973 405.021 5.19415L404.228 5.80347ZM406.407 11.0625C406.468 11.5327 406.5 12.0125 406.5 12.4998L407.5 12.4998C407.5 11.9691 407.466 11.4461 407.399 10.9332L406.407 11.0625ZM406.5 12.4998L406.5 13.6248L407.5 13.6248L407.5 12.4998L406.5 12.4998ZM406.5 15.8748L406.5 16.9999L407.5 16.9999L407.5 15.8749L406.5 15.8748Z" fill="#A5A5A5"/>
<path d="M342.648 24.5455V34H341.503V24.5455H342.648ZM352.44 24.5455V34H351.332L346.18 26.5767H346.088V34H344.943V24.5455H346.051L351.222 31.9872H351.314V24.5455H352.44ZM359.902 26.9091C359.846 26.4413 359.622 26.0781 359.228 25.8196C358.834 25.5611 358.351 25.4318 357.778 25.4318C357.36 25.4318 356.993 25.4995 356.679 25.6349C356.369 25.7704 356.125 25.9566 355.95 26.1935C355.778 26.4305 355.692 26.6998 355.692 27.0014C355.692 27.2538 355.752 27.4708 355.872 27.6523C355.995 27.8308 356.152 27.9801 356.342 28.1001C356.533 28.2171 356.733 28.314 356.943 28.391C357.152 28.4648 357.344 28.5249 357.52 28.571L358.48 28.8295C358.726 28.8942 359 28.9834 359.302 29.0973C359.606 29.2112 359.897 29.3666 360.174 29.5636C360.454 29.7575 360.685 30.0067 360.867 30.3114C361.048 30.6161 361.139 30.9901 361.139 31.4332C361.139 31.9441 361.005 32.4058 360.737 32.8182C360.473 33.2306 360.085 33.5584 359.574 33.8015C359.066 34.0446 358.449 34.1662 357.723 34.1662C357.046 34.1662 356.459 34.0569 355.964 33.8384C355.471 33.6199 355.084 33.3152 354.801 32.9244C354.52 32.5335 354.362 32.0795 354.325 31.5625H355.507C355.538 31.9195 355.658 32.215 355.867 32.4489C356.079 32.6797 356.347 32.852 356.67 32.9659C356.996 33.0767 357.347 33.1321 357.723 33.1321C358.16 33.1321 358.552 33.0613 358.9 32.9197C359.248 32.7751 359.523 32.575 359.726 32.3196C359.929 32.0611 360.031 31.7595 360.031 31.4148C360.031 31.1009 359.943 30.8454 359.768 30.6484C359.592 30.4515 359.362 30.2914 359.075 30.1683C358.789 30.0452 358.48 29.9375 358.148 29.8452L356.984 29.5128C356.246 29.3004 355.661 28.9973 355.23 28.6033C354.799 28.2094 354.584 27.6939 354.584 27.0568C354.584 26.5275 354.727 26.0658 355.013 25.6719C355.302 25.2749 355.69 24.9671 356.176 24.7486C356.666 24.527 357.212 24.4162 357.815 24.4162C358.424 24.4162 358.966 24.5254 359.44 24.744C359.914 24.9594 360.29 25.2549 360.567 25.6303C360.847 26.0058 360.994 26.4321 361.01 26.9091H359.902ZM362.504 25.5611V24.5455H369.595V25.5611H366.622V34H365.477V25.5611H362.504ZM370.645 34H369.445L372.917 24.5455H374.099L377.57 34H376.37L373.545 26.0412H373.471L370.645 34ZM371.089 30.3068H375.927V31.3224H371.089V30.3068ZM379.043 34V24.5455H380.188V32.9844H384.583V34H379.043ZM386.355 34V24.5455H387.5V32.9844H391.895V34H386.355ZM397.324 34V24.5455H400.519C401.257 24.5455 401.864 24.6716 402.338 24.924C402.812 25.1733 403.162 25.5165 403.39 25.9535C403.618 26.3905 403.732 26.8875 403.732 27.4446C403.732 28.0017 403.618 28.4956 403.39 28.9265C403.162 29.3574 402.813 29.6959 402.342 29.9421C401.871 30.1853 401.27 30.3068 400.537 30.3068H397.952V29.2727H400.5C401.005 29.2727 401.411 29.1989 401.719 29.0511C402.03 28.9034 402.254 28.6941 402.393 28.4233C402.535 28.1494 402.605 27.8232 402.605 27.4446C402.605 27.0661 402.535 26.7352 402.393 26.4521C402.251 26.1689 402.025 25.9504 401.714 25.7965C401.404 25.6396 400.993 25.5611 400.482 25.5611H398.469V34H397.324ZM401.774 29.7528L404.101 34H402.772L400.482 29.7528H401.774ZM405.64 34V24.5455H411.345V25.5611H406.784V28.7557H411.05V29.7713H406.784V32.9844H411.419V34H405.64ZM413.409 34V24.5455H416.604C417.345 24.5455 417.952 24.6793 418.423 24.9471C418.896 25.2118 419.247 25.5703 419.475 26.0227C419.703 26.4751 419.817 26.9799 419.817 27.5369C419.817 28.094 419.703 28.6003 419.475 29.0558C419.25 29.5112 418.903 29.8744 418.432 30.1452C417.961 30.413 417.358 30.5469 416.622 30.5469H414.332V29.5312H416.585C417.093 29.5312 417.501 29.4435 417.809 29.2681C418.116 29.0927 418.339 28.8557 418.478 28.5572C418.62 28.2556 418.69 27.9155 418.69 27.5369C418.69 27.1584 418.62 26.8198 418.478 26.5213C418.339 26.2228 418.115 25.9889 417.804 25.8196C417.493 25.6473 417.081 25.5611 416.567 25.5611H414.554V34H413.409ZM429.638 29.2727C429.638 30.2699 429.458 31.1316 429.098 31.858C428.738 32.5843 428.244 33.1444 427.616 33.5384C426.988 33.9323 426.271 34.1293 425.465 34.1293C424.659 34.1293 423.942 33.9323 423.314 33.5384C422.686 33.1444 422.192 32.5843 421.832 31.858C421.472 31.1316 421.292 30.2699 421.292 29.2727C421.292 28.2756 421.472 27.4138 421.832 26.6875C422.192 25.9612 422.686 25.401 423.314 25.0071C423.942 24.6132 424.659 24.4162 425.465 24.4162C426.271 24.4162 426.988 24.6132 427.616 25.0071C428.244 25.401 428.738 25.9612 429.098 26.6875C429.458 27.4138 429.638 28.2756 429.638 29.2727ZM428.53 29.2727C428.53 28.4541 428.393 27.7631 428.119 27.1999C427.849 26.6367 427.481 26.2105 427.016 25.9212C426.554 25.6319 426.037 25.4872 425.465 25.4872C424.893 25.4872 424.374 25.6319 423.909 25.9212C423.448 26.2105 423.08 26.6367 422.806 27.1999C422.535 27.7631 422.4 28.4541 422.4 29.2727C422.4 30.0914 422.535 30.7823 422.806 31.3455C423.08 31.9087 423.448 32.335 423.909 32.6243C424.374 32.9136 424.893 33.0582 425.465 33.0582C426.037 33.0582 426.554 32.9136 427.016 32.6243C427.481 32.335 427.849 31.9087 428.119 31.3455C428.393 30.7823 428.53 30.0914 428.53 29.2727ZM436.734 26.9091C436.678 26.4413 436.454 26.0781 436.06 25.8196C435.666 25.5611 435.183 25.4318 434.61 25.4318C434.192 25.4318 433.825 25.4995 433.511 25.6349C433.201 25.7704 432.958 25.9566 432.782 26.1935C432.61 26.4305 432.524 26.6998 432.524 27.0014C432.524 27.2538 432.584 27.4708 432.704 27.6523C432.827 27.8308 432.984 27.9801 433.174 28.1001C433.365 28.2171 433.565 28.314 433.775 28.391C433.984 28.4648 434.176 28.5249 434.352 28.571L435.312 28.8295C435.558 28.8942 435.832 28.9834 436.134 29.0973C436.438 29.2112 436.729 29.3666 437.006 29.5636C437.286 29.7575 437.517 30.0067 437.699 30.3114C437.88 30.6161 437.971 30.9901 437.971 31.4332C437.971 31.9441 437.837 32.4058 437.569 32.8182C437.305 33.2306 436.917 33.5584 436.406 33.8015C435.898 34.0446 435.281 34.1662 434.555 34.1662C433.878 34.1662 433.291 34.0569 432.796 33.8384C432.304 33.6199 431.916 33.3152 431.633 32.9244C431.353 32.5335 431.194 32.0795 431.157 31.5625H432.339C432.37 31.9195 432.49 32.215 432.699 32.4489C432.911 32.6797 433.179 32.852 433.502 32.9659C433.828 33.0767 434.179 33.1321 434.555 33.1321C434.992 33.1321 435.384 33.0613 435.732 32.9197C436.08 32.7751 436.355 32.575 436.558 32.3196C436.761 32.0611 436.863 31.7595 436.863 31.4148C436.863 31.1009 436.775 30.8454 436.6 30.6484C436.424 30.4515 436.194 30.2914 435.907 30.1683C435.621 30.0452 435.312 29.9375 434.98 29.8452L433.816 29.5128C433.078 29.3004 432.493 28.9973 432.062 28.6033C431.631 28.2094 431.416 27.6939 431.416 27.0568C431.416 26.5275 431.559 26.0658 431.845 25.6719C432.134 25.2749 432.522 24.9671 433.008 24.7486C433.498 24.527 434.044 24.4162 434.647 24.4162C435.257 24.4162 435.798 24.5254 436.272 24.744C436.746 24.9594 437.122 25.2549 437.399 25.6303C437.679 26.0058 437.826 26.4321 437.842 26.9091H436.734ZM440.998 24.5455V34H439.853V24.5455H440.998ZM442.777 25.5611V24.5455H449.868V25.5611H446.895V34H445.75V25.5611H442.777ZM459.218 29.2727C459.218 30.2699 459.038 31.1316 458.678 31.858C458.318 32.5843 457.824 33.1444 457.196 33.5384C456.568 33.9323 455.851 34.1293 455.045 34.1293C454.239 34.1293 453.522 33.9323 452.894 33.5384C452.266 33.1444 451.772 32.5843 451.412 31.858C451.052 31.1316 450.872 30.2699 450.872 29.2727C450.872 28.2756 451.052 27.4138 451.412 26.6875C451.772 25.9612 452.266 25.401 452.894 25.0071C453.522 24.6132 454.239 24.4162 455.045 24.4162C455.851 24.4162 456.568 24.6132 457.196 25.0071C457.824 25.401 458.318 25.9612 458.678 26.6875C459.038 27.4138 459.218 28.2756 459.218 29.2727ZM458.11 29.2727C458.11 28.4541 457.973 27.7631 457.7 27.1999C457.429 26.6367 457.061 26.2105 456.596 25.9212C456.135 25.6319 455.617 25.4872 455.045 25.4872C454.473 25.4872 453.954 25.6319 453.489 25.9212C453.028 26.2105 452.66 26.6367 452.386 27.1999C452.115 27.7631 451.98 28.4541 451.98 29.2727C451.98 30.0914 452.115 30.7823 452.386 31.3455C452.66 31.9087 453.028 32.335 453.489 32.6243C453.954 32.9136 454.473 33.0582 455.045 33.0582C455.617 33.0582 456.135 32.9136 456.596 32.6243C457.061 32.335 457.429 31.9087 457.7 31.3455C457.973 30.7823 458.11 30.0914 458.11 29.2727ZM461.143 34V24.5455H464.338C465.077 24.5455 465.683 24.6716 466.157 24.924C466.631 25.1733 466.982 25.5165 467.209 25.9535C467.437 26.3905 467.551 26.8875 467.551 27.4446C467.551 28.0017 467.437 28.4956 467.209 28.9265C466.982 29.3574 466.632 29.6959 466.162 29.9421C465.691 30.1853 465.089 30.3068 464.356 30.3068H461.771V29.2727H464.32C464.824 29.2727 465.231 29.1989 465.538 29.0511C465.849 28.9034 466.074 28.6941 466.212 28.4233C466.354 28.1494 466.425 27.8232 466.425 27.4446C466.425 27.0661 466.354 26.7352 466.212 26.4521C466.071 26.1689 465.845 25.9504 465.534 25.7965C465.223 25.6396 464.812 25.5611 464.301 25.5611H462.288V34H461.143ZM465.594 29.7528L467.92 34H466.591L464.301 29.7528H465.594ZM468.329 24.5455H469.64L472.262 28.9588H472.373L474.995 24.5455H476.306L472.89 30.1037V34H471.745V30.1037L468.329 24.5455Z" fill="#A5A5A5"/>
</g>
</g>
<defs>
<filter id="filter0_d_480_4040" x="450" y="84" width="98.9994" height="48" filterUnits="userSpaceOnUse" color-interpolation-filters="sRGB">
<feFlood flood-opacity="0" result="BackgroundImageFix"/>
<feColorMatrix in="SourceAlpha" type="matrix" values="0 0 0 0 0 0 0 0 0 0 0 0 0 0 0 0 0 0 127 0" result="hardAlpha"/>
<feOffset dy="1"/>
<feGaussianBlur stdDeviation="2.5"/>
<feComposite in2="hardAlpha" operator="out"/>
<feColorMatrix type="matrix" values="0 0 0 0 0.0916667 0 0 0 0 0.0916667 0 0 0 0 0.0916667 0 0 0 0.15 0"/>
<feBlend mode="normal" in2="BackgroundImageFix" result="effect1_dropShadow_480_4040"/>
<feBlend mode="normal" in="SourceGraphic" in2="effect1_dropShadow_480_4040" result="shape"/>
</filter>
<clipPath id="clip0_480_4040">
<rect width="580" height="168" fill="white"/>
</clipPath>
</defs>
</svg>
